<svg width="40" height="40" viewBox="0 0 40 40" fill="none" xmlns="http://www.w3.org/2000/svg">
<path d="M20 39.9998C31.0155 39.9998 40 31.0155 40 20C40 8.9843 31.0157 0 20 0C8.9843 0 0 8.9843 0 19.9999C0 31.0154 8.9843 39.9998 20 39.9998Z" fill="#304FFD"/>
<path d="M24.8462 7.0412L21.077 27.5028L23.7693 28.0412C29.468 23.8682 31.9135 7.0412 24.8462 7.0412Z" fill="#4E1E30"/>
<path d="M24.8464 7.04119C23.9041 6.46904 18.9308 5.016 15.1541 7.04119C10.5099 9.53159 6.44892 18.4386 13.0003 27.5028C13.0096 27.5156 17.8464 26.9643 17.8464 26.9643L24.8464 7.04119Z" fill="#4E1E30"/>
<path fill-rule="evenodd" clip-rule="evenodd" d="M24.8462 39.4044C23.2937 39.7932 21.6702 39.9997 20.0001 39.9997C18.3299 39.9997 16.7064 39.7932 15.1539 39.4044V28.368C16.2257 27.5587 16.2308 26.2208 16.2308 24.9899V23.7335H23.7693V24.9912H23.7986C23.7986 26.2116 23.8018 27.5378 24.8462 28.3492V39.4044Z" fill="#FFD7A3"/>
<path fill-rule="evenodd" clip-rule="evenodd" d="M24.3078 39.5313C22.9196 39.838 21.4781 39.9998 20.0001 39.9998C18.9006 39.9998 17.8214 39.9103 16.7693 39.7382V34.6211C17.7497 34.8877 18.8422 35.0412 20.0001 35.0412C21.6031 35.0412 23.0862 34.7533 24.3078 34.2658V39.5313Z" fill="#0090FF"/>
<path d="M24.3077 30.7336C24.5042 30.7872 24.6811 30.8157 24.8462 30.8296V28.3492C23.8019 27.5379 23.7985 26.2115 23.7985 24.9912L23.7978 24.9599V23.7022L17.8462 23.7335L16.2308 24.2719C17.3077 25.4836 20.6059 29.7239 24.3077 30.7336Z" fill="#FDC88E"/>
<path d="M27.5389 16.7334C27.5389 21.0455 23.2503 26.4258 20.0004 26.4258C16.7505 26.4258 12.462 21.0455 12.462 16.7334C12.462 12.4214 15.8371 10.8103 20.0004 10.8103C24.1637 10.8103 27.5389 12.4214 27.5389 16.7334Z" fill="#FFE1B2"/>
<path d="M21.077 8.11804C20.7744 8.11804 19.7921 8.45796 18.9893 8.75582L18.9231 8.65648C18.9231 8.65648 18.8123 8.74354 18.6205 8.89444C18.174 9.06399 17.8462 9.19492 17.8462 9.19492L17.9722 9.40489C15.9284 11.0151 11.2655 14.6987 10.8462 15.118C10.3077 15.6565 14.0769 29.3943 14.0769 21.5796C14.0769 15.0508 17.7042 13.7578 21.077 12.9642C22.6026 12.6052 23.0513 11.7078 23.2308 10.8104C23.4103 9.91297 21.6155 8.11804 21.077 8.11804Z" fill="#4E1E30"/>
<path d="M22.6924 11.3489C23.6796 14.8937 25.654 16.4979 27.505 16.9691C28.5192 17.2272 28.0771 14.0412 28.0771 14.0412C28.0771 14.0412 26.6412 10.3617 26.4617 10.272C26.2823 10.1822 24.8463 7.0412 24.8463 7.0412L21.6155 9.73355L22.6924 11.3489Z" fill="#4E1E30"/>
<path fill-rule="evenodd" clip-rule="evenodd" d="M18.5548 39.9479L15.7452 27.7228C15.2409 28.5421 14.2127 29.1181 12.1026 29.1181H11.9232C8.9014 29.1181 6.40806 31.381 6.04541 34.3047C9.32999 37.5098 13.708 39.599 18.5548 39.9479Z" fill="#FF965D"/>
<path fill-rule="evenodd" clip-rule="evenodd" d="M33.9548 34.3046C33.5921 31.381 31.0988 29.1181 28.077 29.1181H27.8976C25.7875 29.1181 24.7593 28.5421 24.255 27.7228L21.4454 39.9479C26.2922 39.599 30.6702 37.5097 33.9548 34.3046Z" fill="#FF965D"/>
<path d="M26.7364 16.7827C27.6175 16.5808 28.1947 17.0123 28.1947 17.8597C28.1947 18.9815 27.0099 21.7299 25.7643 20.0135C24.5187 18.2971 26.7364 16.7827 26.7364 16.7827Z" fill="#FFE1B2"/>
</svg>
