<svg width="20" height="20" viewBox="0 0 20 20" fill="none" xmlns="http://www.w3.org/2000/svg">
<g clip-path="url(#clip0_586_2139)">
<path d="M10.4852 13.947C10.395 13.7849 10.2259 13.6823 10.0404 13.6771C9.8549 13.6731 9.68047 13.765 9.58138 13.9218L6.60534 18.6322C6.503 18.7942 6.49686 18.9991 6.58935 19.1668C6.68185 19.3346 6.85825 19.4388 7.04985 19.4388H12.6484C12.8348 19.4388 13.0072 19.3402 13.1017 19.1795C13.1961 19.0189 13.1984 18.8202 13.1078 18.6573L10.4852 13.947ZM8.00393 18.3873L9.99733 15.2322L11.7539 18.3873H8.00393Z" fill="#120A00"/>
<path d="M19.9803 9.51193C19.9018 9.23235 19.6114 9.0694 19.332 9.14793L18.0351 9.5121L18.2875 8.52802C18.3257 8.37917 18.2968 8.22101 18.2085 8.09525L15.3146 3.97441C15.2507 3.88352 15.1626 3.81895 15.0648 3.7832C15.1897 3.47422 15.2591 3.13717 15.2591 2.78394C15.2591 1.30812 14.0584 0.107422 12.5825 0.107422C11.1067 0.107422 9.90606 1.30812 9.90606 2.78394C9.90606 4.09501 10.8538 5.18815 12.1 5.41612C12.0761 5.5204 12.0833 5.63249 12.1276 5.73769L13.3708 8.69097L12.737 11.0065L6.46793 12.7999L5.23586 11.0334L4.83871 6.62502C4.82761 6.50157 4.77398 6.39082 4.6928 6.30695C5.41857 5.82766 5.89867 5.00522 5.89867 4.07229C5.89867 2.59643 4.69797 1.39573 3.22215 1.39573C1.74633 1.39573 0.545674 2.59643 0.545674 4.07229C0.545674 4.84812 0.877836 5.54765 1.40702 6.03696C1.32306 6.11061 1.26194 6.21122 1.23835 6.32815L0.0799239 12.0674C0.0478308 12.2262 0.090902 12.3911 0.196603 12.5141L1.6871 14.248L0.379109 14.6283C0.100282 14.7094 -0.0600156 15.0011 0.0210374 15.28C0.0878736 15.5098 0.297804 15.6591 0.525653 15.6591C0.574276 15.6591 0.623699 15.6523 0.672701 15.638L2.44022 15.1241L2.63694 15.3529L1.33753 17.9937C1.23738 18.1972 1.27906 18.442 1.44096 18.601L2.60359 19.7422C2.70197 19.8387 2.83421 19.8927 2.97188 19.8927C2.97441 19.8927 2.97689 19.8927 2.97937 19.8927C3.11969 19.8906 3.2534 19.8326 3.35073 19.7315L7.66194 15.2523C7.83599 15.0714 7.85795 14.7928 7.71435 14.5869L7.10386 13.7116L12.4122 12.1931L12.0129 13.6518C11.9501 13.8812 12.0491 14.1242 12.2544 14.2444L16.9997 17.022C17.0826 17.0705 17.1742 17.0941 17.265 17.0941C17.4114 17.0941 17.5556 17.0331 17.6584 16.9175L18.8613 15.563C19.0278 15.3756 19.0387 15.0965 18.8873 14.8965L17.2193 12.6934L17.7335 10.6891L19.6165 10.1603C19.8958 10.0817 20.0588 9.79148 19.9803 9.51193ZM3.22198 2.44723C4.11798 2.44723 4.84695 3.17621 4.84695 4.07225C4.84695 4.96825 4.11798 5.69718 3.22198 5.69718C2.32598 5.69718 1.59705 4.96825 1.59705 4.07225C1.59705 3.17621 2.32602 2.44723 3.22198 2.44723ZM2.96116 18.6198L2.44872 18.1168L3.73362 15.5056C3.82658 15.3166 3.79785 15.0904 3.66056 14.9307L1.16137 12.0235L2.17532 6.99971L3.83045 7.15483L4.20088 11.2669C4.20909 11.358 4.24097 11.4453 4.29329 11.5204L5.819 13.7079C5.81997 13.7093 5.82098 13.7108 5.82203 13.7123L6.60459 14.8343L2.96116 18.6198ZM10.9576 2.78394C10.9576 1.88794 11.6865 1.15897 12.5825 1.15897C13.4785 1.15897 14.2075 1.88794 14.2075 2.78394C14.2075 3.68002 13.4785 4.409 12.5825 4.409C11.6865 4.409 10.9576 3.68002 10.9576 2.78394ZM17.7884 15.1873L17.1584 15.8966L13.1334 13.5405L14.433 8.79331C14.464 8.67974 14.4561 8.55902 14.4105 8.4505L13.28 5.76507L14.7255 4.96526L17.2087 8.50131L16.1375 12.6779C16.0977 12.8331 16.1309 12.998 16.2276 13.1258L17.7884 15.1873Z" fill="#120A00"/>
</g>
<defs>
<clipPath id="clip0_586_2139">
<rect width="20" height="20" fill="white"/>
</clipPath>
</defs>
</svg>
