<svg width="20" height="20" viewBox="0 0 20 20" fill="none" xmlns="http://www.w3.org/2000/svg">
<path d="M18.2759 3.44814H1.72406C0.773388 3.44814 0 4.22152 0 5.17216V14.8279C0 15.7785 0.773388 16.5519 1.72406 16.5519H18.2759C19.2266 16.5519 20 15.7785 20 14.8279V5.17216C20 4.22148 19.2266 3.44814 18.2759 3.44814ZM1.72406 3.95661H18.2759C18.9461 3.95661 19.4915 4.5019 19.4915 5.17216V6.26258H0.508516V5.17216C0.508516 4.5019 1.05381 3.95661 1.72406 3.95661ZM18.2759 16.0434H1.72406C1.05381 16.0434 0.508473 15.4981 0.508473 14.8279V7.49135H19.4915V14.8279C19.4915 15.4981 18.9462 16.0434 18.2759 16.0434Z" fill="#120A00"/>
<path d="M6.07496 10.3216H3.1078C2.56238 10.3216 2.11865 10.7654 2.11865 11.3108V12.4866C2.11865 13.032 2.56238 13.4758 3.1078 13.4758H6.07496C6.62038 13.4758 7.06411 13.032 7.06411 12.4866V11.3108C7.06411 10.7654 6.62038 10.3216 6.07496 10.3216ZM6.55563 12.4866C6.55563 12.7516 6.34 12.9673 6.07496 12.9673H3.1078C2.84276 12.9673 2.62713 12.7516 2.62713 12.4866V11.3108C2.62713 11.0458 2.84276 10.8301 3.1078 10.8301H6.07496C6.34 10.8301 6.55563 11.0458 6.55563 11.3108V12.4866Z" fill="#120A00"/>
<path d="M17.6888 10.3216H9.415C9.27462 10.3216 9.16077 10.4355 9.16077 10.5759C9.16077 10.7162 9.27462 10.8301 9.415 10.8301H17.6888C17.8291 10.8301 17.943 10.7162 17.943 10.5759C17.943 10.4355 17.8292 10.3216 17.6888 10.3216Z" fill="#120A00"/>
<path d="M13.3896 12.3058H9.415C9.27462 12.3058 9.16077 12.4197 9.16077 12.5601C9.16077 12.7004 9.27462 12.8143 9.415 12.8143H13.3896C13.5299 12.8143 13.6438 12.7004 13.6438 12.5601C13.6438 12.4197 13.53 12.3058 13.3896 12.3058Z" fill="#120A00"/>
</svg>
