<svg width="20" height="20" viewBox="0 0 20 20" fill="none" xmlns="http://www.w3.org/2000/svg">
<path d="M18.2759 3.44812H1.72406C0.773388 3.44812 0 4.22151 0 5.17214V14.8278C0 15.7785 0.773388 16.5519 1.72406 16.5519H18.2759C19.2266 16.5519 20 15.7785 20 14.8278V5.17214C20 4.22147 19.2266 3.44812 18.2759 3.44812ZM1.72406 3.95659H18.2759C18.9461 3.95659 19.4915 4.50189 19.4915 5.17214V6.26256H0.508516V5.17214C0.508516 4.50189 1.05381 3.95659 1.72406 3.95659ZM18.2759 16.0434H1.72406C1.05381 16.0434 0.508473 15.4981 0.508473 14.8278V7.49133H19.4915V14.8278C19.4915 15.4981 18.9462 16.0434 18.2759 16.0434Z" fill="#120A00"/>
<path d="M6.07494 10.3216H3.10779C2.56237 10.3216 2.11864 10.7654 2.11864 11.3108V12.4866C2.11864 13.032 2.56237 13.4758 3.10779 13.4758H6.07494C6.62037 13.4758 7.06409 13.032 7.06409 12.4866V11.3108C7.06409 10.7654 6.62037 10.3216 6.07494 10.3216ZM6.55562 12.4866C6.55562 12.7516 6.33998 12.9673 6.07494 12.9673H3.10779C2.84275 12.9673 2.62711 12.7516 2.62711 12.4866V11.3108C2.62711 11.0458 2.84275 10.8301 3.10779 10.8301H6.07494C6.33998 10.8301 6.55562 11.0458 6.55562 11.3108V12.4866Z" fill="#120A00"/>
<path d="M17.6888 10.3216H9.41502C9.27464 10.3216 9.16078 10.4355 9.16078 10.5759C9.16078 10.7162 9.27464 10.8301 9.41502 10.8301H17.6888C17.8291 10.8301 17.943 10.7162 17.943 10.5759C17.943 10.4355 17.8292 10.3216 17.6888 10.3216Z" fill="#120A00"/>
<path d="M13.3896 12.3058H9.41502C9.27464 12.3058 9.16078 12.4197 9.16078 12.5601C9.16078 12.7004 9.27464 12.8143 9.41502 12.8143H13.3896C13.5299 12.8143 13.6438 12.7004 13.6438 12.5601C13.6438 12.4197 13.53 12.3058 13.3896 12.3058Z" fill="#120A00"/>
</svg>
