<svg width="80" height="80" viewBox="0 0 80 80" fill="none" xmlns="http://www.w3.org/2000/svg">
<g filter="url(#filter0_d_305_18503)">
<rect x="16" y="16" width="48" height="48" rx="24" fill="#FF3436" shape-rendering="crispEdges"/>
<path fill-rule="evenodd" clip-rule="evenodd" d="M38.05 33.705C38.1813 33.5737 38.3593 33.5 38.545 33.5H41.445C41.6306 33.5 41.8087 33.5737 41.9399 33.705C42.0712 33.8363 42.145 34.0143 42.145 34.2V34.9L37.845 34.9V34.2C37.845 34.0143 37.9187 33.8363 38.05 33.705ZM36.345 34.9V34.2C36.345 33.6165 36.5768 33.0569 36.9893 32.6444C37.4019 32.2318 37.9615 32 38.545 32H41.445C42.0284 32 42.588 32.2318 43.0006 32.6444C43.4132 33.0569 43.645 33.6165 43.645 34.2V34.9L46.52 34.9C46.9342 34.9 47.27 35.2358 47.27 35.65C47.27 36.0642 46.9342 36.4 46.52 36.4H45.82V45.8C45.82 46.3835 45.5882 46.9431 45.1756 47.3556C44.763 47.7682 44.2034 48 43.62 48H36.37C35.7865 48 35.2269 47.7682 34.8143 47.3556C34.4018 46.9431 34.17 46.3835 34.17 45.8V36.4H33.47C33.0558 36.4 32.72 36.0642 32.72 35.65C32.72 35.2358 33.0558 34.9 33.47 34.9H36.345ZM35.67 45.8V36.4H44.32V45.8C44.32 45.9857 44.2462 46.1637 44.1149 46.295C43.9837 46.4263 43.8056 46.5 43.62 46.5H36.37C36.1843 46.5 36.0063 46.4263 35.875 46.295C35.7437 46.1637 35.67 45.9857 35.67 45.8ZM38.545 38.525C38.9592 38.525 39.295 38.8608 39.295 39.275V43.625C39.295 44.0392 38.9592 44.375 38.545 44.375C38.1308 44.375 37.795 44.0392 37.795 43.625V39.275C37.795 38.8608 38.1308 38.525 38.545 38.525ZM42.1949 39.275C42.1949 38.8608 41.8592 38.525 41.4449 38.525C41.0307 38.525 40.6949 38.8608 40.6949 39.275V43.625C40.6949 44.0392 41.0307 44.375 41.4449 44.375C41.8592 44.375 42.1949 44.0392 42.1949 43.625V39.275Z" fill="#F6F6F6"/>
<rect x="16" y="16" width="48" height="48" rx="24" stroke="white" shape-rendering="crispEdges"/>
</g>
<defs>
<filter id="filter0_d_305_18503" x="0.5" y="0.5" width="79" height="79" filterUnits="userSpaceOnUse" color-interpolation-filters="sRGB">
<feFlood flood-opacity="0" result="BackgroundImageFix"/>
<feColorMatrix in="SourceAlpha" type="matrix" values="0 0 0 0 0 0 0 0 0 0 0 0 0 0 0 0 0 0 127 0" result="hardAlpha"/>
<feOffset/>
<feGaussianBlur stdDeviation="7.5"/>
<feComposite in2="hardAlpha" operator="out"/>
<feColorMatrix type="matrix" values="0 0 0 0 1 0 0 0 0 0.172549 0 0 0 0 0.172549 0 0 0 0.75 0"/>
<feBlend mode="normal" in2="BackgroundImageFix" result="effect1_dropShadow_305_18503"/>
<feBlend mode="normal" in="SourceGraphic" in2="effect1_dropShadow_305_18503" result="shape"/>
</filter>
</defs>
</svg>
