<svg width="20" height="20" viewBox="0 0 20 20" fill="none" xmlns="http://www.w3.org/2000/svg">
<path d="M16.3906 8.98996L14.8281 7.42778C14.7103 7.30996 14.5187 7.30996 14.4009 7.42778C14.2828 7.54587 14.2828 7.73721 14.4009 7.85503L15.4375 8.8914H11.0208V9.5164H15.437L14.4009 10.5528C14.2828 10.6709 14.2828 10.8622 14.4009 10.98C14.4598 11.0389 14.5373 11.0685 14.6145 11.0685C14.6917 11.0685 14.7692 11.0389 14.8281 10.98L16.3906 9.41721C16.4474 9.36046 16.4791 9.28356 16.4791 9.20359C16.4791 9.12334 16.4474 9.04674 16.3906 8.98996Z" fill="#FF3436"/>
<path d="M12.5833 12.3289C12.4105 12.3289 12.2708 12.4687 12.2708 12.6414V16.0133C12.2708 16.3392 12.0111 16.7039 11.6635 16.7039H9.77075V3.51233V3.08367L9.38094 2.91686L4.39885 0.801388L4.31738 0.766388H11.6635C12.0437 0.766388 12.2708 1.07645 12.2708 1.37614V6.07889C12.2708 6.25161 12.4105 6.39139 12.5833 6.39139C12.756 6.39139 12.8958 6.25161 12.8958 6.07889V1.37614C12.8958 0.695294 12.3431 0.141388 11.6635 0.141388H3.83325C3.67025 0.141388 3.54078 0.267294 3.52628 0.426513L3.52075 0.424138V0.453888V17.1981L8.89122 19.4814L9.77075 19.8586V18.8914V17.3289H11.6635C12.4005 17.3289 12.8958 16.6486 12.8958 16.0133V12.6414C12.8958 12.4687 12.756 12.3289 12.5833 12.3289ZM9.14575 3.51233V18.8914L4.14575 16.7737V1.39139L9.14285 3.50789L9.14575 3.50911V3.51233Z" fill="#FF3436"/>
</svg>
