<svg width="20" height="20" viewBox="0 0 20 20" fill="none" xmlns="http://www.w3.org/2000/svg">
<path d="M0 16.6667H20M0 19.3333H20M3.33333 5.33333V3.33333H5.33333M14.6667 3.33333H16.6667V5.33333M3.33333 9.33333V11.3333H5.33333M14.6667 11.3333H16.6667V9.33333M10 10C8.52724 10 7.33333 8.80609 7.33333 7.33333C7.33333 5.86057 8.52724 4.66666 10 4.66666C11.4728 4.66666 12.6667 5.86057 12.6667 7.33333C12.6667 8.80609 11.4728 10 10 10ZM2 0.666664H18C18.7364 0.666664 19.3333 1.26362 19.3333 2V12.6667C19.3333 13.403 18.7364 14 18 14H2C1.26362 14 0.666667 13.403 0.666667 12.6667V2C0.666667 1.26362 1.26362 0.666664 2 0.666664Z" stroke="#120A00"/>
</svg>
