<svg width="88" height="88" viewBox="0 0 88 88" fill="none" xmlns="http://www.w3.org/2000/svg">
<mask id="mask0_214_7042" style="mask-type:alpha" maskUnits="userSpaceOnUse" x="0" y="0" width="88" height="88">
<rect opacity="0.1" width="88" height="88" rx="24" fill="#FF965D"/>
</mask>
<g mask="url(#mask0_214_7042)">
<rect width="88" height="88" fill="#00AC45"/>
</g>
<g clip-path="url(#clip0_214_7042)">
<path d="M71.7717 47.1615H63.5813V39.2899H71.7717C73.0024 39.2899 74 38.2933 74 37.0624C74 35.8314 73.0024 34.8342 71.7717 34.8342H63.5813V23.9119C63.5813 22.3176 63.2663 21.1474 62.6452 20.4345C62.0549 19.7564 61.2789 19.4408 60.2041 19.4408C59.1786 19.4408 58.4318 19.7542 57.8529 20.4281C57.2391 21.1417 56.9275 22.3141 56.9275 23.9127V34.8355H41.521L34.9703 24.9228C34.4097 24.0382 33.8825 23.2095 33.3706 22.4141C32.9097 21.6977 32.4602 21.1145 32.0356 20.679C31.6597 20.2934 31.2313 19.995 30.7303 19.7657C30.2576 19.5499 29.6566 19.4415 28.9455 19.4415C28.0386 19.4415 27.2154 19.69 26.4271 20.2004C25.647 20.7053 25.1078 21.3296 24.7785 22.1089C24.4894 22.8496 24.3364 23.9845 24.3364 25.4495V34.8348H16.2274C14.997 34.8349 14 35.8321 14 37.063C14 38.2939 14.997 39.2906 16.2275 39.2906H24.3366V47.163H16.2275C14.997 47.163 14 48.1599 14 49.3912C14 50.6218 14.997 51.618 16.2275 51.618H24.3366V64.0884C24.3366 65.6356 24.6617 66.794 25.3056 67.5301C25.918 68.2319 26.6944 68.5578 27.7488 68.5578C28.7661 68.5578 29.5365 68.2305 30.1754 67.5273C30.8296 66.8069 31.1605 65.6493 31.1605 64.0885V51.618H45.1017L52.646 63.1865C53.1706 63.9512 53.7122 64.723 54.2524 65.4799C54.7398 66.1595 55.2715 66.7583 55.8325 67.2585C56.3378 67.7109 56.8794 68.0425 57.4425 68.2447C58.0221 68.4534 58.6995 68.5592 59.4513 68.5592C61.4915 68.5592 63.5811 67.9346 63.5811 63.3024V51.618H71.7715C73.0022 51.618 73.9998 50.6203 73.9998 49.3898C74 48.1592 73.0024 47.1615 71.7717 47.1615ZM56.9274 39.2898V47.1614H49.6682L44.4668 39.2898H56.9274ZM31.1606 30.2451L34.1542 34.8342H31.1606V30.2451ZM31.1606 47.1615V39.2899H37.061L42.1953 47.1615H31.1606ZM56.9274 58.1484L52.6132 51.618H56.9274V58.1484Z" fill="#00AC45"/>
</g>
<defs>
<clipPath id="clip0_214_7042">
<rect width="60" height="60" fill="white" transform="translate(14 14)"/>
</clipPath>
</defs>
</svg>
