<svg width="88" height="88" viewBox="0 0 88 88" fill="none" xmlns="http://www.w3.org/2000/svg">
<mask id="mask0_214_7051" style="mask-type:alpha" maskUnits="userSpaceOnUse" x="0" y="0" width="88" height="88">
<rect opacity="0.1" width="88" height="88" rx="24" fill="#FF965D"/>
</mask>
<g mask="url(#mask0_214_7051)">
<rect width="88" height="88" fill="#F9AC3B"/>
</g>
<path d="M58.9061 66.7506C58.054 66.7506 57.2803 66.6263 56.6075 66.3835C55.939 66.1449 55.2987 65.7538 54.7078 65.225C54.1134 64.6948 53.5465 64.0602 53.0298 63.3373C52.5032 62.6003 51.9765 61.8499 51.4675 61.1065L44.4892 50.4085H32.6731V61.3783C32.6731 63.1573 32.2608 64.5113 31.4489 65.4086C30.6286 66.3108 29.6057 66.7491 28.323 66.7491C26.9951 66.7491 25.9637 66.3058 25.1681 65.3944C24.3739 64.4887 23.9715 63.1368 23.9715 61.3783V50.4085H17.2085C15.4394 50.4085 14 48.9691 14 47.2C14 45.4309 15.4394 43.9915 17.2085 43.9915H23.9715V38.5154H17.2085C15.4394 38.5161 14 37.0767 14 35.3083C14 33.5399 15.4394 32.0998 17.2085 32.0998H23.9715V24.1042C23.9715 22.5589 24.1395 21.3446 24.4706 20.4968C24.8843 19.5155 25.5352 18.7573 26.4713 18.1516C27.4074 17.5445 28.3908 17.2494 29.4772 17.2494C30.3166 17.2494 31.0451 17.3864 31.6381 17.6582C32.2474 17.9363 32.7634 18.2978 33.2166 18.763C33.6783 19.2353 34.1555 19.8551 34.637 20.6027C35.1319 21.3722 35.6423 22.1734 36.1837 23.029L42.1787 32.0998H55.4124V22.6217C55.4124 20.8187 55.7985 19.4562 56.5595 18.5703C57.3234 17.6815 58.3286 17.2494 59.6318 17.2494C60.9788 17.2494 62.0116 17.6822 62.7867 18.5724C63.5583 19.4576 63.9487 20.8208 63.9487 22.6217V32.0998H70.7915C72.5606 32.0998 74 33.5392 74 35.3083C74 37.0774 72.5606 38.5161 70.7915 38.5161H63.9487V43.9929H70.7915C72.5606 43.9929 74 45.4316 74 47.2014C74 48.9705 72.5606 50.4085 70.7915 50.4085H63.9487V60.6215C63.9487 64.7457 62.2996 66.7506 58.9061 66.7506ZM31.6141 48.2907H45.0632C45.4204 48.2907 45.7543 48.4714 45.9498 48.7707L53.2296 59.9311C53.7153 60.6441 54.2363 61.3818 54.7523 62.1061C55.1787 62.6998 55.639 63.218 56.1204 63.6472C56.508 63.9945 56.9118 64.2444 57.3255 64.392C57.7695 64.5536 58.3004 64.6341 58.9068 64.6341C60.1401 64.6341 61.8316 64.6341 61.8316 60.6222V49.3496C61.8316 48.7651 62.3067 48.2907 62.8905 48.2907H70.7922C71.3943 48.2907 71.8829 47.8015 71.8829 47.2C71.8829 46.5985 71.3943 46.1093 70.7922 46.1093H62.8898C62.3053 46.1093 61.8309 45.6349 61.8309 45.0504V37.4572C61.8309 36.8727 62.3053 36.3983 62.8898 36.3983H70.7915C71.3929 36.3983 71.8822 35.9098 71.8822 35.3083C71.8822 34.7068 71.3929 34.2176 70.7915 34.2176H62.8898C62.3053 34.2176 61.8309 33.7432 61.8309 33.1587V22.6217C61.8309 21.0333 61.4821 20.2991 61.1884 19.9624C60.9322 19.6673 60.5474 19.3666 59.6318 19.3666C58.9464 19.3666 58.5221 19.5353 58.1663 19.9497C57.8775 20.2878 57.5316 21.0248 57.5316 22.621V33.158C57.5316 33.7425 57.0572 34.2169 56.4727 34.2169H41.609C41.2532 34.2169 40.9207 34.0383 40.7251 33.7418L34.4062 24.1797C33.8548 23.3114 33.3472 22.5144 32.8552 21.7491C32.4514 21.1201 32.0624 20.6133 31.6995 20.2419C31.432 19.9659 31.1249 19.752 30.7578 19.584C30.4479 19.4421 30.0039 19.3666 29.4772 19.3666C28.803 19.3666 28.2143 19.5452 27.6227 19.9285C27.0466 20.3019 26.6683 20.7361 26.4325 21.2938C26.311 21.6044 26.0894 22.4247 26.0894 24.1042V33.158C26.0894 33.7425 25.615 34.2169 25.0305 34.2169H17.2085C16.6071 34.2176 16.1178 34.7068 16.1178 35.3083C16.1178 35.9098 16.6071 36.3983 17.2085 36.3983H25.0305C25.615 36.3983 26.0894 36.8727 26.0894 37.4572V45.0511C26.0894 45.6356 25.615 46.11 25.0305 46.11H17.2085C16.6071 46.1093 16.1178 46.5992 16.1178 47.2C16.1178 47.8008 16.6071 48.2907 17.2085 48.2907H25.0305C25.615 48.2907 26.0894 48.7651 26.0894 49.3496V61.3783C26.0894 62.5918 26.3223 63.499 26.7621 64.0009C27.1483 64.4435 27.6142 64.6327 28.323 64.6327C29.0028 64.6327 29.4673 64.44 29.8796 63.9854C30.3208 63.4997 30.5552 62.5975 30.5552 61.3804V49.3496C30.5552 48.7651 31.0296 48.2907 31.6141 48.2907ZM56.4713 56.7084C56.1226 56.7084 55.7872 56.5348 55.5874 56.2326L51.4252 49.9327C51.2113 49.6073 51.1922 49.1901 51.3779 48.8477C51.5628 48.5046 51.9222 48.2907 52.309 48.2907H56.4713C57.0558 48.2907 57.5302 48.7651 57.5302 49.3496V55.6495C57.5302 56.1168 57.2224 56.5291 56.7763 56.664C56.6753 56.6936 56.5722 56.7084 56.4713 56.7084ZM54.2779 50.4085L55.4124 52.1254V50.4085H54.2779ZM56.4713 46.1093H49.4683C49.1125 46.1093 48.78 45.9307 48.5844 45.6342L43.5673 38.0403C43.3519 37.7149 43.3329 37.2977 43.5178 36.9546C43.7028 36.6122 44.0614 36.3976 44.4497 36.3976H56.4713C57.0558 36.3976 57.5302 36.872 57.5302 37.4565V45.0504C57.5302 45.6356 57.0558 46.1093 56.4713 46.1093ZM50.038 43.9915H55.4124V38.5154H46.4186L50.038 43.9915ZM42.2584 46.1093H31.6141C31.0296 46.1093 30.5552 45.6349 30.5552 45.0504V37.4572C30.5552 36.8727 31.0296 36.3983 31.6141 36.3983H37.3062C37.6634 36.3983 37.9973 36.579 38.1929 36.879L43.1458 44.4729C43.3583 44.7984 43.3745 45.2135 43.1903 45.5551C43.0046 45.8975 42.6474 46.1093 42.2584 46.1093ZM32.6731 43.9915H40.3037L36.7323 38.5154H32.6731V43.9915ZM34.5015 34.2183H31.6141C31.0296 34.2183 30.5552 33.7439 30.5552 33.1594V28.7324C30.5552 28.2636 30.863 27.8507 31.312 27.7172C31.7603 27.5845 32.2452 27.761 32.5008 28.1535L35.3881 32.5805C35.6006 32.906 35.6183 33.3218 35.4333 33.6634C35.2476 34.0044 34.8904 34.2183 34.5015 34.2183Z" fill="#F9AC3B"/>
</svg>
