<svg width="250" height="251" viewBox="0 0 250 251" fill="none" xmlns="http://www.w3.org/2000/svg">
<path d="M141.925 92.285C144.565 92.285 210.425 91.825 229 91.825C230.3 91.825 228.655 89.575 227.94 89.415C225.655 88.915 223.27 88.89 220.94 88.65C218.651 88.4376 216.408 87.8814 214.285 87C212.455 86.23 210.63 85.335 208.645 85C204.815 84.4 201.455 86.5 197.86 87.395C196.769 87.7104 195.623 87.7937 194.498 87.6396C193.372 87.4854 192.291 87.0972 191.325 86.5C189.665 85.5 188.155 84.31 186.42 83.43C183.098 81.7928 179.474 80.859 175.774 80.6869C172.075 80.5148 168.38 81.1083 164.92 82.43C163.272 83.0642 161.694 83.8703 160.215 84.835C158.46 85.99 156.945 87.46 155.185 88.6C151.285 91.1 146.465 90.3 142.21 91.745C141.96 91.845 141.695 92.285 141.925 92.285Z" fill="#EBEBEB"/>
<path d="M138.14 33.28C141.64 33.28 200.33 33.665 204.02 33.55C204.285 33.55 204.425 33.15 204.165 33.02C201.835 31.87 199.2 32.1 196.785 31.285C195.36 30.785 194.485 29.875 193.5 28.785C192.685 27.8509 191.628 27.159 190.445 26.785C189.365 26.4606 188.219 26.4244 187.12 26.68C185.93 26.965 184.895 27.645 183.76 28.075C180.94 29.14 178.2 28.13 176.185 26.045C174.525 24.325 172.89 22.7 170.635 21.775C169.713 21.3579 168.715 21.1355 167.704 21.1218C166.692 21.108 165.688 21.3031 164.755 21.695C162.6 22.67 161.125 24.63 159.1 25.81C156.705 27.21 153.835 26.88 151.19 27.31C148.545 27.74 146.51 29.965 144.19 31.25C143.434 31.7357 142.559 32.007 141.66 32.035C141.16 32.035 140.63 31.88 140.12 31.815C139.32 31.715 138.56 31.74 138.02 32.405C137.885 32.59 137.915 33.28 138.14 33.28Z" fill="#EBEBEB"/>
<path d="M20.6652 63.785C23.2102 63.785 66.0652 64.07 68.7602 63.98C68.9502 63.98 69.0552 63.69 68.8652 63.595C67.1652 62.755 65.2402 62.925 63.4752 62.33C62.4352 61.98 61.8002 61.3 61.0802 60.525C60.4827 59.8455 59.712 59.3409 58.8502 59.065C58.0607 58.828 57.2228 58.8021 56.4202 58.99C55.5816 59.2713 54.7617 59.6053 53.9652 59.99C51.9102 60.765 49.9102 60.03 48.4402 58.49C47.2252 57.235 46.0352 56.05 44.3852 55.375C43.7128 55.0701 42.9847 54.9073 42.2465 54.897C41.5083 54.8867 40.7759 55.029 40.0952 55.315C38.5202 56.025 37.4402 57.46 35.9652 58.315C34.2152 59.34 32.1202 59.095 30.1902 59.405C28.2602 59.715 26.7702 61.34 25.0752 62.28C24.5224 62.6358 23.8824 62.833 23.2252 62.85C22.8502 62.85 22.4752 62.74 22.1002 62.695C21.8303 62.6196 21.5448 62.6199 21.275 62.6957C21.0052 62.7716 20.7614 62.92 20.5702 63.125C20.5002 63.285 20.5002 63.785 20.6652 63.785Z" fill="#EBEBEB"/>
<path d="M179.925 64.9C182.475 64.9 225.33 65.185 228.02 65.095C228.215 65.095 228.32 64.805 228.125 64.71C226.43 63.87 224.505 64.04 222.74 63.445C221.7 63.095 221.065 62.415 220.345 61.64C219.747 60.9605 218.977 60.4559 218.115 60.18C217.325 59.943 216.488 59.9172 215.685 60.105C214.846 60.3863 214.026 60.7203 213.23 61.105C211.17 61.88 209.17 61.145 207.7 59.605C206.49 58.35 205.295 57.165 203.65 56.49C202.977 56.185 202.248 56.0222 201.509 56.0119C200.77 56.0016 200.036 56.1439 199.355 56.43C197.785 57.14 196.705 58.575 195.23 59.43C193.48 60.43 191.385 60.21 189.45 60.52C187.515 60.83 186.035 62.455 184.34 63.395C183.793 63.7608 183.157 63.97 182.5 64C182.122 63.9667 181.747 63.9133 181.375 63.84C181.105 63.7659 180.819 63.7672 180.549 63.8439C180.28 63.9206 180.036 64.0697 179.845 64.275C179.74 64.395 179.76 64.9 179.925 64.9Z" fill="#EBEBEB"/>
<path d="M62.6401 106.61C65.1901 106.61 108.045 106.895 110.74 106.805C110.93 106.805 111.035 106.515 110.845 106.42C109.145 105.58 107.22 105.75 105.455 105.155C104.415 104.805 103.78 104.125 103.06 103.35C102.463 102.67 101.692 102.166 100.83 101.89C100.041 101.653 99.2028 101.627 98.4001 101.815C97.5616 102.096 96.7416 102.43 95.9451 102.815C93.8901 103.59 91.8851 102.855 90.4451 101.315C89.2301 100.06 88.0401 98.875 86.3901 98.2C85.7169 97.8949 84.988 97.7322 84.2489 97.7218C83.5099 97.7115 82.7766 97.8539 82.0951 98.14C80.5251 98.85 79.4451 100.285 77.9701 101.14C76.2201 102.14 74.1251 101.92 72.1951 102.23C70.2651 102.54 68.7751 104.165 67.0801 105.105C66.5273 105.461 65.8874 105.658 65.2301 105.675C64.8526 105.641 64.4771 105.588 64.1051 105.515C63.8347 105.441 63.5493 105.443 63.2796 105.52C63.01 105.596 62.7664 105.745 62.5751 105.95C62.4551 106.11 62.5001 106.61 62.6401 106.61Z" fill="#EBEBEB"/>
<path d="M43.7802 82.525C43.8302 82.67 111.33 82.525 110.475 82.525C110.09 82.525 111.065 81.945 110.685 81.755C108.49 80.665 106.085 80.635 103.685 80.415C102.269 80.3544 100.879 80.0146 99.5952 79.415C98.3252 78.75 97.5302 77.59 96.6302 76.525C95.2391 74.877 93.4507 73.6108 91.4341 72.8461C89.4175 72.0815 87.2393 71.8436 85.1052 72.155C80.3052 72.91 76.5202 76.565 71.7152 77.235C68.8252 77.64 66.0952 76.525 63.2702 76.13C61.0872 75.8296 58.8653 76.2361 56.9302 77.29C55.4302 78.045 54.0002 78.68 52.2802 78.79C50.9602 78.88 49.6352 78.73 48.3102 78.715C46.1509 78.7689 44.0854 79.6079 42.5002 81.075C42.2602 81.26 41.5802 82.525 43.7802 82.525Z" fill="#EBEBEB"/>
<path d="M159.96 87.495H90.04V185.055H159.96V87.495Z" fill="#47B88F"/>
<path opacity="0.7" d="M159.96 87.495H90.04V185.055H159.96V87.495Z" fill="white"/>
<path d="M149.96 152.02H100.04V154.535H149.96V152.02Z" fill="#47B88F"/>
<path d="M140.28 154.535H109.75V183.06H140.28V154.535Z" fill="#455A64"/>
<path d="M138.225 156.64H111.805V183.06H138.225V156.64Z" fill="#37474F"/>
<g opacity="0.5">
<path d="M138.225 167.665V172.57L127.74 183.06H122.835L138.225 167.665Z" fill="#455A64"/>
<path d="M118.705 156.64L111.81 163.535V158.63L113.795 156.64H118.705Z" fill="#455A64"/>
<path d="M133.445 156.64L111.81 178.28V175.83L130.995 156.64H133.445Z" fill="#455A64"/>
<path d="M138.225 175.12V177.575L132.74 183.06H130.285L138.225 175.12Z" fill="#455A64"/>
<path d="M138.225 159.095V159.54L114.715 183.06H114.255L138.225 159.095Z" fill="#455A64"/>
<path d="M121.565 156.64L111.81 166.395V165.94L121.11 156.64H121.565Z" fill="#455A64"/>
<path d="M129.885 156.64L111.81 174.715V174.255L129.425 156.64H129.885Z" fill="#455A64"/>
</g>
<path d="M125.87 156.64H124.17V183.06H125.87V156.64Z" fill="#455A64"/>
<path d="M111.85 98.135H100.95V115.03H111.85V98.135Z" fill="#455A64"/>
<path d="M110.73 99.375H102.075V113.795H110.73V99.375Z" fill="#37474F"/>
<path d="M113.41 115.03H99.3901V117.46H113.41V115.03Z" fill="#47B88F"/>
<g opacity="0.5">
<path d="M110.73 99.375V101.155L102.07 109.815V106.52L109.22 99.375H110.73Z" fill="#455A64"/>
<path d="M110.73 110.065V111.71L108.645 113.795H107L110.73 110.065Z" fill="#455A64"/>
<path d="M104.985 99.375L102.07 102.29V100.64L103.335 99.375H104.985Z" fill="#455A64"/>
<path d="M110.73 107.485V108.015L104.945 113.795H104.415L110.73 107.485Z" fill="#455A64"/>
</g>
<path d="M111.85 107.855H100.95V109.09H111.85V107.855Z" fill="#455A64"/>
<path d="M130.45 98.135H119.55V115.03H130.45V98.135Z" fill="#455A64"/>
<path d="M129.33 99.375H120.675V113.795H129.33V99.375Z" fill="#37474F"/>
<path d="M132.01 115.03H117.99V117.46H132.01V115.03Z" fill="#47B88F"/>
<g opacity="0.5">
<path d="M129.33 99.375V101.155L120.67 109.815V106.52L127.82 99.375H129.33Z" fill="#455A64"/>
<path d="M129.33 110.065V111.71L127.245 113.795H125.595L129.33 110.065Z" fill="#455A64"/>
<path d="M123.585 99.375L120.67 102.29V100.64L121.935 99.375H123.585Z" fill="#455A64"/>
<path d="M129.33 107.485V108.015L123.545 113.795H123.015L129.33 107.485Z" fill="#455A64"/>
</g>
<path d="M130.45 107.855H119.55V109.09H130.45V107.855Z" fill="#455A64"/>
<path d="M149.05 98.135H138.15V115.03H149.05V98.135Z" fill="#455A64"/>
<path d="M147.93 99.375H139.275V113.795H147.93V99.375Z" fill="#37474F"/>
<path d="M150.61 115.03H136.59V117.46H150.61V115.03Z" fill="#47B88F"/>
<g opacity="0.5">
<path d="M147.93 99.375V101.155L139.27 109.815V106.52L146.42 99.375H147.93Z" fill="#455A64"/>
<path d="M147.93 110.065V111.71L145.845 113.795H144.2L147.93 110.065Z" fill="#455A64"/>
<path d="M142.185 99.375L139.27 102.29V100.64L140.535 99.375H142.185Z" fill="#455A64"/>
<path d="M147.93 107.485V108.015L142.145 113.795H141.615L147.93 107.485Z" fill="#455A64"/>
</g>
<path d="M149.05 107.855H138.15V109.09H149.05V107.855Z" fill="#455A64"/>
<path d="M111.85 123.65H100.95V140.545H111.85V123.65Z" fill="#455A64"/>
<path d="M110.73 124.885H102.075V139.305H110.73V124.885Z" fill="#37474F"/>
<path d="M113.41 140.545H99.3901V142.975H113.41V140.545Z" fill="#47B88F"/>
<g opacity="0.5">
<path d="M110.73 124.885V126.67L102.07 135.325V132.035L109.22 124.885H110.73Z" fill="#455A64"/>
<path d="M110.73 135.575V137.225L108.645 139.31H107L110.73 135.575Z" fill="#455A64"/>
<path d="M104.985 124.885L102.07 127.8V126.155L103.335 124.885H104.985Z" fill="#455A64"/>
<path d="M110.73 132.995V133.525L104.945 139.31H104.415L110.73 132.995Z" fill="#455A64"/>
</g>
<path d="M111.85 133.37H100.95V134.605H111.85V133.37Z" fill="#455A64"/>
<path d="M130.45 123.65H119.55V140.545H130.45V123.65Z" fill="#455A64"/>
<path d="M129.33 124.885H120.675V139.305H129.33V124.885Z" fill="#37474F"/>
<path d="M132.01 140.545H117.99V142.975H132.01V140.545Z" fill="#47B88F"/>
<g opacity="0.5">
<path d="M129.33 124.885V126.67L120.67 135.325V132.035L127.82 124.885H129.33Z" fill="#455A64"/>
<path d="M129.33 135.575V137.225L127.245 139.31H125.595L129.33 135.575Z" fill="#455A64"/>
<path d="M123.585 124.885L120.67 127.8V126.155L121.935 124.885H123.585Z" fill="#455A64"/>
<path d="M129.33 132.995V133.525L123.545 139.31H123.015L129.33 132.995Z" fill="#455A64"/>
</g>
<path d="M130.45 133.37H119.55V134.605H130.45V133.37Z" fill="#455A64"/>
<path d="M149.05 123.65H138.15V140.545H149.05V123.65Z" fill="#455A64"/>
<path d="M147.93 124.885H139.275V139.305H147.93V124.885Z" fill="#37474F"/>
<path d="M150.61 140.545H136.59V142.975H150.61V140.545Z" fill="#47B88F"/>
<g opacity="0.5">
<path d="M147.93 124.885V126.67L139.27 135.325V132.035L146.42 124.885H147.93Z" fill="#455A64"/>
<path d="M147.93 135.575V137.225L145.845 139.31H144.2L147.93 135.575Z" fill="#455A64"/>
<path d="M142.185 124.885L139.27 127.8V126.155L140.535 124.885H142.185Z" fill="#455A64"/>
<path d="M147.93 132.995V133.525L142.145 139.31H141.615L147.93 132.995Z" fill="#455A64"/>
</g>
<path d="M149.05 133.37H138.15V134.605H149.05V133.37Z" fill="#455A64"/>
<path opacity="0.5" d="M159.96 146.96H90.04V147.815L159.96 147.385V146.96Z" fill="#47B88F"/>
<path d="M159.96 145.77H90.04V146.96H159.96V145.77Z" fill="white"/>
<path opacity="0.5" d="M159.96 120.67H90.04V121.53L159.96 121.1V120.67Z" fill="#47B88F"/>
<path d="M159.96 119.48H90.04V120.67H159.96V119.48Z" fill="white"/>
<path opacity="0.5" d="M159.96 94.385H90.04V95.245L159.96 94.815V94.385Z" fill="#47B88F"/>
<path d="M159.96 93.1949H90.04V94.3849H159.96V93.1949Z" fill="white"/>
<path d="M90.04 87.495H87.04V185.055H90.04V87.495Z" fill="#47B88F"/>
<path opacity="0.8" d="M90.04 87.495H87.04V185.055H90.04V87.495Z" fill="white"/>
<path d="M162.96 87.495H159.96V185.055H162.96V87.495Z" fill="#47B88F"/>
<path opacity="0.8" d="M162.96 87.495H159.96V185.055H162.96V87.495Z" fill="white"/>
<path d="M147.845 154.535H145.265V183.06H147.845V154.535Z" fill="#47B88F"/>
<path opacity="0.9" d="M147.845 154.535H145.265V183.06H147.845V154.535Z" fill="white"/>
<path d="M104.735 154.535H102.155V183.06H104.735V154.535Z" fill="#47B88F"/>
<path opacity="0.9" d="M104.735 154.535H102.155V183.06H104.735V154.535Z" fill="white"/>
<path d="M152.865 184.065H97.1299V185.07H152.865V184.065Z" fill="#EBEBEB"/>
<path d="M150.15 183.06H99.8501V184.065H150.15V183.06Z" fill="#EBEBEB"/>
<path d="M150.15 183.81L99.8501 183.56V184.065H150.15V183.81Z" fill="#DBDBDB"/>
<path d="M87.0449 114.525H24.8149V185.06H87.0449V114.525Z" fill="#47B88F"/>
<path opacity="0.7" d="M87.0449 114.525H24.8149V185.06H87.0449V114.525Z" fill="white"/>
<path opacity="0.5" d="M87.0449 174.395H24.8149V185.06H87.0449V174.395Z" fill="#47B88F"/>
<path d="M42.775 123.53H31.875V140.425H42.775V123.53Z" fill="#455A64"/>
<path d="M41.655 124.765H33V139.185H41.655V124.765Z" fill="#37474F"/>
<path d="M44.3349 140.425H30.3149V142.855H44.3349V140.425Z" fill="#47B88F"/>
<g opacity="0.5">
<path d="M41.655 124.77V126.55L33 135.21V131.915L40.145 124.77H41.655Z" fill="#455A64"/>
<path d="M41.6548 135.46V137.105L39.5698 139.19H37.9248L41.6548 135.46Z" fill="#455A64"/>
<path d="M35.915 124.77L33 127.685V126.035L34.26 124.77H35.915Z" fill="#455A64"/>
<path d="M41.6552 132.88V133.405L35.8752 139.19H35.3452L41.6552 132.88Z" fill="#455A64"/>
</g>
<path d="M42.775 133.25H31.875V134.485H42.775V133.25Z" fill="#455A64"/>
<path d="M61.3751 123.53H50.4751V140.425H61.3751V123.53Z" fill="#455A64"/>
<path d="M60.2551 124.765H51.6001V139.185H60.2551V124.765Z" fill="#37474F"/>
<path d="M62.935 140.425H48.915V142.855H62.935V140.425Z" fill="#47B88F"/>
<g opacity="0.5">
<path d="M60.2551 124.77V126.55L51.6001 135.21V131.915L58.7451 124.77H60.2551Z" fill="#455A64"/>
<path d="M60.2549 135.46V137.105L58.1699 139.19H56.5249L60.2549 135.46Z" fill="#455A64"/>
<path d="M54.5151 124.77L51.6001 127.685V126.035L52.8601 124.77H54.5151Z" fill="#455A64"/>
<path d="M60.2553 132.88V133.405L54.4703 139.19H53.9453L60.2553 132.88Z" fill="#455A64"/>
</g>
<path d="M61.3751 133.25H50.4751V134.485H61.3751V133.25Z" fill="#455A64"/>
<path d="M79.9747 123.53H69.0747V140.425H79.9747V123.53Z" fill="#455A64"/>
<path d="M78.8547 124.765H70.1997V139.185H78.8547V124.765Z" fill="#37474F"/>
<path d="M81.5351 140.425H67.5151V142.855H81.5351V140.425Z" fill="#47B88F"/>
<g opacity="0.5">
<path d="M78.8547 124.77V126.55L70.1997 135.21V131.915L77.3447 124.77H78.8547Z" fill="#455A64"/>
<path d="M78.8545 135.46V137.105L76.7695 139.19H75.1245L78.8545 135.46Z" fill="#455A64"/>
<path d="M73.1147 124.77L70.1997 127.685V126.035L71.4647 124.77H73.1147Z" fill="#455A64"/>
<path d="M78.8549 132.88V133.405L73.0749 139.19H72.5449L78.8549 132.88Z" fill="#455A64"/>
</g>
<path d="M79.9747 133.25H69.0747V134.485H79.9747V133.25Z" fill="#455A64"/>
<path d="M42.775 149.04H31.875V165.935H42.775V149.04Z" fill="#455A64"/>
<path d="M41.655 150.28H33V164.7H41.655V150.28Z" fill="#37474F"/>
<path d="M44.3349 165.94H30.3149V168.37H44.3349V165.94Z" fill="#47B88F"/>
<g opacity="0.5">
<path d="M41.655 150.28V152.065L33 160.72V157.43L40.145 150.28H41.655Z" fill="#455A64"/>
<path d="M41.6548 160.97V162.62L39.5698 164.7H37.9248L41.6548 160.97Z" fill="#455A64"/>
<path d="M35.915 150.28L33 153.195V151.55L34.26 150.28H35.915Z" fill="#455A64"/>
<path d="M41.6552 158.39V158.92L35.8752 164.7H35.3452L41.6552 158.39Z" fill="#455A64"/>
</g>
<path d="M42.775 158.76H31.875V159.995H42.775V158.76Z" fill="#455A64"/>
<path d="M61.3751 149.04H50.4751V165.935H61.3751V149.04Z" fill="#455A64"/>
<path d="M60.2551 150.28H51.6001V164.7H60.2551V150.28Z" fill="#37474F"/>
<path d="M62.935 165.94H48.915V168.37H62.935V165.94Z" fill="#47B88F"/>
<g opacity="0.5">
<path d="M60.2551 150.28V152.065L51.6001 160.72V157.43L58.7451 150.28H60.2551Z" fill="#455A64"/>
<path d="M60.2549 160.97V162.62L58.1699 164.7H56.5249L60.2549 160.97Z" fill="#455A64"/>
<path d="M54.5151 150.28L51.6001 153.195V151.55L52.8601 150.28H54.5151Z" fill="#455A64"/>
<path d="M60.2553 158.39V158.92L54.4703 164.7H53.9453L60.2553 158.39Z" fill="#455A64"/>
</g>
<path d="M61.3751 158.76H50.4751V159.995H61.3751V158.76Z" fill="#455A64"/>
<path d="M79.9747 149.04H69.0747V165.935H79.9747V149.04Z" fill="#455A64"/>
<path d="M78.8547 150.28H70.1997V164.7H78.8547V150.28Z" fill="#37474F"/>
<path d="M81.5351 165.94H67.5151V168.37H81.5351V165.94Z" fill="#47B88F"/>
<g opacity="0.5">
<path d="M78.8547 150.28V152.065L70.1997 160.72V157.43L77.3447 150.28H78.8547Z" fill="#455A64"/>
<path d="M78.8545 160.97V162.62L76.7695 164.7H75.1245L78.8545 160.97Z" fill="#455A64"/>
<path d="M73.1147 150.28L70.1997 153.195V151.55L71.4647 150.28H73.1147Z" fill="#455A64"/>
<path d="M78.8549 158.39V158.92L73.0749 164.7H72.5449L78.8549 158.39Z" fill="#455A64"/>
</g>
<path d="M79.9747 158.76H69.0747V159.995H79.9747V158.76Z" fill="#455A64"/>
<path d="M87.0399 111.01H22.6899V114.525H87.0399V111.01Z" fill="#47B88F"/>
<path opacity="0.5" d="M87.0399 146.165H24.8149V147.02L87.0399 146.59V146.165Z" fill="#47B88F"/>
<path d="M87.0449 144.975H24.8149V146.165H87.0449V144.975Z" fill="white"/>
<path opacity="0.5" d="M82.4751 114.525H87.0401V185.06H85.5751L82.4751 114.525Z" fill="#47B88F"/>
<path d="M162.955 185.06H225.185V114.525L162.955 114.525V185.06Z" fill="#47B88F"/>
<path opacity="0.7" d="M162.955 185.06H225.185V114.525L162.955 114.525V185.06Z" fill="white"/>
<path d="M180.92 123.53H170.02V140.425H180.92V123.53Z" fill="#455A64"/>
<path d="M179.8 124.765H171.145V139.185H179.8V124.765Z" fill="#37474F"/>
<path d="M182.48 140.425H168.46V142.855H182.48V140.425Z" fill="#47B88F"/>
<g opacity="0.5">
<path d="M179.8 124.77V126.55L171.145 135.21V131.915L178.29 124.77H179.8Z" fill="#455A64"/>
<path d="M179.8 135.46V137.105L177.715 139.19H176.07L179.8 135.46Z" fill="#455A64"/>
<path d="M174.06 124.77L171.145 127.685V126.035L172.41 124.77H174.06Z" fill="#455A64"/>
<path d="M179.8 132.88V133.405L174.02 139.19H173.49L179.8 132.88Z" fill="#455A64"/>
</g>
<path d="M180.92 133.25H170.02V134.485H180.92V133.25Z" fill="#455A64"/>
<path d="M199.52 123.53H188.62V140.425H199.52V123.53Z" fill="#455A64"/>
<path d="M198.4 124.765H189.745V139.185H198.4V124.765Z" fill="#37474F"/>
<path d="M201.08 140.425H187.06V142.855H201.08V140.425Z" fill="#47B88F"/>
<g opacity="0.5">
<path d="M198.4 124.77V126.55L189.745 135.21V131.915L196.89 124.77H198.4Z" fill="#455A64"/>
<path d="M198.4 135.46V137.105L196.315 139.19H194.67L198.4 135.46Z" fill="#455A64"/>
<path d="M192.66 124.77L189.745 127.685V126.035L191.01 124.77H192.66Z" fill="#455A64"/>
<path d="M198.4 132.88V133.405L192.62 139.19H192.09L198.4 132.88Z" fill="#455A64"/>
</g>
<path d="M199.52 133.25H188.62V134.485H199.52V133.25Z" fill="#455A64"/>
<path d="M218.12 123.53H207.22V140.425H218.12V123.53Z" fill="#455A64"/>
<path d="M217 124.765H208.345V139.185H217V124.765Z" fill="#37474F"/>
<path d="M219.68 140.425H205.66V142.855H219.68V140.425Z" fill="#47B88F"/>
<g opacity="0.5">
<path d="M217 124.77V126.55L208.345 135.21V131.915L215.49 124.77H217Z" fill="#455A64"/>
<path d="M217 135.46V137.105L214.915 139.19H213.27L217 135.46Z" fill="#455A64"/>
<path d="M211.26 124.77L208.345 127.685V126.035L209.61 124.77H211.26Z" fill="#455A64"/>
<path d="M217 132.88V133.405L211.22 139.19H210.69L217 132.88Z" fill="#455A64"/>
</g>
<path d="M218.12 133.25H207.22V134.485H218.12V133.25Z" fill="#455A64"/>
<path d="M180.92 149.04H170.02V165.935H180.92V149.04Z" fill="#455A64"/>
<path d="M179.8 150.28H171.145V164.7H179.8V150.28Z" fill="#37474F"/>
<path d="M182.48 165.94H168.46V168.37H182.48V165.94Z" fill="#47B88F"/>
<g opacity="0.5">
<path d="M179.8 150.28V152.065L171.145 160.72V157.43L178.29 150.28H179.8Z" fill="#455A64"/>
<path d="M179.8 160.97V162.62L177.715 164.7H176.07L179.8 160.97Z" fill="#455A64"/>
<path d="M174.06 150.28L171.145 153.195V151.55L172.41 150.28H174.06Z" fill="#455A64"/>
<path d="M179.8 158.39V158.92L174.02 164.7H173.49L179.8 158.39Z" fill="#455A64"/>
</g>
<path d="M180.92 158.76H170.02V159.995H180.92V158.76Z" fill="#455A64"/>
<path d="M199.52 149.04H188.62V165.935H199.52V149.04Z" fill="#455A64"/>
<path d="M198.4 150.28H189.745V164.7H198.4V150.28Z" fill="#37474F"/>
<path d="M201.08 165.94H187.06V168.37H201.08V165.94Z" fill="#47B88F"/>
<g opacity="0.5">
<path d="M198.4 150.28V152.065L189.745 160.72V157.43L196.89 150.28H198.4Z" fill="#455A64"/>
<path d="M198.4 160.97V162.62L196.315 164.7H194.67L198.4 160.97Z" fill="#455A64"/>
<path d="M192.66 150.28L189.745 153.195V151.55L191.01 150.28H192.66Z" fill="#455A64"/>
<path d="M198.4 158.39V158.92L192.62 164.7H192.09L198.4 158.39Z" fill="#455A64"/>
</g>
<path d="M199.52 158.76H188.62V159.995H199.52V158.76Z" fill="#455A64"/>
<path d="M218.12 149.04H207.22V165.935H218.12V149.04Z" fill="#455A64"/>
<path d="M217 150.28H208.345V164.7H217V150.28Z" fill="#37474F"/>
<path d="M219.68 165.94H205.66V168.37H219.68V165.94Z" fill="#47B88F"/>
<g opacity="0.5">
<path d="M217 150.28V152.065L208.345 160.72V157.43L215.49 150.28H217Z" fill="#455A64"/>
<path d="M217 160.97V162.62L214.915 164.7H213.27L217 160.97Z" fill="#455A64"/>
<path d="M211.26 150.28L208.345 153.195V151.55L209.61 150.28H211.26Z" fill="#455A64"/>
<path d="M217 158.39V158.92L211.22 164.7H210.69L217 158.39Z" fill="#455A64"/>
</g>
<path d="M218.12 158.76H207.22V159.995H218.12V158.76Z" fill="#455A64"/>
<path d="M162.96 114.525L227.31 114.525V111.01L162.96 111.01V114.525Z" fill="#47B88F"/>
<path opacity="0.5" d="M225.19 174.395H162.96V185.06H225.19V174.395Z" fill="#47B88F"/>
<path opacity="0.5" d="M225.185 146.165H162.96V147.02L225.185 146.59V146.165Z" fill="#47B88F"/>
<path d="M225.19 144.975H162.96V146.165H225.19V144.975Z" fill="white"/>
<path opacity="0.5" d="M167.525 114.525H162.96V185.06H164.425L167.525 114.525Z" fill="#47B88F"/>
<path d="M154.175 77.72H95.8301V89.085H154.175V77.72Z" fill="#47B88F"/>
<path d="M154.17 87.72H95.8247V87.97H154.17V87.72Z" fill="white"/>
<path d="M154.17 78.835H95.8247V79.085H154.17V78.835Z" fill="white"/>
<path d="M101.56 85.4499V81.4999C101.571 81.4086 101.614 81.3243 101.683 81.2631C101.752 81.2019 101.841 81.1681 101.933 81.1681C102.025 81.1681 102.113 81.2019 102.182 81.2631C102.251 81.3243 102.294 81.4086 102.305 81.4999V83.1099H104.045V81.4999C104.044 81.4511 104.053 81.4027 104.072 81.3575C104.09 81.3123 104.117 81.2713 104.152 81.2368C104.186 81.2023 104.227 81.1751 104.273 81.1567C104.318 81.1384 104.366 81.1292 104.415 81.1299C104.514 81.1299 104.608 81.1687 104.678 81.238C104.749 81.3072 104.789 81.4013 104.79 81.4999V85.4599C104.79 85.5089 104.78 85.5575 104.761 85.6027C104.743 85.6479 104.715 85.6889 104.68 85.7233C104.645 85.7578 104.604 85.7849 104.558 85.8032C104.513 85.8215 104.464 85.8306 104.415 85.8299C104.366 85.8306 104.318 85.8215 104.273 85.8031C104.227 85.7848 104.186 85.7575 104.152 85.723C104.117 85.6886 104.09 85.6475 104.072 85.6023C104.053 85.5571 104.044 85.5087 104.045 85.4599V83.8499H102.305V85.4599C102.294 85.5513 102.251 85.6356 102.182 85.6967C102.113 85.7579 102.025 85.7917 101.933 85.7917C101.841 85.7917 101.752 85.7579 101.683 85.6967C101.614 85.6356 101.571 85.5513 101.56 85.4599V85.4499Z" fill="white"/>
<path d="M106.035 81.4999C106.034 81.4511 106.043 81.4027 106.061 81.3575C106.08 81.3123 106.107 81.2713 106.142 81.2368C106.176 81.2023 106.217 81.1751 106.262 81.1567C106.308 81.1384 106.356 81.1292 106.405 81.1299C106.503 81.1299 106.598 81.1687 106.668 81.238C106.738 81.3072 106.778 81.4013 106.78 81.4999V85.4599C106.778 85.5585 106.738 85.6526 106.668 85.7219C106.598 85.7911 106.503 85.8299 106.405 85.8299C106.356 85.8306 106.308 85.8215 106.262 85.8031C106.217 85.7848 106.176 85.7575 106.142 85.723C106.107 85.6886 106.08 85.6475 106.061 85.6023C106.043 85.5571 106.034 85.5087 106.035 85.4599V81.4999Z" fill="white"/>
<path d="M107.825 83.41C107.828 83.0864 107.895 82.7666 108.023 82.4692C108.151 82.1718 108.336 81.9027 108.569 81.6776C108.802 81.4525 109.077 81.2758 109.378 81.1578C109.679 81.0397 110.001 80.9827 110.325 80.99C110.876 80.9812 111.415 81.1572 111.855 81.49C111.9 81.5186 111.939 81.5564 111.969 81.601C112 81.6457 112.02 81.6961 112.029 81.7491C112.039 81.8021 112.037 81.8565 112.024 81.9087C112.011 81.961 111.987 82.0099 111.954 82.0524C111.921 82.0949 111.88 82.13 111.832 82.1555C111.785 82.1809 111.733 82.1961 111.679 82.2001C111.625 82.2042 111.571 82.1969 111.521 82.1788C111.47 82.1607 111.424 82.1321 111.385 82.095C111.08 81.8628 110.708 81.7364 110.325 81.735C110.1 81.7323 109.876 81.7751 109.669 81.8611C109.461 81.947 109.272 82.0742 109.115 82.235C108.955 82.3833 108.828 82.5629 108.742 82.7624C108.655 82.962 108.61 83.1773 108.61 83.395C108.61 83.6127 108.655 83.828 108.742 84.0276C108.828 84.2271 108.955 84.4067 109.115 84.555C109.272 84.7158 109.461 84.843 109.669 84.9289C109.876 85.0149 110.1 85.0578 110.325 85.055C110.648 85.0517 110.966 84.9638 111.245 84.8V83.88H110.285C110.183 83.88 110.086 83.8401 110.014 83.769C109.942 83.6979 109.901 83.6012 109.9 83.5C109.9 83.4497 109.91 83.3999 109.929 83.3534C109.949 83.307 109.977 83.2649 110.013 83.2295C110.049 83.1942 110.091 83.1663 110.138 83.1475C110.184 83.1287 110.234 83.1193 110.285 83.12H111.62C111.67 83.1187 111.721 83.1275 111.768 83.146C111.815 83.1645 111.859 83.1923 111.895 83.2277C111.931 83.2631 111.96 83.3055 111.98 83.3522C112 83.399 112.01 83.4492 112.01 83.5V85C112.013 85.0383 112.013 85.0767 112.01 85.115C112.008 85.1266 112.008 85.1384 112.01 85.15V85.15C111.987 85.217 111.941 85.2737 111.88 85.31C111.516 85.5834 111.085 85.7525 110.632 85.7989C110.18 85.8453 109.723 85.7673 109.311 85.5734C108.9 85.3795 108.549 85.0769 108.297 84.6983C108.044 84.3197 107.9 83.8795 107.88 83.425L107.825 83.41Z" fill="white"/>
<path d="M113.2 85.4499V81.4999C113.199 81.4511 113.208 81.4027 113.227 81.3575C113.245 81.3123 113.272 81.2713 113.307 81.2368C113.341 81.2023 113.382 81.1751 113.428 81.1567C113.473 81.1384 113.521 81.1292 113.57 81.1299C113.669 81.1299 113.763 81.1687 113.833 81.238C113.904 81.3072 113.944 81.4013 113.945 81.4999V83.1099H115.68V81.4999C115.691 81.4086 115.734 81.3243 115.803 81.2631C115.872 81.2019 115.961 81.1681 116.053 81.1681C116.144 81.1681 116.233 81.2019 116.302 81.2631C116.371 81.3243 116.414 81.4086 116.425 81.4999V85.4599C116.414 85.5513 116.371 85.6356 116.302 85.6967C116.233 85.7579 116.144 85.7917 116.053 85.7917C115.961 85.7917 115.872 85.7579 115.803 85.6967C115.734 85.6356 115.691 85.5513 115.68 85.4599V83.8499H113.945V85.4599C113.945 85.5089 113.935 85.5575 113.916 85.6027C113.897 85.6479 113.87 85.6889 113.835 85.7233C113.8 85.7578 113.759 85.7849 113.713 85.8032C113.668 85.8215 113.619 85.8306 113.57 85.8299C113.52 85.8306 113.471 85.8212 113.425 85.8023C113.379 85.7833 113.338 85.7552 113.303 85.7196C113.269 85.684 113.242 85.6418 113.224 85.5954C113.206 85.549 113.198 85.4995 113.2 85.4499Z" fill="white"/>
<path d="M119.825 84.65C119.885 84.5777 119.972 84.5324 120.065 84.5239C120.159 84.5155 120.252 84.5446 120.325 84.605C120.687 84.9066 121.138 85.0821 121.61 85.105C121.908 85.1086 122.2 85.0233 122.45 84.86C122.535 84.8068 122.606 84.7333 122.655 84.646C122.705 84.5587 122.732 84.4604 122.735 84.36C122.736 84.2841 122.715 84.2095 122.675 84.145C122.624 84.064 122.556 83.9956 122.475 83.945C122.19 83.7846 121.878 83.6779 121.555 83.63V83.63C121.256 83.5802 120.965 83.4911 120.69 83.365C120.438 83.2605 120.222 83.0872 120.065 82.865C119.962 82.6998 119.909 82.5092 119.91 82.315C119.913 82.1171 119.963 81.923 120.057 81.7489C120.151 81.5748 120.286 81.4259 120.45 81.315C120.789 81.0776 121.195 80.9533 121.61 80.96C122.141 80.9876 122.651 81.174 123.075 81.495C123.112 81.5201 123.144 81.5523 123.169 81.5899C123.193 81.6274 123.21 81.6695 123.219 81.7137C123.227 81.7579 123.227 81.8033 123.217 81.8473C123.208 81.8912 123.19 81.933 123.165 81.97C123.141 82.0086 123.109 82.042 123.072 82.0681C123.035 82.0942 122.993 82.1125 122.949 82.1218C122.904 82.1312 122.858 82.1314 122.814 82.1225C122.769 82.1136 122.727 82.0957 122.69 82.07C122.381 81.8207 122.005 81.6708 121.61 81.64C121.342 81.6359 121.079 81.7164 120.86 81.87C120.784 81.9125 120.721 81.9741 120.676 82.0487C120.631 82.1232 120.607 82.2081 120.605 82.295C120.599 82.3599 120.615 82.4248 120.65 82.48C120.698 82.5491 120.759 82.6085 120.83 82.655C121.088 82.8067 121.373 82.9069 121.67 82.95C121.988 83.0072 122.299 83.1029 122.595 83.235C122.868 83.3497 123.101 83.5428 123.265 83.79C123.371 83.9613 123.428 84.1584 123.43 84.36C123.423 84.567 123.367 84.7694 123.266 84.9503C123.165 85.1312 123.022 85.2854 122.85 85.4C122.488 85.6573 122.054 85.7922 121.61 85.785C120.978 85.7528 120.375 85.5158 119.89 85.11C119.827 85.0528 119.786 84.9756 119.775 84.8916C119.763 84.8077 119.78 84.7223 119.825 84.65V84.65Z" fill="white"/>
<path d="M124.245 83.405C124.257 82.7595 124.522 82.1446 124.983 81.6928C125.444 81.241 126.065 80.9886 126.71 80.99C127.268 80.979 127.814 81.155 128.26 81.49C128.337 81.5552 128.386 81.6471 128.399 81.7472C128.411 81.8474 128.384 81.9484 128.325 82.03C128.262 82.1084 128.171 82.1594 128.072 82.1724C127.972 82.1855 127.871 82.1595 127.79 82.1C127.484 81.8562 127.102 81.7271 126.71 81.735C126.258 81.7414 125.825 81.9202 125.5 82.235C125.186 82.544 125.006 82.9644 125 83.405C125.002 83.6227 125.047 83.8379 125.133 84.0379C125.218 84.238 125.343 84.4189 125.5 84.57C125.825 84.8843 126.258 85.0631 126.71 85.07C127.102 85.0744 127.483 84.9438 127.79 84.7C127.873 84.6445 127.973 84.6214 128.072 84.6353C128.171 84.6491 128.261 84.6988 128.325 84.775C128.384 84.8558 128.41 84.956 128.398 85.0553C128.386 85.1546 128.337 85.2456 128.26 85.31C127.814 85.645 127.268 85.821 126.71 85.81C126.066 85.8127 125.446 85.5621 124.985 85.1122C124.524 84.6623 124.258 84.0491 124.245 83.405Z" fill="white"/>
<path d="M129.63 85.4499V81.4999C129.63 81.4511 129.639 81.4027 129.657 81.3575C129.675 81.3123 129.703 81.2713 129.737 81.2368C129.772 81.2023 129.813 81.1751 129.858 81.1567C129.903 81.1384 129.951 81.1292 130 81.1299C130.049 81.1293 130.098 81.1383 130.143 81.1566C130.189 81.1749 130.23 81.2021 130.265 81.2365C130.3 81.2709 130.328 81.3119 130.347 81.3572C130.365 81.4024 130.375 81.4509 130.375 81.4999V83.1099H132.115V81.4999C132.115 81.4511 132.124 81.4027 132.142 81.3575C132.16 81.3123 132.188 81.2713 132.222 81.2368C132.257 81.2023 132.298 81.1751 132.343 81.1567C132.388 81.1384 132.436 81.1292 132.485 81.1299C132.584 81.1299 132.678 81.1687 132.749 81.238C132.819 81.3072 132.859 81.4013 132.86 81.4999V85.4599C132.86 85.5089 132.85 85.5575 132.832 85.6027C132.813 85.6479 132.785 85.6889 132.75 85.7233C132.715 85.7578 132.674 85.7849 132.628 85.8032C132.583 85.8215 132.534 85.8306 132.485 85.8299C132.436 85.8306 132.388 85.8215 132.343 85.8031C132.298 85.7848 132.257 85.7575 132.222 85.723C132.188 85.6886 132.16 85.6475 132.142 85.6023C132.124 85.5571 132.115 85.5087 132.115 85.4599V83.8499H130.375V85.4599C130.376 85.5091 130.367 85.558 130.348 85.6035C130.329 85.649 130.302 85.6903 130.267 85.7249C130.232 85.7594 130.19 85.7866 130.144 85.8046C130.098 85.8227 130.049 85.8313 130 85.8299C129.951 85.8306 129.901 85.8212 129.855 85.8023C129.81 85.7833 129.768 85.7552 129.733 85.7196C129.699 85.684 129.672 85.6418 129.654 85.5954C129.636 85.549 129.628 85.4995 129.63 85.4499Z" fill="white"/>
<path d="M137.895 81.705C138.329 82.1653 138.572 82.7727 138.575 83.405C138.575 84.0365 138.332 84.6437 137.895 85.1C137.692 85.3249 137.445 85.5051 137.168 85.6291C136.892 85.753 136.593 85.8181 136.29 85.82C135.981 85.819 135.676 85.7546 135.393 85.6308C135.11 85.5069 134.855 85.3263 134.645 85.1C134.213 84.6422 133.974 84.0347 133.98 83.405C133.976 82.7741 134.214 82.1657 134.645 81.705C134.856 81.4794 135.11 81.2995 135.393 81.1765C135.676 81.0535 135.982 80.99 136.29 80.99C136.593 80.9913 136.891 81.0555 137.168 81.1786C137.444 81.3017 137.692 81.481 137.895 81.705ZM137.81 83.405C137.809 82.9697 137.645 82.5506 137.35 82.23C137.214 82.0806 137.049 81.9613 136.864 81.8797C136.679 81.798 136.48 81.7558 136.278 81.7558C136.076 81.7558 135.876 81.798 135.691 81.8797C135.507 81.9613 135.341 82.0806 135.205 82.23C134.907 82.5481 134.742 82.9688 134.745 83.405C134.74 83.8386 134.905 84.2569 135.205 84.57C135.339 84.7222 135.504 84.844 135.689 84.9275C135.874 85.011 136.075 85.0541 136.278 85.0541C136.48 85.0541 136.681 85.011 136.866 84.9275C137.051 84.844 137.216 84.7222 137.35 84.57C137.646 84.2544 137.811 83.8377 137.81 83.405Z" fill="white"/>
<path d="M143.535 81.705C143.968 82.1653 144.211 82.7727 144.215 83.405C144.215 84.0365 143.971 84.6437 143.535 85.1C143.332 85.3249 143.084 85.5051 142.808 85.6291C142.532 85.753 142.233 85.8181 141.93 85.82C141.622 85.8187 141.317 85.7541 141.035 85.6302C140.753 85.5064 140.499 85.3259 140.29 85.1C139.855 84.6434 139.617 84.0351 139.625 83.405C139.619 82.7737 139.857 82.1646 140.29 81.705C140.499 81.4798 140.753 81.3001 141.035 81.1771C141.318 81.0541 141.622 80.9904 141.93 80.99C142.232 80.9913 142.531 81.0555 142.807 81.1786C143.084 81.3017 143.331 81.481 143.535 81.705V81.705ZM143.45 83.405C143.45 82.9702 143.288 82.5511 142.995 82.23C142.858 82.0805 142.692 81.9611 142.507 81.8794C142.322 81.7977 142.122 81.7555 141.92 81.7555C141.717 81.7555 141.517 81.7977 141.332 81.8794C141.147 81.9611 140.981 82.0805 140.845 82.23C140.55 82.55 140.387 82.9699 140.39 83.405C140.385 83.8375 140.548 84.255 140.845 84.57C140.979 84.7223 141.145 84.8442 141.33 84.9277C141.515 85.0112 141.716 85.0544 141.92 85.0544C142.123 85.0544 142.324 85.0112 142.509 84.9277C142.695 84.8442 142.86 84.7223 142.995 84.57C143.289 84.2539 143.452 83.8371 143.45 83.405V83.405Z" fill="white"/>
<path d="M145.5 85.45V81.5C145.5 81.4019 145.539 81.3078 145.609 81.2384C145.678 81.169 145.772 81.13 145.87 81.13C145.969 81.13 146.063 81.1688 146.134 81.2381C146.204 81.3073 146.244 81.4014 146.245 81.5V85.085H148.065C148.156 85.0956 148.241 85.1394 148.302 85.2081C148.363 85.2768 148.397 85.3655 148.397 85.4575C148.397 85.5495 148.363 85.6382 148.302 85.7069C148.241 85.7756 148.156 85.8194 148.065 85.83H145.87C145.821 85.83 145.772 85.8201 145.726 85.8009C145.681 85.7817 145.639 85.7535 145.605 85.7181C145.57 85.6827 145.543 85.6407 145.525 85.5947C145.507 85.5486 145.499 85.4994 145.5 85.45V85.45Z" fill="white"/>
<g opacity="0.5">
<path d="M33.3652 170.22H29.3052V171.62H33.3652V170.22Z" fill="#47B88F"/>
<path d="M31.1 173.39C29.9 173.39 28.235 173.445 27.045 173.445H27V171.945H27.065C28.26 171.945 29.945 171.945 31.12 171.975H31.155V172L31.12 173.405L31.1 173.39ZM31.1 173.39L31.07 172L31.1 172.035C30.425 172.035 29.75 172.035 29.075 172.035H27.045L27.105 171.97V173.375L27.05 173.315C28.215 173.315 29.92 173.35 31.105 173.375L31.1 173.39Z" fill="#47B88F"/>
<path d="M99.7952 131.25C98.5902 131.25 96.9252 131.305 95.7352 131.305H95.6802V129.805H95.7452C96.9402 129.805 98.6252 129.805 99.8052 129.835H99.8352V129.865L99.8052 131.27L99.7952 131.25ZM99.7952 131.25L99.7602 129.845L99.7952 129.88C99.1152 129.88 98.4402 129.88 97.7652 129.88H95.7352L95.7952 129.815V131.22L95.7402 131.16C96.9052 131.16 98.6152 131.2 99.8002 131.22L99.7952 131.25Z" fill="#47B88F"/>
<path d="M97.5302 131.615H93.4702V133.015H97.5302V131.615Z" fill="#47B88F"/>
<path d="M95.2752 131.25C94.0702 131.25 92.4051 131.305 91.2151 131.305H91.1602V131.25V129.845V129.785H91.2252C92.4202 129.785 94.1052 129.785 95.2852 129.815H95.3152V129.845L95.2852 131.25H95.2752ZM95.2752 131.25L95.2402 129.845L95.2752 129.88C94.5952 129.88 93.9202 129.88 93.2452 129.88H91.2151L91.2752 129.815V131.22L91.2202 131.16C92.3852 131.16 94.0952 131.2 95.2802 131.22L95.2752 131.25Z" fill="#47B88F"/>
<path d="M220.94 121.1C219.735 121.1 218.07 121.16 216.88 121.155H216.825V119.655H216.89C218.085 119.655 219.77 119.655 220.95 119.69H220.98V119.72L220.95 121.12L220.94 121.1ZM220.94 121.1L220.905 119.7L220.94 119.73H218.91H216.88L216.94 119.67V121.07L216.885 121.015C218.05 121.015 219.76 121.05 220.945 121.07L220.94 121.1Z" fill="#47B88F"/>
<path d="M220.94 149.745C219.735 149.745 218.07 149.805 216.88 149.805H216.825V148.28H216.89C218.085 148.28 219.77 148.28 220.95 148.315H220.98V148.345L220.95 149.745H220.94ZM220.94 149.745L220.905 148.345L220.94 148.375L218.91 148.4H216.88L216.94 148.34V149.74L216.885 149.685C218.05 149.685 219.76 149.72 220.945 149.74L220.94 149.745Z" fill="#47B88F"/>
<path d="M223.175 117.925H219.115V119.325H223.175V117.925Z" fill="#47B88F"/>
<path d="M171.78 120.83H167.72V122.23H171.78V120.83Z" fill="#47B88F"/>
<path d="M171.795 173.025C170.59 173.025 168.925 173.085 167.735 173.08H167.68V173.025V171.625V171.56H167.745C168.94 171.56 170.625 171.56 171.805 171.59H171.835V171.625L171.805 173.025H171.795ZM171.795 173.025L171.76 171.625L171.795 171.655C171.115 171.655 170.44 171.655 169.765 171.655H167.735L167.795 171.595V172.995L167.74 172.935C168.905 172.935 170.615 172.975 171.8 172.995L171.795 173.025Z" fill="#47B88F"/>
<path d="M174.03 169.85H169.97V171.25H174.03V169.85Z" fill="#47B88F"/>
<path d="M218.665 119.33C217.465 119.33 215.8 119.39 214.61 119.385H214.55V117.885H214.615C215.81 117.885 217.495 117.885 218.67 117.915H218.705V117.945L218.67 119.345L218.665 119.33ZM218.665 119.33L218.635 117.93L218.665 117.96L216.64 117.985H214.61L214.67 117.925V119.325L214.615 119.27C215.78 119.27 217.485 119.305 218.67 119.325L218.665 119.33Z" fill="#47B88F"/>
<path d="M51.4202 134.07C50.2152 134.07 48.5502 134.13 47.3602 134.13H47.3052V132.63H47.3702C48.5652 132.63 50.2502 132.63 51.4302 132.66H51.4602V132.69L51.4302 134.09L51.4202 134.07ZM51.4202 134.07L51.3902 132.67L51.4202 132.7L49.3902 132.725H47.3602L47.4252 132.66V134.06L47.3702 134.005C48.5352 134.005 50.2452 134.04 51.4302 134.06L51.4202 134.07Z" fill="#47B88F"/>
<path d="M97.5452 172.54C96.3402 172.54 94.6752 172.6 93.4852 172.595H93.4302V171.095H93.5002C94.6952 171.095 96.3802 171.095 97.5602 171.125H97.5902V171.16L97.5602 172.56L97.5452 172.54ZM97.5452 172.54L97.5152 171.14L97.5452 171.17L95.5152 171.195H93.5002L93.5652 171.135V172.535L93.5002 172.5C94.6652 172.5 96.3752 172.535 97.5602 172.555L97.5452 172.54Z" fill="#47B88F"/>
<path d="M46.9002 134.07C45.6952 134.07 44.0302 134.13 42.8402 134.13H42.7852V132.63H42.8452C44.0402 132.63 45.7252 132.63 46.9052 132.66H46.9352V132.69L46.9052 134.09L46.9002 134.07ZM46.9002 134.07L46.8702 132.67L46.9002 132.7L44.8702 132.725H42.8402L42.9052 132.66V134.06L42.8502 134.005C44.0152 134.005 45.7252 134.04 46.9102 134.06L46.9002 134.07Z" fill="#47B88F"/>
<path d="M155.295 158.195C154.095 158.195 152.425 158.25 151.24 158.25H151.18V156.75H151.245C152.44 156.75 154.12 156.75 155.3 156.78H155.335V156.81L155.3 158.215L155.295 158.195ZM155.295 158.195L155.265 156.79L155.295 156.825C154.62 156.825 153.945 156.825 153.265 156.825H151.265L151.325 156.76V158.165L151.27 158.105C152.435 158.105 154.14 158.145 155.325 158.165L155.295 158.195Z" fill="#47B88F"/>
<path d="M155.295 100.68C154.095 100.68 152.425 100.74 151.24 100.735H151.18V99.235H151.245C152.44 99.235 154.12 99.235 155.3 99.265H155.335V99.295L155.3 100.695L155.295 100.68ZM155.295 100.68L155.265 99.28L155.295 99.31H153.265H151.265L151.325 99.25V100.65L151.27 100.595C152.435 100.595 154.14 100.63 155.325 100.65L155.295 100.68Z" fill="#47B88F"/>
<path d="M157.56 101.045H153.5V102.445H157.56V101.045Z" fill="#47B88F"/>
<path d="M66.9999 116.76H62.9399V118.16H66.9999V116.76Z" fill="#47B88F"/>
</g>
<path d="M17.2852 188.815C86.2852 188.51 163.705 188.51 232.715 188.815C163.715 189.125 86.2952 189.125 17.2852 188.815V188.815Z" fill="#263238"/>
<path d="M17.2852 230.215C86.2852 229.91 163.705 229.905 232.715 230.215C163.715 230.525 86.2952 230.52 17.2852 230.215V230.215Z" fill="#263238"/>
<path d="M229.315 185.065H20.6802V188.7H229.315V185.065Z" fill="#C7C7C7"/>
<path d="M35.3104 185.065C35.637 186.255 35.637 187.51 35.3104 188.7C35.1346 188.111 35.0503 187.499 35.0604 186.885C35.0524 186.269 35.1367 185.656 35.3104 185.065Z" fill="#263238"/>
<path d="M51.6151 185.065C51.7888 185.656 51.873 186.269 51.8651 186.885C51.8752 187.499 51.7908 188.111 51.6151 188.7C51.2885 187.51 51.2885 186.255 51.6151 185.065V185.065Z" fill="#263238"/>
<path d="M67.9251 185.065C68.2517 186.255 68.2517 187.51 67.9251 188.7C67.7494 188.111 67.6651 187.499 67.6751 186.885C67.6672 186.269 67.7514 185.656 67.9251 185.065Z" fill="#263238"/>
<path d="M84.2303 185.065C84.404 185.656 84.4883 186.269 84.4803 186.885C84.4904 187.499 84.4061 188.111 84.2303 188.7C83.9037 187.51 83.9037 186.255 84.2303 185.065V185.065Z" fill="#263238"/>
<path d="M100.54 185.065C100.867 186.255 100.867 187.51 100.54 188.7C100.365 188.111 100.28 187.499 100.29 186.885C100.282 186.269 100.367 185.656 100.54 185.065Z" fill="#263238"/>
<path d="M116.845 185.065C117.019 185.656 117.103 186.269 117.095 186.885C117.105 187.499 117.021 188.111 116.845 188.7C116.518 187.51 116.518 186.255 116.845 185.065V185.065Z" fill="#263238"/>
<path d="M133.155 185.065C133.482 186.255 133.482 187.51 133.155 188.7C132.979 188.111 132.895 187.499 132.905 186.885C132.897 186.269 132.981 185.656 133.155 185.065V185.065Z" fill="#263238"/>
<path d="M149.46 185.065C149.634 185.656 149.718 186.269 149.71 186.885C149.72 187.499 149.636 188.111 149.46 188.7C149.134 187.51 149.134 186.255 149.46 185.065V185.065Z" fill="#263238"/>
<path d="M165.77 185.065C166.097 186.255 166.097 187.51 165.77 188.7C165.595 188.111 165.51 187.499 165.52 186.885C165.512 186.269 165.597 185.656 165.77 185.065Z" fill="#263238"/>
<path d="M182.075 185.065C182.249 185.656 182.333 186.269 182.325 186.885C182.335 187.499 182.251 188.111 182.075 188.7C181.748 187.51 181.748 186.255 182.075 185.065V185.065Z" fill="#263238"/>
<path d="M198.385 185.065C198.712 186.255 198.712 187.51 198.385 188.7C198.209 188.111 198.125 187.499 198.135 186.885C198.127 186.269 198.211 185.656 198.385 185.065Z" fill="#263238"/>
<path d="M214.69 185.065C214.864 185.656 214.948 186.269 214.94 186.885C214.95 187.499 214.866 188.111 214.69 188.7C214.364 187.51 214.364 186.255 214.69 185.065V185.065Z" fill="#263238"/>
<path d="M110.065 188.815H139.935L196.37 230.215H53.665L110.065 188.815Z" fill="#EBEBEB"/>
<path d="M44.2102 185.065C44.2102 185.065 43.7902 183.105 42.9502 182.8C42.1102 182.495 41.5952 183.38 41.5952 183.38C41.5952 183.38 41.4002 181.5 40.2052 180.94C39.0102 180.38 38.1202 181.53 38.1202 181.53C38.1202 181.53 37.2052 179.15 35.5702 179.15C33.9352 179.15 33.1152 182.65 33.1152 182.65C33.1152 182.65 32.1502 181.615 31.1602 182.2C30.1702 182.785 30.1602 185.085 30.1602 185.085L44.2102 185.065Z" fill="#37474F"/>
<path d="M183.63 185.065C183.63 185.065 183.21 183.105 182.37 182.8C181.53 182.495 181.02 183.38 181.02 183.38C181.02 183.38 180.82 181.5 179.63 180.94C178.44 180.38 177.545 181.53 177.545 181.53C177.545 181.53 176.63 179.15 174.995 179.15C173.36 179.15 172.535 182.65 172.535 182.65C172.535 182.65 171.575 181.615 170.585 182.2C169.595 182.785 169.585 185.085 169.585 185.085L183.63 185.065Z" fill="#455A64"/>
<path d="M81.3502 185.065H66.5752C66.5752 185.065 67.0752 182.985 68.0402 182.835C68.3351 182.809 68.631 182.874 68.8883 183.02C69.1456 183.167 69.3521 183.388 69.4802 183.655C69.4802 183.655 69.4352 180.75 71.2652 180.255C73.0952 179.76 74.6252 182.325 74.6252 182.325C74.6252 182.325 75.7752 180.865 77.3352 180.955C78.8952 181.045 79.3002 183.455 79.3002 183.455C79.3002 183.455 80.7202 182.63 81.3502 185.065Z" fill="#37474F"/>
<path d="M31.0802 185.065H23.3052C23.3052 185.065 23.3052 183.91 24.0852 183.6C24.293 183.51 24.5244 183.491 24.7444 183.544C24.9644 183.597 25.1612 183.72 25.3052 183.895C25.3052 183.895 25.6152 181.765 27.0402 181.765C28.4652 181.765 29.1502 183.6 29.1502 183.6C29.2711 183.425 29.4406 183.289 29.6378 183.209C29.8351 183.129 30.0514 183.108 30.2602 183.15C31.0502 183.255 31.0802 185.065 31.0802 185.065Z" fill="#455A64"/>
<path d="M87.4503 185.065H79.6753C79.6753 185.065 79.6753 183.91 80.4553 183.6C80.6632 183.51 80.8945 183.491 81.1145 183.544C81.3345 183.597 81.5313 183.72 81.6753 183.895C81.6753 183.895 81.9903 181.765 83.4153 181.765C84.8403 181.765 85.5003 183.6 85.5003 183.6C85.6212 183.425 85.7907 183.289 85.9879 183.209C86.1852 183.129 86.4015 183.108 86.6103 183.15C87.4203 183.255 87.4503 185.065 87.4503 185.065Z" fill="#455A64"/>
<path d="M215.35 185.065H207.575C207.575 185.065 207.575 183.91 208.355 183.6C208.563 183.51 208.794 183.491 209.014 183.544C209.234 183.597 209.431 183.72 209.575 183.895C209.575 183.895 209.885 181.765 211.31 181.765C212.735 181.765 213.42 183.6 213.42 183.6C213.541 183.424 213.71 183.288 213.907 183.208C214.105 183.128 214.321 183.108 214.53 183.15C215.32 183.255 215.35 185.065 215.35 185.065Z" fill="#455A64"/>
<path d="M226.695 185.065H213.875C213.875 185.065 213.905 183.16 215.165 182.65C215.508 182.506 215.888 182.477 216.248 182.567C216.609 182.657 216.93 182.862 217.165 183.15C217.165 183.15 217.665 179.65 220.03 179.65C222.395 179.65 223.5 182.65 223.5 182.65C223.699 182.361 223.979 182.136 224.304 182.004C224.629 181.872 224.986 181.837 225.33 181.905C226.645 182.075 226.695 185.065 226.695 185.065Z" fill="#37474F"/>
</svg>
