<svg width="20" height="20" viewBox="0 0 20 20" fill="none" xmlns="http://www.w3.org/2000/svg">
<path d="M17.1615 11.6015C17.1551 11.5353 17.1276 11.4729 17.0832 11.4233C15.9815 10.1955 14.3241 9.14633 12.4151 8.46839C12.2799 8.42108 12.1664 8.32586 12.0948 8.20211C12.0908 8.17833 12.084 8.15467 12.0741 8.13148C12.0087 7.97827 12.0582 7.7973 12.2009 7.69402C13.2157 6.90208 13.8216 5.60952 13.8216 4.23652C13.8216 1.90483 12.1072 0.00785923 9.99993 0.00785923C7.89268 0.00785923 6.17837 1.90483 6.17837 4.23652C6.17837 5.63605 6.80093 6.93548 7.85027 7.71736C7.97846 7.80783 8.02971 7.97598 7.97647 8.1237C7.9734 8.12964 7.97068 8.13573 7.96793 8.14186C7.90643 8.2853 7.7874 8.39652 7.64077 8.44764C5.70718 9.1262 4.02946 10.183 2.9168 11.4233C2.8724 11.4729 2.84493 11.5353 2.83852 11.6015C2.64518 13.5781 3.56377 15.696 5.29702 17.268C5.49768 17.4482 5.74165 17.5796 6.00471 17.6485C7.2744 17.9728 8.63687 18.1348 9.99977 18.1348C11.3679 18.1348 12.7364 17.9714 14.0113 17.6447C14.2614 17.5785 14.4964 17.4517 14.6923 17.277C16.4318 15.7055 17.3548 13.5837 17.1615 11.6015ZM14.275 16.8122C14.1535 16.9205 14.0071 16.9996 13.8538 17.0402C11.4097 17.6669 8.60512 17.6681 6.16127 17.0438C5.99587 17.0005 5.8413 16.9172 5.71543 16.8043C4.15934 15.3928 3.3184 13.5161 3.4513 11.764C4.49518 10.6335 6.05171 9.66727 7.84678 9.03723C8.1478 8.93255 8.39487 8.70764 8.52899 8.41758C8.53434 8.40795 8.53921 8.39789 8.54362 8.38767C8.72337 7.96623 8.58315 7.46955 8.21678 7.21167C7.33162 6.55189 6.80305 5.43967 6.80305 4.23652C6.80305 2.2492 8.23724 0.632547 9.99993 0.632547C11.7628 0.632547 13.197 2.2492 13.197 4.23652C13.197 5.41861 12.6809 6.52702 11.826 7.19442C11.4803 7.44392 11.3395 7.87802 11.4636 8.27858C11.4655 8.31458 11.4739 8.35014 11.4881 8.38323C11.6231 8.6988 11.8856 8.94477 12.2071 9.05755C13.9782 9.68636 15.5154 10.6454 16.5486 11.764C16.6816 13.5212 15.8366 15.4014 14.275 16.8122Z" fill="#120A00"/>
<path d="M11.2499 19.3983H8.74994C8.58591 19.3983 8.453 19.5312 8.453 19.6952C8.453 19.8592 8.58591 19.9921 8.74994 19.9921H11.2499C11.414 19.9921 11.5469 19.8592 11.5469 19.6952C11.5469 19.5312 11.414 19.3983 11.2499 19.3983Z" fill="#120A00"/>
</svg>
