<svg width="250" height="251" viewBox="0 0 250 251" fill="none" xmlns="http://www.w3.org/2000/svg">
<path d="M51.465 194.77H33.885V200.365H51.465V194.77Z" fill="#EBEBEB"/>
<path d="M153.305 105.39H135.725V110.985H153.305V105.39Z" fill="#EBEBEB"/>
<path d="M41.66 207.42L32.93 207.565L28.515 207.625H24.08H23.855V207.395V201.8V201.55H24.105L32.895 201.585L37.29 201.625L41.685 201.68H41.805V201.8L41.66 207.42ZM41.66 207.42L41.54 201.825L41.66 201.945L37.265 202L32.87 202.04L24.08 202.075L24.33 201.825V207.42L24.1 207.19L28.455 207.215L32.83 207.275L41.66 207.42Z" fill="#EBEBEB"/>
<path d="M135.25 159.365L126.5 159.5L122.085 159.56H117.65H117.425V159.33V153.735V153.5H117.675L126.465 153.535L130.86 153.575L135.255 153.63H135.375V153.75L135.25 159.365ZM135.25 159.365L135.13 153.77L135.25 153.89L130.855 153.94L126.46 153.985L117.67 154.02L117.92 153.77V159.365L117.69 159.135H122.045L126.42 159.2L135.25 159.365Z" fill="#EBEBEB"/>
<path d="M125.445 166.42L116.715 166.565L112.3 166.625H107.865H107.64V166.395L107.615 160.8V160.55H107.865L116.655 160.585L121.05 160.625L125.445 160.68H125.565V160.8L125.445 166.42ZM125.445 166.42L125.325 160.825L125.445 160.945L121.05 160.995L116.655 161.04L107.865 161.075L108.115 160.825V166.42L107.885 166.19H112.24L116.615 166.255L125.445 166.42Z" fill="#EBEBEB"/>
<path d="M115.68 153.77H98.0999V159.365H115.68V153.77Z" fill="#EBEBEB"/>
<path d="M225.92 201.825H208.34V207.42H225.92V201.825Z" fill="#EBEBEB"/>
<path d="M216.115 22.965H198.535V28.56H216.115V22.965Z" fill="#EBEBEB"/>
<path d="M225.92 35.615L217.19 35.765L212.775 35.825H208.34H208.115V35.595L208.09 30V29.75H208.34L217.13 29.785L221.525 29.83L225.92 29.885H226.04V30L225.92 35.615ZM225.92 35.615L225.8 30L225.92 30.12L221.525 30.175L217.13 30.215L208.34 30.25L208.59 30V35.595L208.36 35.37H212.715L217.09 35.43L225.92 35.615Z" fill="#EBEBEB"/>
<path d="M51.4649 28.56L42.7349 28.71L38.3199 28.77H33.8849H33.6599V28.54V22.945V22.695H33.9099L42.6999 22.73L47.0949 22.775L51.4899 22.83H51.6099V22.945L51.4649 28.56ZM51.4649 28.56L51.3449 22.965L51.4649 23.085L47.0699 23.14L42.6749 23.18L33.8849 23.215L34.1349 22.965V28.56L33.9049 28.335H38.2599L42.6349 28.395L51.4649 28.56Z" fill="#EBEBEB"/>
<path d="M26.275 216.835H149.145L151.7 166.42H23.72L26.275 216.835Z" fill="#EBEBEB"/>
<path d="M143.32 189.5H91.955L91 172H144.445L143.32 189.5ZM92.54 188.88H142.74L143.785 172.62H91.645L92.54 188.88Z" fill="#DBDBDB"/>
<path d="M142.37 209.63H93.9649L93.1799 193.835H143.36L142.37 209.63ZM94.5549 209H141.79L142.7 194.445H93.8299L94.5549 209Z" fill="#DBDBDB"/>
<path d="M122.585 182.645H113.95L113.405 178.42H123.125L122.585 182.645ZM114.5 182.025H122.045L122.425 179.025H114.11L114.5 182.025Z" fill="#DBDBDB"/>
<path d="M122.585 203.845H113.95L113.405 199.62H123.125L122.585 203.845ZM114.5 203.225H122.045L122.425 200.225H114.11L114.5 203.225Z" fill="#DBDBDB"/>
<path d="M82.9001 189.5H31.5301L30.5701 172H84.0251L82.9001 189.5ZM32.1201 188.875H82.3201L83.3601 172.615H31.2251L32.1201 188.875Z" fill="#DBDBDB"/>
<path d="M81.95 209.63H33.545L32.76 193.835H82.94L81.95 209.63ZM34.135 209H81.37L82.28 194.445H33.41L34.135 209Z" fill="#DBDBDB"/>
<path d="M62.16 182.645H53.53L53 178.42H62.72L62.16 182.645ZM54.075 182.025H61.615L62 179.025H53.69L54.075 182.025Z" fill="#DBDBDB"/>
<path d="M62.16 203.845H53.53L53 199.62H62.72L62.16 203.845ZM54.075 203.225H61.615L62 200.225H53.69L54.075 203.225Z" fill="#DBDBDB"/>
<path d="M37.2949 216.835L36.5249 222.325L34.9699 233.36H31.9399V216.835H37.2949Z" fill="#EBEBEB"/>
<path d="M37.2949 216.835L36.5249 222.325H31.9399V216.835H37.2949Z" fill="#DBDBDB"/>
<path d="M138.125 216.835L138.895 222.325L140.45 233.36H143.48V216.835H138.125Z" fill="#EBEBEB"/>
<path d="M138.125 216.835L138.895 222.325H143.48V216.835H138.125Z" fill="#DBDBDB"/>
<path d="M204.33 199.83C204.33 199.83 213.465 197.76 218.475 193.145C223.485 188.53 226.28 180.265 226.28 180.265C222.807 180.93 219.382 181.829 216.03 182.955C215.215 183.83 213.66 185.63 212.93 187.34C212.853 186.296 212.853 185.249 212.93 184.205C211.759 184.711 210.664 185.375 209.675 186.18C205.5 189.815 204.33 199.83 204.33 199.83Z" fill="#47B88F"/>
<path d="M220.575 184.28C221.82 183.42 223.075 182.59 224.325 181.72C224.337 181.708 224.344 181.693 224.347 181.676C224.349 181.659 224.345 181.643 224.336 181.628C224.328 181.614 224.315 181.603 224.299 181.597C224.283 181.591 224.266 181.59 224.25 181.595C221.9 183.005 219.575 184.505 217.33 186.095C216.55 186.645 215.78 187.215 215.02 187.795L215.18 187.525C215.455 187.065 215.74 186.615 216.03 186.165C216.604 185.251 217.253 184.387 217.97 183.58C218 183.55 217.97 183.505 217.925 183.535C217.215 184.355 216.505 185.17 215.855 186.035C215.545 186.445 215.26 186.875 214.985 187.315C214.845 187.54 214.705 187.77 214.575 188.005L214.44 188.24C213.255 189.165 212.105 190.135 211.01 191.155C210.33 191.79 209.68 192.445 209.045 193.12C209.4 192.015 209.71 190.895 210.12 189.805C210.12 189.77 210.07 189.755 210.06 189.805C209.66 190.945 209.225 192.095 208.915 193.27C208.215 194.023 207.548 194.808 206.915 195.625C206.915 195.575 206.94 195.525 206.95 195.475C207.055 195.045 207.16 194.615 207.275 194.185C207.5 193.36 207.74 192.54 208.02 191.73C208.546 190.047 209.379 188.476 210.475 187.095C210.5 187.065 210.475 187.02 210.43 187.05C208.719 189.185 207.521 191.684 206.93 194.355C206.835 194.745 206.74 195.135 206.65 195.53C206.605 195.735 206.55 195.945 206.515 196.16C206.24 196.535 205.97 196.91 205.71 197.295C204.152 199.675 202.856 202.217 201.845 204.875C200.702 207.861 199.724 210.907 198.915 214C198.915 214.06 198.99 214.08 199.01 214.025C200.795 208.68 202.62 203.255 205.68 198.475C206.325 197.475 207.025 196.475 207.765 195.555C209.279 195.459 210.774 195.161 212.21 194.67C213.779 194.147 215.274 193.424 216.66 192.52C217.451 191.987 218.214 191.413 218.945 190.8C218.948 190.797 218.951 190.794 218.953 190.791C218.955 190.787 218.956 190.783 218.957 190.779C218.957 190.774 218.957 190.77 218.956 190.766C218.954 190.762 218.952 190.758 218.95 190.755C218.947 190.752 218.944 190.749 218.94 190.747C218.937 190.745 218.933 190.744 218.928 190.743C218.924 190.743 218.92 190.743 218.916 190.744C218.912 190.745 218.908 190.747 218.905 190.75C217.629 191.78 216.22 192.633 214.715 193.285C213.239 193.961 211.695 194.479 210.11 194.83C209.435 194.975 208.75 195.085 208.065 195.18C208.91 194.133 209.809 193.132 210.76 192.18C211.065 191.87 211.385 191.575 211.705 191.28C212.768 190.533 213.898 189.885 215.08 189.345C216.58 188.62 218.05 187.845 219.535 187.1C220.37 186.675 221.2 186.24 222.035 185.83C222.075 185.83 222.035 185.76 222.005 185.775C220.505 186.5 219.005 187.18 217.46 187.875C216.035 188.525 214.59 189.18 213.225 189.95L213.05 190.055C214.29 188.975 215.55 187.95 216.88 186.96C218.093 186.043 219.325 185.15 220.575 184.28Z" fill="#263238"/>
<path d="M220.055 189C219.31 189.33 218.555 189.615 217.82 189.96C217.085 190.305 216.345 190.725 215.63 191.15C215.595 191.15 215.63 191.215 215.66 191.2C216.385 190.85 217.125 190.525 217.845 190.16C218.565 189.795 219.315 189.395 220.07 189.06C220.11 189.035 220.09 189 220.055 189Z" fill="#263238"/>
<path d="M174.65 154.07C176.338 156.249 177.293 158.905 177.38 161.66C177.41 162.48 177.28 163.62 177.185 164.965C179.466 166.286 181.486 168.012 183.145 170.06C181.321 168.999 179.226 168.497 177.12 168.615C177.168 169.533 177.285 170.445 177.47 171.345C178.799 171.348 180.115 171.61 181.345 172.115C180.143 172.102 178.951 172.338 177.845 172.81C179.475 177.99 184.315 183.31 197.685 185.575C199.104 179.218 198.266 172.566 195.315 166.76C191.315 158.88 174.65 154.07 174.65 154.07Z" fill="#47B88F"/>
<path d="M202.315 207.46C202.085 205.243 201.796 203.037 201.45 200.84C200.772 196.434 199.873 192.065 198.755 187.75C198.232 185.726 197.587 183.736 196.825 181.79C196.864 181.435 196.881 181.077 196.875 180.72C196.875 180.29 196.875 179.865 196.875 179.435C196.875 178.582 196.835 177.727 196.755 176.87C196.62 175.183 196.344 173.511 195.93 171.87C195.69 170.915 195.405 169.98 195.125 169.035C195.125 168.995 195.055 169.035 195.065 169.035C195.515 170.676 195.849 172.347 196.065 174.035C196.304 175.693 196.454 177.362 196.515 179.035C196.515 179.495 196.54 179.95 196.54 180.41C196.54 180.605 196.54 180.805 196.54 181C195.884 179.403 195.133 177.847 194.29 176.34C192.932 173.951 191.403 171.664 189.715 169.495C189.711 169.241 189.674 168.989 189.605 168.745L189.41 167.85C189.27 167.24 189.12 166.635 188.955 166.03C188.62 164.82 188.18 163.65 187.805 162.455C187.805 162.415 187.73 162.43 187.745 162.455C188.095 163.64 188.33 164.865 188.6 166.07C188.735 166.665 188.865 167.265 189 167.86C189.065 168.16 189.125 168.46 189.19 168.755C189.19 168.755 189.19 168.8 189.19 168.825C188.65 168.138 188.098 167.472 187.535 166.825C184.985 163.825 182.185 161.07 179.365 158.325C179.02 157.99 178.665 157.66 178.315 157.325C178.285 157.295 178.245 157.325 178.27 157.37C180.965 160.175 183.615 163.02 186.125 165.99C186.72 166.7 187.31 167.415 187.885 168.135L186.975 167.535C186.195 167.035 185.41 166.535 184.595 166.075C183.78 165.615 182.97 165.175 182.135 164.765C181.3 164.355 180.36 163.99 179.535 163.51C179.5 163.51 179.47 163.55 179.505 163.565C180.349 163.958 181.164 164.409 181.945 164.915C182.76 165.415 183.57 165.885 184.37 166.415C185.17 166.945 185.945 167.415 186.725 167.915C187.375 168.335 188.015 168.8 188.69 169.19C190.24 171.179 191.669 173.26 192.97 175.42C193.78 176.781 194.519 178.183 195.185 179.62L194.685 179.41L193.465 178.87L191.1 177.835C189.6 177.185 188.1 176.585 186.6 175.87C185.77 175.48 184.968 175.034 184.2 174.535C184.165 174.535 184.14 174.57 184.17 174.59C186.91 176.48 189.985 177.81 193.02 179.155L194.335 179.735C194.695 179.895 195.055 180.075 195.43 180.235C196.327 182.245 197.082 184.315 197.69 186.43C198.884 190.687 199.855 195.002 200.6 199.36C201.365 203.73 201.885 208.125 202.285 212.54C202.335 213.09 202.385 213.64 202.445 214.19C202.445 214.236 202.463 214.281 202.496 214.314C202.529 214.347 202.573 214.365 202.62 214.365C202.666 214.365 202.711 214.347 202.744 214.314C202.776 214.281 202.795 214.236 202.795 214.19C202.78 211.93 202.55 209.685 202.315 207.46Z" fill="#263238"/>
<path d="M194.185 170.54C193.94 169.18 193.575 167.85 193.21 166.54C193.21 166.505 193.14 166.54 193.15 166.54C193.49 167.845 193.73 169.175 193.975 170.505C194.22 171.835 194.45 173.21 194.64 174.57H194.675C194.587 173.219 194.423 171.873 194.185 170.54Z" fill="#263238"/>
<path d="M188.425 174.225C187.493 173.615 186.521 173.069 185.515 172.59C185.015 172.34 184.515 172.09 184.04 171.86C183.565 171.63 183.005 171.405 182.5 171.155C182.465 171.155 182.435 171.19 182.47 171.21C182.97 171.455 183.42 171.75 183.9 172.01L185.4 172.825C186.4 173.35 187.34 173.93 188.365 174.355C188.381 174.357 188.397 174.354 188.411 174.346C188.425 174.339 188.436 174.327 188.443 174.312C188.449 174.298 188.451 174.281 188.448 174.266C188.445 174.25 188.437 174.236 188.425 174.225Z" fill="#263238"/>
<path opacity="0.1" d="M204.5 184C204.5 184 212.955 182 216.835 176.305C220.545 170.89 221.74 161.655 221.835 160.845C221.685 161.59 219.94 169.66 214.185 173.42C209.775 176.305 205.5 178.67 204.5 184Z" fill="#263238"/>
<path d="M212.3 169.395C210.796 170.778 209.714 172.558 209.18 174.53C209.18 174.53 209.18 174.555 209.21 174.53C209.828 172.603 210.902 170.854 212.34 169.43C212.37 169.415 212.325 169.365 212.3 169.395Z" fill="#263238"/>
<path d="M204.5 184.29C204.5 184.29 212.955 182.29 216.835 176.595C220.545 171.18 221.74 161.95 221.835 161.135C221.837 161.117 221.837 161.098 221.835 161.08C221.835 161.08 217.785 166.845 213.52 168.315C209.255 169.785 203.275 174.87 204.5 184.29Z" fill="#47B88F"/>
<path d="M220.345 163.97C219.586 165.523 218.712 167.017 217.73 168.44C216.738 169.793 215.56 170.998 214.23 172.02C213.085 172.93 211.87 173.76 210.705 174.655L210.735 174.61C210.95 174.285 211.185 173.97 211.425 173.665C211.925 173.045 212.425 172.46 212.97 171.885C214.02 170.745 215.095 169.625 216.035 168.385C216.558 167.704 217.012 166.972 217.39 166.2C217.39 166.165 217.35 166.145 217.33 166.2C215.96 169.055 213.225 170.885 211.27 173.3C210.988 173.64 210.726 173.996 210.485 174.365C210.287 174.633 210.119 174.921 209.985 175.225C208.913 176.082 207.945 177.06 207.1 178.14C207.192 177.584 207.326 177.036 207.5 176.5C207.696 175.748 207.998 175.028 208.395 174.36C208.395 174.325 208.365 174.29 208.345 174.325C207.93 174.992 207.595 175.705 207.345 176.45C207.165 177.045 207.061 177.66 207.035 178.28C206.617 178.847 206.237 179.44 205.895 180.055L206 179.5C206.165 178.655 206.35 177.815 206.57 177C206.969 175.307 207.658 173.695 208.605 172.235C208.63 172.205 208.575 172.17 208.555 172.2C207.586 173.638 206.826 175.208 206.3 176.86C206.03 177.69 205.8 178.535 205.625 179.385C205.53 179.8 205.45 180.22 205.37 180.64C205.325 180.855 205.28 181.075 205.245 181.3C204.406 183.14 203.752 185.06 203.295 187.03C202.466 190.551 201.864 194.122 201.495 197.72C201.058 201.487 200.862 205.278 200.91 209.07C200.91 209.545 200.945 210.02 200.97 210.495C200.97 210.62 201.16 210.635 201.165 210.495C201.25 208.62 201.3 206.745 201.41 204.87C201.52 202.995 201.685 201.12 201.885 199.25C202.271 195.577 202.859 191.929 203.645 188.32C204.33 185.23 205.22 182.12 206.91 179.41C207.75 178.064 208.777 176.843 209.96 175.785C211.145 174.72 212.46 173.785 213.69 172.785C214.951 171.827 216.095 170.724 217.1 169.5C218.133 168.136 219.034 166.676 219.79 165.14L220.395 163.99C220.415 163.97 220.36 163.935 220.345 163.97Z" fill="#263238"/>
<path d="M173.47 180.55C173.47 180.55 173.335 192.55 180.52 196.05C187.705 199.55 191.555 196.625 196.435 197.79C196.245 197.5 192.76 192.495 187.22 191.115C181.5 189.675 175.2 185.555 173.47 180.55Z" fill="#47B88F"/>
<path opacity="0.2" d="M173.47 180.55C173.47 180.55 173.335 192.55 180.52 196.05C187.705 199.55 191.555 196.625 196.435 197.79C193.856 196.561 191.098 195.748 188.265 195.38C183.73 194.815 175.075 191.86 173.47 180.55Z" fill="black"/>
<path d="M196.91 197.7C196.054 196.922 195.091 196.27 194.05 195.765C193.9 195.695 193.74 195.635 193.585 195.565C193.43 195.495 193.425 195.38 193.34 195.29C193.126 195.065 192.901 194.852 192.665 194.65C192.217 194.257 191.733 193.908 191.22 193.605C190.03 192.905 188.72 192.415 187.51 191.765C187.475 191.765 187.445 191.805 187.48 191.82C188.08 192.135 188.665 192.48 189.25 192.82C189.835 193.16 190.4 193.47 190.955 193.82C191.452 194.142 191.927 194.498 192.375 194.885L192.745 195.24C191.95 194.972 191.138 194.757 190.315 194.595C189 194.33 187.67 194.14 186.36 193.86C185.716 193.729 185.08 193.562 184.455 193.36C183.855 192.86 183.26 192.405 182.695 191.885C182.012 191.259 181.391 190.569 180.84 189.825C180.815 189.795 180.765 189.825 180.785 189.86C181.659 191.037 182.648 192.126 183.735 193.11C183.425 192.99 183.115 192.865 182.815 192.725C180.347 191.618 178.229 189.858 176.69 187.635C176.69 187.6 176.615 187.635 176.64 187.665C177.945 189.574 179.63 191.192 181.59 192.42C182.57 193.042 183.621 193.545 184.72 193.92C185.994 194.317 187.293 194.624 188.61 194.84C189.898 195.051 191.17 195.353 192.415 195.745C193.561 196.134 194.639 196.701 195.61 197.425C197.44 198.846 198.914 200.675 199.915 202.765C201.195 205.521 201.997 208.475 202.285 211.5C202.285 211.63 202.5 211.63 202.49 211.5C202.155 206.465 200.805 201.21 196.91 197.7Z" fill="#263238"/>
<path d="M188.575 193.785C188.193 193.222 187.677 192.762 187.075 192.445C186.392 192.091 185.794 191.595 185.32 190.99C185.295 190.96 185.24 190.99 185.265 191.025C185.698 191.576 186.224 192.046 186.82 192.415C187.472 192.76 188.047 193.235 188.51 193.81C188.545 193.84 188.59 193.815 188.575 193.785Z" fill="#263238"/>
<path d="M192.385 206.57L192.71 213.175L193.715 233.36H208.785L209.785 213.175L210.115 206.57H192.385Z" fill="#455A64"/>
<path d="M192.385 206.57L192.71 213.175H209.785L210.115 206.57H192.385Z" fill="#263238"/>
<path d="M191.325 210.115H211.165V203.81H191.325V210.115Z" fill="#455A64"/>
<path d="M23.72 233.36L49.04 233.24L74.36 233.195L125 233.11L175.64 233.195L200.96 233.24L226.28 233.36L200.96 233.485L175.64 233.53L125 233.61L74.36 233.53L49.04 233.485L23.72 233.36Z" fill="#263238"/>
<path d="M217.065 31.605H32.9302V148.095H217.065V31.605Z" fill="white"/>
<path d="M217.07 148.095L32.9301 148.17H32.8551V148.095L32.8101 31.595V31.5H32.9301L217.07 31.575H217.115V31.625L217.07 148.095ZM217.07 148.095L217.02 31.595L217.07 31.645L32.9301 31.72L33.0551 31.595L33.0101 148.095L32.9301 148.02L217.07 148.095Z" fill="#263238"/>
<path d="M217.065 31.605H32.9302V36.09H217.065V31.605Z" fill="#263238"/>
<path d="M37.2551 33.845C37.256 34.0242 37.2038 34.1997 37.105 34.3492C37.0061 34.4986 36.8651 34.6154 36.6999 34.6847C36.5346 34.7539 36.3525 34.7726 36.1766 34.7382C36.0007 34.7039 35.839 34.6181 35.7119 34.4917C35.5848 34.3653 35.4982 34.2041 35.4628 34.0284C35.4275 33.8527 35.4451 33.6705 35.5135 33.5048C35.5818 33.3392 35.6978 33.1975 35.8468 33.0979C35.9957 32.9982 36.1708 32.945 36.3501 32.945C36.5892 32.945 36.8186 33.0397 36.9882 33.2083C37.1578 33.3769 37.2537 33.6059 37.2551 33.845Z" fill="#47B88F"/>
<path d="M40.945 33.845C40.946 34.0242 40.8938 34.1997 40.7949 34.3492C40.6961 34.4986 40.5551 34.6154 40.3898 34.6847C40.2245 34.7539 40.0424 34.7726 39.8665 34.7382C39.6906 34.7039 39.5289 34.6181 39.4019 34.4917C39.2748 34.3653 39.1881 34.2041 39.1528 34.0284C39.1174 33.8527 39.1351 33.6705 39.2034 33.5048C39.2718 33.3392 39.3878 33.1975 39.5367 33.0979C39.6856 32.9982 39.8608 32.945 40.04 32.945C40.2792 32.945 40.5086 33.0397 40.6782 33.2083C40.8477 33.3769 40.9437 33.6059 40.945 33.845Z" fill="white"/>
<path d="M44.6301 33.845C44.631 34.0242 44.5788 34.1997 44.48 34.3492C44.3811 34.4986 44.2401 34.6154 44.0749 34.6847C43.9096 34.7539 43.7275 34.7726 43.5516 34.7382C43.3757 34.7039 43.214 34.6181 43.0869 34.4917C42.9598 34.3653 42.8732 34.2041 42.8378 34.0284C42.8025 33.8527 42.8201 33.6705 42.8885 33.5048C42.9568 33.3392 43.0728 33.1975 43.2218 33.0979C43.3707 32.9982 43.5458 32.945 43.7251 32.945C43.9642 32.945 44.1936 33.0397 44.3632 33.2083C44.5328 33.3769 44.6287 33.6059 44.6301 33.845Z" fill="#455A64"/>
<path d="M50.0901 54.26H46.4451V54.845H50.0901V54.26Z" fill="#EBEBEB"/>
<path d="M50.0901 56.885H46.4451V57.47H50.0901V56.885Z" fill="#EBEBEB"/>
<path d="M50.0901 55.585H46.4451V56.17H50.0901V55.585Z" fill="#EBEBEB"/>
<path d="M114.06 55.585H92.3101V56.885H114.06V55.585Z" fill="#EBEBEB"/>
<path d="M143.89 55.585H122.14V56.885H143.89V55.585Z" fill="#EBEBEB"/>
<path d="M173.725 55.585H151.975V56.885H173.725V55.585Z" fill="#47B88F"/>
<path d="M203.555 55.585H181.805V56.885H203.555V55.585Z" fill="#EBEBEB"/>
<path d="M217.065 36.09H32.9302V46.72H217.065V36.09Z" fill="#47B88F"/>
<path d="M203.51 39.135H152.02V43.665H203.51V39.135Z" fill="white"/>
<path d="M203.555 43.715H152V39.09H203.555V43.715Z" fill="white"/>
<path d="M203.55 39.09H198.925V43.715H203.55V39.09Z" fill="#455A64"/>
<path d="M202.675 42.675L202.26 42.99L201.485 41.99L201.2 41.62C201.257 41.5951 201.311 41.5632 201.36 41.525C201.456 41.4533 201.53 41.3564 201.575 41.245L201.88 41.645L202.675 42.675Z" fill="white"/>
<path d="M201.855 40.265C201.723 40.0905 201.543 39.9576 201.338 39.8821C201.132 39.8065 200.91 39.7914 200.696 39.8385C200.482 39.8857 200.286 39.9932 200.132 40.1482C199.977 40.3032 199.87 40.4992 199.824 40.7131C199.777 40.927 199.793 41.1498 199.869 41.355C199.945 41.5603 200.079 41.7394 200.254 41.8711C200.428 42.0028 200.637 42.0817 200.856 42.0983C201.074 42.115 201.292 42.0687 201.485 41.965C201.541 41.9382 201.593 41.9046 201.64 41.865C201.732 41.7962 201.813 41.7135 201.88 41.62C202.02 41.4206 202.093 41.1819 202.088 40.9384C202.084 40.6949 202.002 40.4591 201.855 40.265ZM201.355 41.5C201.306 41.5382 201.252 41.5701 201.195 41.595C201.077 41.6426 200.947 41.6561 200.821 41.6341C200.696 41.6121 200.579 41.5553 200.483 41.4703C200.388 41.3852 200.319 41.2752 200.283 41.1527C200.246 41.0302 200.245 40.9001 200.279 40.777C200.313 40.6539 200.381 40.5428 200.475 40.4562C200.569 40.3696 200.685 40.3109 200.81 40.2867C200.936 40.2626 201.065 40.274 201.184 40.3196C201.304 40.3653 201.408 40.4433 201.485 40.545C201.559 40.6394 201.605 40.752 201.62 40.8708C201.635 40.9896 201.618 41.1102 201.57 41.22C201.527 41.3308 201.454 41.4276 201.36 41.5H201.355Z" fill="white"/>
<path d="M153.21 40.03H152.965V42.78H153.21V40.03Z" fill="#C7C7C7"/>
<path d="M66.0101 72.73H46.4451V75.315H66.0101V72.73Z" fill="#37474F"/>
<path d="M63.2251 76.725H46.4451V77.93H63.2251V76.725Z" fill="#455A64"/>
<path d="M52.135 86.49L57.825 86.395L63.515 86.345L74.89 86.3L86.27 86.345L91.955 86.395L97.645 86.49L91.955 86.58L86.27 86.63L74.89 86.675L63.515 86.63L57.825 86.58L52.135 86.49Z" fill="#C7C7C7"/>
<path d="M52.135 89.55L57.825 89.46L63.515 89.41L74.89 89.365L86.27 89.405L91.955 89.46L97.645 89.55L91.955 89.645L86.27 89.695L74.89 89.74L63.515 89.695L57.825 89.64L52.135 89.55Z" fill="#C7C7C7"/>
<path d="M52.135 92.615L57.825 92.525L63.515 92.47L74.89 92.425L86.27 92.47L91.955 92.525L97.645 92.615L91.955 92.705L86.27 92.76L74.89 92.8L63.515 92.76L57.825 92.705L52.135 92.615Z" fill="#C7C7C7"/>
<path d="M52.135 95.68L57.825 95.585L63.515 95.535L74.89 95.49L86.27 95.535L91.955 95.585L97.645 95.68L91.955 95.77L86.27 95.825L74.89 95.865L63.515 95.82L57.825 95.77L52.135 95.68Z" fill="#C7C7C7"/>
<path d="M52.135 101.805L57.825 101.715L63.515 101.66L74.89 101.62L86.27 101.66L91.955 101.715L97.645 101.805L91.955 101.895L86.27 101.95L74.89 101.99L63.515 101.95L57.825 101.895L52.135 101.805Z" fill="#C7C7C7"/>
<path d="M52.135 104.87L57.825 104.775L63.515 104.725L74.89 104.68L86.27 104.725L91.955 104.775L97.645 104.87L91.955 104.96L86.27 105.015L74.89 105.055L63.515 105.01L57.825 104.96L52.135 104.87Z" fill="#C7C7C7"/>
<path d="M52.135 107.93L56.2 107.84L60.27 107.79L68.4 107.745L76.535 107.785L80.6 107.84L84.67 107.93L80.6 108.025L76.535 108.075L68.4 108.12L60.27 108.075L56.2 108.025L52.135 107.93Z" fill="#C7C7C7"/>
<path d="M46.4451 125.745C48.2951 125.67 50.1401 125.63 51.9901 125.6C53.8401 125.57 55.6851 125.6 57.5351 125.56L63.0801 125.6C64.9301 125.63 66.7751 125.665 68.6251 125.745C66.7751 125.825 64.9301 125.86 63.0801 125.89L57.5351 125.93C55.6851 125.93 53.8401 125.93 51.9901 125.89C50.1401 125.85 48.2951 125.82 46.4451 125.745Z" fill="#C7C7C7"/>
<path d="M46.4451 127.655C47.9451 127.58 49.4151 127.545 50.9001 127.515C52.3851 127.485 53.8701 127.485 55.3551 127.47C56.8401 127.455 58.3251 127.47 59.8101 127.515C61.2951 127.56 62.7801 127.58 64.2651 127.655C62.7651 127.735 61.2951 127.77 59.8101 127.8C58.3251 127.83 56.8401 127.83 55.3551 127.845C53.8701 127.86 52.3851 127.845 50.9001 127.8C49.4151 127.755 47.9301 127.735 46.4451 127.655Z" fill="#C7C7C7"/>
<path d="M50.7801 118.655V121.76C50.7586 121.905 50.695 122.041 50.5972 122.15C50.4995 122.259 50.3718 122.337 50.2301 122.375H50.1401H49.2851C49.2851 122.375 49.2851 122.345 49.2851 122.33V120.75H49.9651C49.9951 120.75 50.0051 120.75 50.0051 120.71V120H49.2901C49.2901 119.885 49.2901 119.775 49.2901 119.66C49.2907 119.639 49.2956 119.617 49.3046 119.598C49.3135 119.578 49.3263 119.561 49.3422 119.546C49.3581 119.532 49.3767 119.521 49.3969 119.514C49.4172 119.507 49.4386 119.504 49.4601 119.505H50.0001V118.77H49.4451C49.2901 118.767 49.1388 118.817 49.0151 118.91C48.9091 118.984 48.8201 119.08 48.7537 119.191C48.6874 119.303 48.6453 119.426 48.6301 119.555C48.6225 119.69 48.6225 119.825 48.6301 119.96V120H48.1301V120.705C48.1301 120.735 48.1301 120.735 48.1651 120.735H48.6651V122.405H47.0801C46.9803 122.39 46.8848 122.355 46.8001 122.3C46.6453 122.201 46.5303 122.05 46.4751 121.875L46.4451 121.75V118.645C46.461 118.545 46.4949 118.448 46.5451 118.36C46.6425 118.205 46.791 118.088 46.9651 118.03L47.0851 118H50.1401C50.2863 118.025 50.422 118.092 50.5303 118.194C50.6387 118.295 50.7151 118.426 50.7501 118.57L50.7801 118.655Z" fill="#47B88F"/>
<path d="M58.205 118H55.205C55.1172 118.001 55.0305 118.019 54.9497 118.053C54.869 118.087 54.7958 118.137 54.7344 118.2C54.6731 118.263 54.6248 118.337 54.5922 118.419C54.5597 118.5 54.5437 118.587 54.545 118.675V121.75C54.5437 121.838 54.5597 121.925 54.5922 122.006C54.6248 122.088 54.6731 122.162 54.7344 122.225C54.7958 122.288 54.869 122.338 54.9497 122.372C55.0305 122.406 55.1172 122.424 55.205 122.425H58.205C58.293 122.424 58.38 122.406 58.461 122.372C58.5421 122.338 58.6156 122.288 58.6773 122.225C58.7391 122.163 58.7879 122.088 58.8209 122.007C58.854 121.925 58.8707 121.838 58.87 121.75V118.675C58.8707 118.587 58.854 118.5 58.8209 118.418C58.7879 118.337 58.7391 118.262 58.6773 118.2C58.6156 118.137 58.5421 118.087 58.461 118.053C58.38 118.019 58.293 118.001 58.205 118ZM58.41 119.12C58.41 119.12 58.41 119.145 58.41 119.16C58.3296 119.273 58.2337 119.374 58.125 119.46C58.1133 119.467 58.1041 119.478 58.0987 119.49C58.0933 119.503 58.092 119.517 58.095 119.53C58.102 119.879 58.0175 120.224 57.85 120.53C57.7289 120.785 57.5525 121.01 57.3337 121.188C57.1149 121.366 56.8591 121.493 56.585 121.56C56.1951 121.661 55.7838 121.642 55.405 121.505H55.35L55.15 121.405L55.005 121.32C55.3648 121.34 55.7192 121.226 56 121C55.9493 120.994 55.8992 120.984 55.85 120.97C55.7376 120.947 55.6328 120.896 55.5453 120.822C55.4579 120.747 55.3907 120.652 55.35 120.545C55.3468 120.538 55.3452 120.53 55.3452 120.522C55.3452 120.515 55.3468 120.507 55.35 120.5C55.35 120.5 55.35 120.5 55.39 120.5C55.4744 120.515 55.5606 120.515 55.645 120.5C55.6143 120.48 55.5805 120.465 55.545 120.455C55.419 120.406 55.3095 120.322 55.2291 120.213C55.1486 120.104 55.1004 119.975 55.09 119.84C55.09 119.78 55.09 119.78 55.145 119.8C55.2277 119.84 55.318 119.862 55.41 119.865C55.3432 119.816 55.2843 119.757 55.235 119.69C55.1551 119.582 55.1068 119.453 55.0953 119.319C55.0839 119.185 55.1097 119.05 55.17 118.93C55.17 118.905 55.17 118.89 55.22 118.93C55.5157 119.295 55.9327 119.542 56.395 119.625L56.6 119.655C56.64 119.655 56.655 119.655 56.65 119.605C56.6329 119.511 56.6348 119.415 56.6557 119.322C56.6765 119.229 56.7159 119.141 56.7714 119.064C56.8269 118.986 56.8975 118.921 56.9788 118.871C57.0602 118.822 57.1507 118.789 57.245 118.775C57.3514 118.757 57.4606 118.765 57.5633 118.798C57.666 118.831 57.7592 118.888 57.835 118.965C57.8413 118.976 57.8512 118.985 57.863 118.989C57.8749 118.994 57.8879 118.994 57.9 118.99C58.0135 118.961 58.124 118.92 58.23 118.87C58.2565 118.856 58.2802 118.837 58.3 118.815C58.2906 118.9 58.2557 118.98 58.2 119.045C58.148 119.108 58.0894 119.165 58.025 119.215C58.1518 119.199 58.2761 119.167 58.395 119.12H58.41Z" fill="#47B88F"/>
<path d="M66.945 120.155V119.09C66.9525 119.005 66.9525 118.92 66.945 118.835C66.9281 118.663 66.8634 118.499 66.7582 118.363C66.653 118.226 66.5117 118.121 66.35 118.06C66.1788 118.006 65.9992 117.984 65.82 117.995H63.79C63.6802 117.988 63.5699 117.988 63.46 117.995C63.2939 118.014 63.1365 118.08 63.0057 118.184C62.8749 118.288 62.7759 118.427 62.72 118.585C62.664 118.745 62.6386 118.915 62.645 119.085V121.245C62.6476 121.362 62.6576 121.479 62.675 121.595C62.6972 121.74 62.7543 121.877 62.8414 121.994C62.9286 122.112 63.0431 122.207 63.175 122.27C63.3451 122.35 63.5325 122.386 63.72 122.375H65.87C65.9789 122.377 66.0877 122.368 66.195 122.35C66.3536 122.323 66.5021 122.254 66.6251 122.15C66.7482 122.046 66.8413 121.912 66.895 121.76C66.9501 121.599 66.9738 121.43 66.965 121.26C66.965 120.88 66.965 120.505 66.965 120.13L66.945 120.155ZM66.385 120.805C66.39 121.038 66.3132 121.266 66.168 121.448C66.0228 121.631 65.8184 121.757 65.59 121.805C65.5201 121.81 65.4499 121.81 65.38 121.805H64.19C64.0566 121.805 63.9245 121.778 63.8015 121.727C63.6785 121.675 63.5671 121.599 63.4739 121.503C63.3807 121.408 63.3076 121.295 63.2589 121.17C63.2101 121.046 63.1867 120.913 63.19 120.78C63.19 120.37 63.19 119.965 63.19 119.555C63.1831 119.327 63.2542 119.104 63.3915 118.922C63.5288 118.74 63.7241 118.611 63.945 118.555C64.0303 118.535 64.1175 118.525 64.205 118.525H64.79C65.02 118.525 65.25 118.525 65.475 118.525C65.6893 118.543 65.8921 118.629 66.0533 118.772C66.2146 118.914 66.3256 119.105 66.37 119.315C66.3777 119.393 66.3777 119.472 66.37 119.55C66.39 120 66.39 120.4 66.385 120.805Z" fill="#47B88F"/>
<path d="M65.3052 120.205C65.2984 120.302 65.2633 120.395 65.2044 120.473C65.1455 120.55 65.0653 120.609 64.9735 120.641C64.8818 120.674 64.7825 120.679 64.6879 120.656C64.5933 120.633 64.5076 120.583 64.4411 120.511C64.3746 120.44 64.3304 120.351 64.3137 120.255C64.2971 120.16 64.3089 120.061 64.3475 119.971C64.3862 119.882 64.4501 119.806 64.5314 119.752C64.6127 119.699 64.7078 119.67 64.8052 119.67C64.9418 119.677 65.0705 119.736 65.1638 119.836C65.2572 119.936 65.3079 120.068 65.3052 120.205Z" fill="#47B88F"/>
<path d="M65.3951 118.85H64.1801C64.0845 118.849 63.9898 118.868 63.9014 118.904C63.8131 118.941 63.733 118.995 63.6659 119.063C63.5988 119.131 63.546 119.212 63.5106 119.301C63.4753 119.389 63.4581 119.484 63.4601 119.58V120.825C63.4581 120.92 63.4751 121.015 63.5102 121.103C63.5452 121.192 63.5976 121.272 63.6642 121.34C63.7308 121.408 63.8103 121.462 63.898 121.499C63.9857 121.536 64.08 121.555 64.1751 121.555H65.3951C65.4905 121.555 65.585 121.536 65.673 121.499C65.761 121.462 65.8408 121.409 65.9078 121.341C65.9748 121.273 66.0276 121.192 66.0632 121.104C66.0988 121.015 66.1164 120.92 66.1151 120.825V119.58C66.1164 119.485 66.0988 119.39 66.0632 119.301C66.0276 119.213 65.9748 119.132 65.9078 119.064C65.8408 118.996 65.761 118.943 65.673 118.906C65.585 118.869 65.4905 118.85 65.3951 118.85ZM64.7851 121C64.6233 121.003 64.4643 120.958 64.3283 120.87C64.1923 120.782 64.0855 120.656 64.0216 120.507C63.9576 120.359 63.9393 120.194 63.969 120.035C63.9987 119.876 64.0751 119.73 64.1885 119.614C64.3019 119.499 64.447 119.42 64.6055 119.387C64.764 119.354 64.9286 119.369 65.0784 119.431C65.2282 119.492 65.3564 119.596 65.4467 119.731C65.5369 119.865 65.5851 120.023 65.5851 120.185C65.5865 120.399 65.5031 120.605 65.3532 120.757C65.2033 120.91 64.9991 120.997 64.7851 121ZM65.6601 119.5C65.6341 119.5 65.6083 119.495 65.5843 119.485C65.5603 119.475 65.5386 119.46 65.5204 119.441C65.5023 119.422 65.488 119.4 65.4785 119.376C65.469 119.352 65.4644 119.326 65.4651 119.3C65.4651 119.248 65.4857 119.199 65.5222 119.162C65.5588 119.126 65.6084 119.105 65.6601 119.105C65.7118 119.105 65.7614 119.126 65.798 119.162C65.8346 119.199 65.8551 119.248 65.8551 119.3C65.8558 119.326 65.8512 119.352 65.8417 119.376C65.8322 119.4 65.818 119.422 65.7998 119.441C65.7816 119.46 65.7599 119.475 65.7359 119.485C65.7119 119.495 65.6862 119.5 65.6601 119.5Z" fill="#47B88F"/>
<path d="M217.065 46.72H213.795V148.095H217.065V46.72Z" fill="#DBDBDB"/>
<path d="M215.43 85.625C215.206 85.625 214.991 85.536 214.832 85.3775C214.674 85.219 214.585 85.0041 214.585 84.78V48.23C214.585 48.0059 214.674 47.791 214.832 47.6325C214.991 47.474 215.206 47.385 215.43 47.385C215.654 47.385 215.869 47.474 216.027 47.6325C216.186 47.791 216.275 48.0059 216.275 48.23V84.78C216.275 85.0041 216.186 85.219 216.027 85.3775C215.869 85.536 215.654 85.625 215.43 85.625Z" fill="#A6A6A6"/>
<path d="M213.795 133.705H32.9302V148.095H213.795V133.705Z" fill="#47B88F"/>
<path d="M65.8701 137.59L73.3451 137.5L80.8201 137.45L95.7701 137.41L110.72 137.45L118.195 137.5L125.67 137.59L118.195 137.675L110.72 137.725L95.7701 137.765L80.8201 137.725L73.3451 137.675L65.8701 137.59Z" fill="white"/>
<path d="M65.8701 139.795L73.3451 139.71L80.8201 139.66L95.7701 139.62L110.72 139.66L118.195 139.71L125.67 139.795L118.195 139.885L110.72 139.935L95.7701 139.975L80.8201 139.935L73.3451 139.885L65.8701 139.795Z" fill="white"/>
<path d="M65.8701 142.005L73.3451 141.92L80.8201 141.87L95.7701 141.825L110.72 141.87L118.195 141.92L125.67 142.005L118.195 142.095L110.72 142.145L95.7701 142.185L80.8201 142.145L73.3451 142.095L65.8701 142.005Z" fill="white"/>
<path d="M65.8701 144.215C68.3701 144.14 70.8701 144.105 73.3451 144.08L80.8201 144.035L88.3201 144.075C90.8201 144.105 93.3201 144.14 95.7951 144.215C93.2951 144.29 90.7951 144.325 88.3201 144.35L80.8201 144.395L73.3451 144.35C70.8551 144.325 68.3601 144.29 65.8701 144.215Z" fill="white"/>
<path d="M46.3351 143.09V138.71L44.2051 140.745L46.3351 143.09Z" fill="white"/>
<path d="M200.505 138.71V143.09L202.635 141.06L200.505 138.71Z" fill="white"/>
<path d="M215.22 232.35C213.65 232.955 168.005 233.785 166.22 232.765C166.025 232.65 166.08 230.635 165.41 225.425C165.375 225.175 164.335 224.21 162.71 222.845C156.605 217.73 142.26 206.945 142.26 206.945L165.04 187.155L187.11 208.85L192.855 214.5C192.855 214.5 211.5 224.57 213.355 225.9C215.21 227.23 216.795 231.745 215.22 232.35Z" fill="#AD6359"/>
<path d="M215.22 232.35C213.65 232.96 168.005 233.785 166.22 232.765C166.03 232.65 166.085 230.635 165.41 225.425C165.375 225.175 164.335 224.21 162.705 222.845C160.585 221.065 159.575 220.255 156.42 217.795L185.375 207.145L187.115 208.855L192.85 214.5C192.85 214.5 211.5 224.565 213.35 225.9C215.2 227.235 216.795 231.745 215.22 232.35Z" fill="#EBEBEB"/>
<path d="M218.365 233C216.78 233.55 168.15 234.085 166.4 233C165.99 232.75 165.61 229.925 165.31 226.055C165.27 225.555 160.345 221.63 159.67 220.905L189.47 210.865L193.235 214.405C193.235 214.405 215.165 224.61 216.96 226C218.755 227.39 219.95 232.43 218.365 233Z" fill="#47B88F"/>
<path d="M217.69 231.165C210.05 231.065 176.16 231.39 168.6 231.875C168.54 231.875 168.54 231.92 168.6 231.925C176.17 232.185 210.06 231.61 217.695 231.29C217.855 231.285 217.855 231.17 217.69 231.165Z" fill="#263238"/>
<path d="M195.665 214.715C192.665 214.19 188.98 214.69 186.71 216.86C186.625 216.945 186.745 217.07 186.84 217.035C189.702 216.074 192.659 215.424 195.66 215.095C195.703 215.086 195.742 215.062 195.77 215.028C195.797 214.994 195.813 214.951 195.814 214.907C195.814 214.863 195.8 214.82 195.773 214.785C195.746 214.75 195.708 214.726 195.665 214.715Z" fill="#263238"/>
<path d="M197.85 216C194.85 215.475 191.165 216 188.895 218.145C188.805 218.23 188.93 218.355 189.025 218.325C191.885 217.363 194.841 216.711 197.84 216.38C197.89 216.381 197.939 216.363 197.976 216.328C198.012 216.293 198.034 216.245 198.035 216.195C198.036 216.145 198.018 216.096 197.983 216.059C197.948 216.023 197.9 216.001 197.85 216Z" fill="#263238"/>
<path d="M200.035 217.28C197.035 216.75 193.35 217.255 191.08 219.425C190.99 219.51 191.115 219.63 191.21 219.6C194.07 218.64 197.026 217.989 200.025 217.66C200.075 217.661 200.124 217.643 200.161 217.608C200.197 217.573 200.219 217.525 200.22 217.475C200.221 217.425 200.202 217.376 200.168 217.339C200.133 217.303 200.085 217.281 200.035 217.28Z" fill="#263238"/>
<path d="M202.22 218.56C199.22 218.035 195.535 218.56 193.265 220.705C193.175 220.79 193.3 220.915 193.395 220.885C196.255 219.923 199.21 219.271 202.21 218.94C202.26 218.941 202.309 218.923 202.346 218.888C202.382 218.853 202.404 218.805 202.405 218.755C202.406 218.705 202.388 218.656 202.353 218.619C202.318 218.583 202.27 218.561 202.22 218.56Z" fill="#263238"/>
<path d="M201.135 207.7C199.935 206.085 197.745 206.84 196.5 207.91C194.403 209.785 192.836 212.178 191.955 214.85C191.95 214.862 191.948 214.875 191.949 214.887C191.95 214.9 191.955 214.912 191.961 214.923C191.968 214.934 191.978 214.943 191.989 214.949C192 214.956 192.012 214.959 192.025 214.96C192.024 215.019 192.036 215.077 192.061 215.129C192.086 215.182 192.123 215.228 192.169 215.264C192.215 215.3 192.269 215.325 192.327 215.336C192.384 215.348 192.443 215.346 192.5 215.33C194.97 214.38 197.73 213.67 199.84 211.995C201.07 211 202.27 209.225 201.135 207.7ZM195.955 213.125C194.75 213.625 193.53 214.055 192.345 214.595C193.191 213.215 194.107 211.88 195.09 210.595C195.575 209.981 196.099 209.4 196.66 208.855C197.545 208.03 201.065 206.26 200.575 209.56C200.305 211.39 197.39 212.535 195.955 213.125Z" fill="#263238"/>
<path d="M184.305 214.155C186.805 215.18 189.64 215.095 192.28 215.32C192.555 215.345 192.685 215.055 192.635 214.82C192.647 214.816 192.657 214.809 192.666 214.801C192.674 214.792 192.681 214.781 192.684 214.77C192.688 214.758 192.689 214.746 192.688 214.734C192.686 214.722 192.682 214.71 192.675 214.7C191.086 212.377 188.913 210.513 186.375 209.295C184.875 208.615 182.57 208.495 181.875 210.375C181.2 212.17 182.85 213.555 184.305 214.155ZM182.925 212.03C181.535 208.99 185.425 209.715 186.485 210.26C187.178 210.627 187.846 211.039 188.485 211.495C189.784 212.456 191.034 213.483 192.23 214.57C190.945 214.38 189.65 214.305 188.355 214.16C186.81 214 183.69 213.7 182.925 212.03Z" fill="#263238"/>
<path d="M187.425 207.64L159.27 222.23C159.27 222.23 129.94 195.68 127.27 195.485C124.66 195.295 85.1199 222.06 65.2699 222.145C44.6949 222.23 43.6499 200.675 43.6499 200.675L73.6499 193.78C95.2899 183.115 117.825 163.965 132.565 165.75C148.56 167.69 187.425 207.64 187.425 207.64Z" fill="#263238"/>
<path d="M180.55 203.925C175.795 206.275 177.13 205.535 172.4 207.925C170.09 209.1 158.445 214.975 156.47 216.425C156.425 216.455 156.47 216.535 156.515 216.515C158.845 215.735 170.355 209.61 172.645 208.395C177.33 205.895 175.96 206.575 180.615 204.04C180.628 204.04 180.64 204.036 180.652 204.029C180.663 204.023 180.672 204.013 180.678 204.002C180.685 203.991 180.688 203.978 180.688 203.965C180.688 203.952 180.685 203.939 180.679 203.928C180.672 203.917 180.663 203.907 180.652 203.901C180.641 203.894 180.628 203.89 180.615 203.89C180.602 203.89 180.589 203.893 180.578 203.899C180.566 203.905 180.557 203.914 180.55 203.925Z" fill="#37474F"/>
<path d="M154.285 215.5C148.785 210.645 130.745 194.845 130.015 194.26C129.447 193.717 128.816 193.244 128.135 192.85C127.854 192.739 127.552 192.694 127.251 192.718C126.95 192.742 126.659 192.835 126.4 192.99C125.565 193.38 124.75 193.805 123.9 194.21L119.02 196.59C112.715 199.67 106.44 202.83 100.085 205.805C93.97 208.67 89.585 211.365 83.225 213.565C76.8793 215.807 70.3146 217.372 63.64 218.235C62.815 218.335 61.99 218.425 61.165 218.5C61.155 218.503 61.1463 218.51 61.1401 218.518C61.1339 218.527 61.1306 218.537 61.1306 218.548C61.1306 218.558 61.1339 218.568 61.1401 218.577C61.1463 218.585 61.155 218.592 61.165 218.595C67.723 218.205 74.2065 216.998 80.465 215C86.79 213.055 91.08 210.53 97.09 207.765C103.315 204.9 109.45 201.835 115.59 198.765C118.83 197.155 122.09 195.53 125.31 193.94C126.05 193.58 127.095 192.8 127.94 193.185C128.293 193.38 128.619 193.62 128.91 193.9L129.99 194.8C131.385 195.96 153.49 215 154.215 215.55C154.265 215.625 154.34 215.55 154.285 215.5Z" fill="#37474F"/>
<path d="M43.6199 200.675C43.6199 200.675 40.6199 222.615 50.6849 229.825C60.7499 237.035 131.945 232.97 142.6 229C153.255 225.03 152.82 207.575 140.825 204.055C129.415 200.705 81.5199 200.95 80.3249 200.53C80.0249 200.425 84.4399 197.505 84.4099 197.34L73.3799 194.5L43.6199 200.675Z" fill="#263238"/>
<path d="M57.865 201.875C57.865 201.795 57.72 201.825 57.725 201.905C57.8182 204.169 57.11 206.392 55.725 208.185C54.155 210.185 51.765 211.345 49.6 212.56C49.395 212.68 49.57 213.005 49.785 212.93C51.1247 212.451 52.4088 211.829 53.615 211.075C54.7246 210.419 55.6878 209.543 56.445 208.5C57.1285 207.555 57.6077 206.478 57.8522 205.337C58.0966 204.196 58.101 203.017 57.865 201.875Z" fill="#37474F"/>
<path d="M79.4451 198.5C78.9451 197.89 78.3601 197.315 77.8151 196.725C76.5351 195.33 75.2501 193.93 73.9101 192.585C73.7851 192.46 73.5551 192.655 73.6751 192.8C74.5801 193.885 75.5401 194.93 76.4851 195.985C76.9651 196.528 77.4501 197.068 77.9401 197.605C78.4451 198.086 78.9022 198.615 79.3051 199.185C79.6651 199.795 79.2501 200.345 78.6051 200.445C78.0341 200.484 77.4694 200.306 77.0251 199.945C75.9851 199.215 75.1451 198.145 74.265 197.24C73.725 196.683 73.1834 196.132 72.6401 195.585C72.0601 195.005 71.445 194.455 70.865 193.875C70.83 193.84 70.765 193.875 70.795 193.94C71.295 194.58 71.795 195.25 72.295 195.89C72.795 196.53 73.325 197.165 73.85 197.795C74.375 198.425 74.85 198.975 75.395 199.54C75.8358 200.045 76.358 200.473 76.9401 200.805C77.8851 201.305 79.5001 201.355 79.9401 200.14C80.0128 199.847 80.0052 199.541 79.9181 199.252C79.8309 198.963 79.6675 198.704 79.4451 198.5Z" fill="#37474F"/>
<path d="M141.12 229.125C137.405 229.36 133.695 229.74 129.975 229.985C126.255 230.23 122.595 230.41 118.9 230.54C111.48 230.793 104.058 230.832 96.6348 230.655C89.1348 230.47 81.0398 230.08 73.5648 229.38C69.9898 229.045 66.3698 228.795 62.8248 228.195C59.6405 227.735 56.6545 226.373 54.2198 224.27C49.2198 219.815 47.0298 213.04 45.9748 206.52C45.8298 205.645 45.7098 204.77 45.5998 203.89C45.5998 203.83 45.4998 203.835 45.5048 203.89C46.2398 210.59 47.5898 217.55 52.0548 222.765C53.9436 225.042 56.3996 226.78 59.1748 227.805C62.5598 228.99 66.2698 229.14 69.7998 229.465C77.2998 230.145 85.4298 230.57 92.9598 230.82C100.49 231.07 108.11 231.1 115.685 230.88C123.26 230.66 130.825 230.215 138.37 229.51C139.29 229.425 140.21 229.33 141.13 229.205C141.18 229.205 141.175 229.125 141.12 229.125Z" fill="#37474F"/>
<path d="M116.395 201.575C114.035 201.335 111.685 201.105 109.32 200.965C106.955 200.825 104.535 200.715 102.145 200.615C97.4149 200.425 92.6749 200.275 87.9399 200.26C85.2499 200.26 82.5649 200.36 79.8799 200.515C79.7899 200.515 79.8049 200.64 79.8799 200.645C84.6199 200.865 89.3799 200.955 94.1099 201.06C98.8399 201.165 103.58 201.37 108.31 201.61C110.995 201.75 113.675 201.825 116.36 201.925C116.57 201.935 116.595 201.595 116.395 201.575Z" fill="#37474F"/>
<path d="M84.9499 197.075C83.1021 197.972 81.3326 199.023 79.6599 200.215C77.9509 201.344 76.3236 202.592 74.7899 203.95C74.7499 203.99 74.7899 204.045 74.8549 204.02C76.6549 203.09 78.3549 201.945 80.0849 200.845C81.8214 199.772 83.4911 198.595 85.0849 197.32C85.1849 197.23 85.1049 197 84.9499 197.075Z" fill="#37474F"/>
<path d="M66.435 159.97C69.27 172.47 75.165 187.415 77.69 189.85C80.885 192.925 102.055 198.605 103.11 198.72C105.725 198.99 111.01 180.17 108.225 179.76C103.985 179.14 88.57 178.26 87.645 177.31C86.72 176.36 80.2 168.095 73.53 158.81C68.925 152.385 64.675 152.23 66.435 159.97Z" fill="#AD6359"/>
<path d="M101 197.7C101.315 197.86 105.735 200.095 108.47 200.895C110.51 201.49 116.43 203.05 117.31 200.87C117.91 199.37 114.54 198.055 112.175 197.065C110.93 196.565 109.395 195.235 109.765 194.435C110.41 193.035 113.615 194.435 115.725 195.68C119.8 198.06 125.225 202.34 127.725 200.28C128.665 199.495 127.575 198.07 125.98 196.67C128.575 198.305 131.34 199.67 132.42 198.82C133.045 198.35 133.075 197.7 132.73 196.96C133.53 197.225 134.23 197.175 134.73 196.655C135.58 195.775 135.17 194.465 134.23 193.13C134.388 193.114 134.54 193.06 134.673 192.973C134.806 192.886 134.916 192.768 134.995 192.63C136.79 189.91 127.86 182.06 124.765 181.32C115.665 179.135 106.07 179.515 106.07 179.515C102.5 182.36 101 197.695 101 197.7Z" fill="#AD6359"/>
<path d="M114.42 189.35C116.591 189.691 118.664 190.493 120.5 191.7C122.805 193.23 124.33 195.02 126.265 196.82C126.315 196.865 126.265 196.945 126.195 196.9C125.27 196.04 121.455 192.825 120.47 192.09C118.685 190.743 116.618 189.818 114.425 189.385C114.39 189.38 114.4 189.345 114.42 189.35Z" fill="#263238"/>
<path d="M116.13 185.5C118.52 186.16 120.97 186.825 123.19 187.965C125.615 189.21 127.515 191.23 129.38 193.18C130.5 194.35 131.595 195.545 132.665 196.765C132.71 196.815 132.64 196.895 132.59 196.845C130.7 194.845 128.747 192.89 126.73 190.98C124.875 189.21 122.688 187.825 120.295 186.905C118.93 186.38 117.52 185.96 116.12 185.54L116.13 185.5Z" fill="#263238"/>
<path d="M118.69 182.115C121.015 182.615 123.045 183.01 125.1 184.265C127.82 185.92 130.445 188.705 131.37 189.69C132.37 190.785 133.37 191.905 134.33 193.045C134.365 193.09 134.29 193.16 134.245 193.115C132.041 190.618 129.678 188.266 127.17 186.075C125.991 185.013 124.656 184.139 123.21 183.485C121.751 182.907 120.245 182.454 118.71 182.13L118.69 182.115Z" fill="#263238"/>
<path d="M104.64 178.735L98.0749 199.36C98.0749 199.36 80.4499 194.28 77.2349 190.8C74.0199 187.32 68.1149 169.35 66.3849 160.65C64.6549 151.95 69.0549 152.15 73.0849 157.65C77.1149 163.15 87.1499 176.46 87.7099 176.75C88.2699 177.04 104.64 178.735 104.64 178.735Z" fill="#47B88F"/>
<path d="M91.105 177.255C90.685 177.495 90.265 177.755 89.84 177.97C87.7074 179.241 85.4423 180.276 83.085 181.055C81.9146 181.416 80.7068 181.643 79.485 181.73C78.2583 181.793 77.0285 181.701 75.825 181.455C74.6176 181.213 73.4282 180.889 72.265 180.485L72.19 180.28C73.3841 180.69 74.6054 181.016 75.845 181.255C77.0372 181.483 78.2535 181.561 79.465 181.485C80.6726 181.387 81.8652 181.152 83.02 180.785C85.3576 179.99 87.6037 178.947 89.72 177.675L90.575 177.175L91.105 177.255ZM82.655 172.575C80.4118 171.465 78.0679 170.571 75.655 169.905C74.4626 169.598 73.2362 169.444 72.005 169.445C70.9108 169.466 69.8216 169.6 68.755 169.845C68.755 169.935 68.805 170.025 68.835 170.115C69.8766 169.859 70.9428 169.717 72.015 169.69C73.2311 169.674 74.4442 169.814 75.625 170.105C78.0376 170.743 80.3821 171.616 82.625 172.71C83.565 173.14 84.5 173.58 85.44 174.02L85.275 173.805L82.655 172.575ZM100.7 178.32H100.235C99.0165 178.291 97.8024 178.163 96.605 177.935C96.4 177.9 96.2 177.86 96 177.81L94.68 177.665C95.31 177.835 95.95 177.985 96.59 178.11C97.7928 178.352 99.0138 178.492 100.24 178.53C100.91 178.53 101.58 178.53 102.24 178.48L100.7 178.32ZM94.795 191.17C92.3662 191.56 89.9596 192.078 87.585 192.72C85.955 193.14 84.325 193.58 82.69 193.98L83.09 194.155C84.59 193.765 86.09 193.35 87.625 192.945C89.9904 192.285 92.3887 191.749 94.81 191.34C96.7836 191.019 98.7805 190.862 100.78 190.87V190.805C98.7782 190.75 96.7754 190.872 94.795 191.17ZM76.66 162.5C75.1258 162.738 73.5773 162.871 72.025 162.9C70.8141 162.924 69.6029 162.866 68.4 162.725C67.855 162.655 67.31 162.56 66.77 162.445C66.77 162.515 66.805 162.585 66.82 162.655C67.32 162.77 67.855 162.865 68.375 162.935C69.5856 163.086 70.8051 163.154 72.025 163.14C73.6402 163.121 75.2523 162.993 76.85 162.755L76.66 162.5ZM74.945 160.2C72.0984 159.515 69.1401 159.434 66.26 159.96L66.32 160.3C69.282 159.751 72.3283 159.857 75.245 160.61C75.15 160.45 75.045 160.315 74.945 160.18V160.2Z" fill="white"/>
<path d="M96.4049 190.185C97.1999 187.755 98.0149 185.33 98.7199 182.87C99.1199 181.47 99.5299 180.075 99.9149 178.67C99.9149 178.62 99.8399 178.585 99.8199 178.635C98.9299 181.045 98.0349 183.465 97.2549 185.915C96.4749 188.365 95.6699 190.78 94.9249 193.23C94.4982 194.62 94.1149 196.022 93.7749 197.435C93.7749 197.465 93.8149 197.48 93.8249 197.435C94.7999 195.07 95.6049 192.635 96.4049 190.185Z" fill="#263238"/>
<path opacity="0.1" d="M91.7999 197.395C86.3999 195.595 79.1849 192.895 77.2399 190.8C74.0249 187.3 68.1199 169.35 66.3899 160.65C65.1799 154.55 66.9749 152.835 69.5449 154.25C76.6399 167.635 86.4999 187.335 91.7999 197.395Z" fill="black"/>
<path d="M84.0999 198.655L42.2249 203.5C42.2249 202.64 50.5549 160.5 61.3699 153.96C63.4449 152.705 69.0349 153.46 69.8049 154.225C75.6649 159.91 84.6449 198.09 84.0999 198.655Z" fill="#47B88F"/>
<path d="M80.2649 181.655C80.0049 181.688 79.7449 181.713 79.4849 181.73C78.2582 181.793 77.0284 181.701 75.8249 181.455C73.3921 180.915 71.0175 180.14 68.7349 179.14C66.4149 178.195 64.1149 177.17 61.7699 176.33C60.3722 175.82 58.9486 175.385 57.5049 175.025L56.9599 174.9C56.1849 174.725 55.4049 174.58 54.6199 174.475C53.4154 174.313 52.1999 174.248 50.9849 174.28C50.5999 174.28 50.2099 174.32 49.8249 174.36C49.8249 174.285 49.8799 174.21 49.9049 174.13C50.2599 174.1 50.6199 174.08 50.9799 174.07C52.2025 174.044 53.4252 174.121 54.6349 174.3C55.4916 174.427 56.3416 174.593 57.1849 174.8L57.6849 174.935C59.0686 175.294 60.4322 175.726 61.7699 176.23C64.1099 177.09 66.4249 178.07 68.7449 179.005C71.0245 179.984 73.394 180.74 75.8199 181.26C77.0122 181.488 78.2284 181.566 79.4399 181.49C79.6833 181.49 79.9283 181.465 80.1749 181.415C80.2199 181.5 80.2399 181.57 80.2649 181.655ZM76.9299 170.265C76.5049 170.13 76.0749 170.01 75.6449 169.905C74.4526 169.598 73.2261 169.444 71.9949 169.445C70.7699 169.474 69.5521 169.642 68.3649 169.945C65.984 170.6 63.682 171.514 61.4999 172.67C60.0599 173.39 58.6349 174.12 57.1849 174.795L56.9599 174.9C56.2449 175.23 55.5249 175.545 54.7949 175.835C52.8748 176.628 50.8567 177.16 48.7949 177.415C48.7599 177.53 48.7199 177.645 48.6849 177.76C50.8132 177.517 52.8978 176.982 54.8799 176.17C55.7649 175.825 56.6299 175.435 57.4899 175.025L57.6949 174.93C59.0049 174.3 60.2999 173.625 61.5949 172.975C63.759 171.811 66.0422 170.884 68.4049 170.21C69.5769 169.907 70.7797 169.739 71.9899 169.71C73.206 169.694 74.4191 169.834 75.5999 170.125C76.0649 170.235 76.5249 170.36 76.9849 170.5C76.9999 170.405 76.9549 170.335 76.9299 170.265ZM83.2699 193.835C82.4849 194.03 81.6999 194.22 80.9099 194.39C80.7533 194.43 80.5983 194.465 80.4449 194.495C78.0675 195.051 75.6439 195.385 73.2049 195.495C71.9939 195.543 70.7811 195.508 69.5749 195.39C68.3677 195.25 67.1738 195.012 66.0049 194.68C65.2449 194.467 64.4949 194.217 63.7549 193.93C63.5799 193.865 63.4049 193.8 63.2549 193.725C61.8746 193.17 60.5259 192.539 59.2149 191.835C57.0099 190.67 54.8799 189.335 52.7149 188.065C50.7629 186.871 48.716 185.839 46.5949 184.98C46.5949 185.045 46.5599 185.11 46.5449 185.17C48.664 186.006 50.7095 187.018 52.6599 188.195C54.8249 189.45 56.9749 190.75 59.1599 191.935C60.4131 192.622 61.7016 193.243 63.0199 193.795L63.5199 194C64.3299 194.32 65.1449 194.605 65.9749 194.85C67.1471 195.199 68.3462 195.45 69.5599 195.6C70.7722 195.727 71.9915 195.773 73.2099 195.74C75.6591 195.656 78.0949 195.341 80.4849 194.8L80.9349 194.7L81.3849 194.595C82.0399 194.44 82.6949 194.275 83.3499 194.095C83.3099 194 83.2899 193.925 83.2699 193.835ZM83.6399 195.56L81.3599 194.585L80.9099 194.39L80.3549 194.155C79.2181 193.669 78.0486 193.263 76.8549 192.94C75.6731 192.621 74.4649 192.41 73.2449 192.31C70.7927 192.127 68.3271 192.345 65.9449 192.955C65.0249 193.175 64.1149 193.455 63.2049 193.715L62.9849 193.785C61.5999 194.225 60.2199 194.71 58.8449 195.17C56.5367 196.013 54.1447 196.607 51.7099 196.94C50.5072 197.078 49.2927 197.078 48.0899 196.94C46.8893 196.779 45.7135 196.468 44.5899 196.015C44.3399 195.915 44.0899 195.815 43.8399 195.7L43.7949 195.895L44.5299 196.21C45.6682 196.68 46.8608 197.006 48.0799 197.18C49.2948 197.33 50.5228 197.34 51.7399 197.21C54.1906 196.907 56.6003 196.333 58.9249 195.5C60.4499 195 61.9699 194.47 63.4949 194L63.7349 193.93C64.4899 193.705 65.2349 193.495 66.0049 193.31C68.3604 192.703 70.7987 192.482 73.2249 192.655C74.4333 192.755 75.6309 192.957 76.8049 193.26C77.9864 193.574 79.1457 193.967 80.2749 194.435L80.4449 194.505L80.9099 194.7L83.6949 195.865C83.6799 195.755 83.6599 195.66 83.6399 195.56ZM74.3099 162.76C73.5499 162.83 72.8099 162.87 72.0249 162.88C70.814 162.904 69.6029 162.846 68.3999 162.705C67.1959 162.546 66.007 162.288 64.8449 161.935C64.0899 161.705 63.3449 161.435 62.6049 161.14L62.1049 160.935C60.7376 160.352 59.4023 159.696 58.1049 158.97C57.7749 158.79 57.4499 158.605 57.1049 158.415C57.0848 158.442 57.0665 158.471 57.0499 158.5C57.3799 158.695 57.7149 158.885 58.0499 159.07C59.2921 159.778 60.5705 160.421 61.8799 160.995C62.0449 161.075 62.2049 161.145 62.3799 161.21C63.1849 161.545 63.9999 161.85 64.8249 162.105C65.9904 162.473 67.1845 162.744 68.3949 162.915C69.6056 163.066 70.825 163.134 72.0449 163.12C72.8399 163.12 73.6349 163.075 74.4299 163.01L74.3099 162.76ZM73.1049 159.825C72.7849 159.78 72.4699 159.74 72.1499 159.705C69.7023 159.472 67.233 159.641 64.8399 160.205C63.9149 160.405 62.9999 160.65 62.0849 160.92L61.8699 160.98C60.4749 161.39 59.0899 161.855 57.7049 162.29C56.5849 162.645 55.4599 162.985 54.3249 163.265L54.1449 163.625C55.3649 163.335 56.5699 162.975 57.7699 162.625C59.2999 162.125 60.8249 161.65 62.3599 161.215L62.6049 161.145C63.3649 160.93 64.1049 160.735 64.8899 160.565C67.2561 160.003 69.6974 159.825 72.1199 160.04C72.5049 160.08 72.8849 160.13 73.2649 160.19L73.1049 159.825Z" fill="white"/>
<path d="M55.155 158.355C47.375 164.355 26.87 188.535 31.155 194.275C35.44 200.015 64.82 198.105 73.395 195.635C75.945 194.9 69.395 178.68 66.68 177.875C64.415 177.205 51.68 180.66 51.465 179.92C51.205 179.09 54.025 173.725 58.565 163.92C63.81 152.62 58.595 155.71 55.155 158.355Z" fill="#AD6359"/>
<path d="M79.21 175.06C85.085 175.21 86.57 176.155 91.6 173.645C94.9 172 97.365 173.4 95.125 176.51C91.455 181.6 83.835 183.01 81.05 182.72L79.21 175.06Z" fill="#AD6359"/>
<path d="M63.0349 178.065C63.0349 178.065 70.0849 175.565 76.3599 175.09C80.7049 174.775 90.2249 175.135 97.6299 185.815C99.3849 188.35 100.09 193.205 95.7199 190.11C92.6149 187.91 91.3099 185.575 89.2749 184.61C89.2749 184.61 89.4349 190.895 86.8299 192.555C84.5507 194.005 82.1714 195.292 79.7099 196.405C79.4036 196 79.1231 195.575 78.8699 195.135C78.8699 195.135 76.2899 196.455 72.0299 195.33L63.0349 178.065Z" fill="#AD6359"/>
<path d="M80.5549 175.45C82.3799 176.82 86.1949 179.79 88.4699 183.31C90.9999 187.215 94.8199 195.42 91.9199 197.255C89.7899 198.605 88.0549 195.6 88.0549 195.6C88.0549 195.6 88.9199 199.325 86.7299 200.1C84.7299 200.825 83.5349 198.42 83.5349 198.42C83.5349 198.42 83.6699 200.77 81.6149 201.1C79.1449 201.495 79.2649 196.505 76.4149 194.745C75.7749 194.37 80.5549 175.45 80.5549 175.45Z" fill="#AD6359"/>
<path d="M83.9 185.29C85.4 186.865 87.9 191.29 88.105 195.515C88.105 195.61 88.04 195.665 88.015 195.58C87.0522 192.003 85.6587 188.556 83.865 185.315C83.865 185.315 83.885 185.275 83.9 185.29Z" fill="#263238"/>
<path d="M80.03 187.96C81.19 189.46 83.56 194.145 83.615 198.415C83.615 198.51 83.545 198.56 83.525 198.475C82.7483 194.862 81.5658 191.348 80 188C80 188 80 187.94 80.03 187.96Z" fill="#263238"/>
<path d="M89.2799 184.59C91.0599 185.45 92.1249 186.59 93.5249 187.93C94.2079 188.612 94.9291 189.255 95.6849 189.855C96.3799 190.395 97.3999 191.205 98.3199 190.69C98.5427 190.522 98.7156 190.296 98.8204 190.037C98.9252 189.778 98.9578 189.496 98.9149 189.22C98.8153 188.422 98.5873 187.645 98.2399 186.92C98.2399 186.89 98.2749 186.865 98.2899 186.92C98.6306 187.584 98.902 188.281 99.0999 189C99.2292 189.496 99.2031 190.02 99.0249 190.5C98.5799 191.5 97.3399 191.42 96.5249 191C96.0432 190.727 95.5894 190.407 95.1699 190.045C94.7599 189.71 94.3649 189.355 93.9799 188.99C93.1899 188.24 92.4449 187.445 91.6599 186.69C90.8979 185.971 90.0894 185.303 89.2399 184.69C89.2266 184.685 89.216 184.674 89.2104 184.661C89.2048 184.648 89.2046 184.633 89.2099 184.62C89.2152 184.607 89.2256 184.596 89.2387 184.591C89.2518 184.585 89.2666 184.585 89.2799 184.59Z" fill="#263238"/>
<path d="M92.1099 191.825C91.3109 189.364 90.3505 186.959 89.2349 184.625C89.2309 184.619 89.2295 184.612 89.2309 184.605C89.2323 184.598 89.2364 184.592 89.2424 184.588C89.2484 184.584 89.2557 184.582 89.2627 184.584C89.2697 184.585 89.2759 184.589 89.2799 184.595C90.5099 186.22 92.2449 190.285 92.5999 191.55C92.9549 192.815 93.3199 194.395 93.0999 195.69C92.7749 197.645 91.4149 197.8 90.9199 197.82C90.3334 197.824 89.7628 197.63 89.2999 197.27C88.7664 196.805 88.3327 196.237 88.0249 195.6C88.0249 195.57 88.0499 195.54 88.0699 195.57C88.6199 196.455 89.6199 197.4 90.7099 197.44C90.9483 197.455 91.1873 197.422 91.413 197.344C91.6387 197.266 91.8467 197.144 92.0249 196.985C92.3927 196.562 92.5967 196.021 92.5999 195.46C92.6443 194.229 92.4786 193 92.1099 191.825Z" fill="#263238"/>
<path d="M63.0349 178.065L68.9349 198.61C68.9349 198.61 32.2049 200.705 30.1699 194.035C28.1349 187.365 45.8799 165.5 53.2399 159.5C61.7699 152.55 62.2399 155.47 59.4549 162.425C56.5449 169.705 51.5399 180.105 51.5399 180.105L63.0349 178.065Z" fill="#47B88F"/>
<path d="M54.2948 174.255L54.2148 174.425C53.143 174.299 52.0636 174.251 50.9848 174.28C49.7753 174.333 48.5709 174.468 47.3798 174.685C44.9822 175.137 42.6308 175.806 40.3548 176.685L39.9098 176.855C39.0048 177.19 38.1048 177.55 37.2048 177.92L37.4898 177.52C38.1348 177.25 38.7798 176.985 39.4348 176.725L39.8648 176.56L40.2948 176.395C42.5848 175.521 44.9519 174.865 47.3648 174.435C48.5665 174.227 49.781 174.102 50.9998 174.06C52.1015 174.041 53.203 174.106 54.2948 174.255ZM47.7398 177.5C46.531 177.571 45.3183 177.539 44.1148 177.405C42.8962 177.265 41.6885 177.043 40.4998 176.74L40.3198 176.695L39.8198 176.57L38.3998 176.195L38.2298 176.425L39.3848 176.735L39.8548 176.865L40.4398 177.02C41.6313 177.336 42.8422 177.573 44.0648 177.73C45.2809 177.874 46.5073 177.911 47.7298 177.84C49.5482 177.727 51.3446 177.381 53.0748 176.81C53.1398 176.67 53.2048 176.53 53.2798 176.38C51.4922 177.002 49.6286 177.378 47.7398 177.5ZM67.9398 195.13C67.2848 195 66.6298 194.845 65.9848 194.665C65.2248 194.452 64.4748 194.202 63.7348 193.915C63.5598 193.85 63.3848 193.785 63.2348 193.71C61.8545 193.155 60.5058 192.524 59.1948 191.82C56.9898 190.655 54.8598 189.32 52.6948 188.05C50.5734 186.742 48.3315 185.64 45.9998 184.76C44.8423 184.349 43.638 184.083 42.4148 183.97C41.1927 183.883 39.9647 183.937 38.7548 184.13C36.5276 184.517 34.3484 185.142 32.2548 185.995C32.1815 186.135 32.1115 186.275 32.0448 186.415C34.2213 185.516 36.485 184.846 38.7998 184.415C39.9954 184.215 41.2099 184.151 42.4198 184.225C43.6293 184.323 44.8219 184.572 45.9698 184.965C48.2972 185.823 50.536 186.905 52.6548 188.195C54.8198 189.45 56.9698 190.75 59.1548 191.935C60.408 192.622 61.6965 193.243 63.0148 193.795L63.5148 194C64.3248 194.32 65.1398 194.605 65.9698 194.85C66.6448 195.05 67.3298 195.22 68.0198 195.35L67.9398 195.13ZM67.2348 192.675C66.8098 192.755 66.3798 192.845 65.9548 192.95C65.0348 193.17 64.1248 193.45 63.2148 193.71L62.9948 193.78C61.6098 194.22 60.2298 194.705 58.8548 195.165C56.5466 196.008 54.1546 196.602 51.7198 196.935C50.5171 197.072 49.3026 197.072 48.0998 196.935C46.8992 196.774 45.7234 196.463 44.5998 196.01C42.3034 195.036 40.1066 193.842 38.0398 192.445C35.9248 191.08 33.8248 189.67 31.6748 188.375L31.2348 188.115L31.1948 188.215L31.6298 188.47C33.7898 189.75 35.8648 191.195 37.9798 192.57C40.0472 193.985 42.2436 195.202 44.5398 196.205C45.6781 196.675 46.8707 197.001 48.0898 197.175C49.3047 197.325 50.5327 197.335 51.7498 197.205C54.197 196.902 56.6032 196.331 58.9248 195.5C60.4498 195 61.9698 194.47 63.4948 194L63.7348 193.93C64.4898 193.705 65.2348 193.495 66.0048 193.31C66.4448 193.205 66.8898 193.105 67.3348 193.025L67.2348 192.675ZM58.0798 158.965C57.2898 158.525 56.5048 158.065 55.7298 157.595L55.6398 157.66C56.4365 158.14 57.2365 158.608 58.0398 159.065C58.7732 159.482 59.5148 159.875 60.2648 160.245C60.2752 160.201 60.2886 160.157 60.3048 160.115C59.5548 159.765 58.8148 159.375 58.0798 158.97V158.965ZM57.7048 162.3C55.3821 163.103 52.9801 163.654 50.5398 163.945C49.875 164.007 49.2074 164.032 48.5398 164.02C48.4648 164.1 48.3848 164.18 48.3098 164.265C49.0632 164.302 49.8182 164.288 50.5698 164.225C53.0284 163.956 55.4497 163.416 57.7898 162.615L59.6298 162.035L59.7848 161.645L57.7048 162.3Z" fill="white"/>
<path d="M39.9349 183.405C41.7688 182.544 43.6619 181.816 45.5999 181.225C47.5191 180.651 49.4776 180.218 51.4599 179.93C52.5899 179.755 53.7249 179.635 54.8599 179.505C54.8949 179.505 54.8999 179.555 54.8599 179.56C52.8695 179.86 50.8979 180.274 48.9549 180.8C47.0182 181.303 45.0932 181.843 43.1799 182.42C42.0949 182.745 41.0299 183.12 39.9599 183.48C39.9149 183.5 39.8899 183.43 39.9349 183.405Z" fill="#263238"/>
<path d="M62.95 178C62.765 178 52.55 179.615 52.205 179.71C52.27 179.57 54.86 174.71 55.245 173.995C55.285 173.925 55.32 173.855 55.355 173.78C55.59 173.475 55.825 173.17 56.045 172.855L56.885 171.63L56 172.795C55.865 172.975 55.73 173.165 55.605 173.35C55.86 172.85 56.105 172.35 56.365 171.85C56.77 171.035 57.145 170.215 57.515 169.39C57.515 169.36 57.515 169.345 57.475 169.39C56.715 170.81 55.905 172.2 55.14 173.615C54.375 175.03 51.465 180.23 51.48 180.225C51.495 180.22 62.775 178.225 62.98 178.175C63.0032 178.171 63.0239 178.158 63.0375 178.139C63.0511 178.12 63.0565 178.096 63.0525 178.072C63.0486 178.049 63.0355 178.029 63.0163 178.015C62.9971 178.001 62.9732 177.996 62.95 178Z" fill="#263238"/>
<path d="M61.545 190.53C60.9 188.24 60.275 185.94 59.545 183.675C59.13 182.385 58.72 181.095 58.295 179.81C58.295 179.76 58.195 179.785 58.205 179.835C58.76 182.16 59.325 184.49 59.99 186.79C60.655 189.09 61.285 191.37 61.99 193.65C62.3834 194.943 62.815 196.225 63.285 197.495C63.285 197.52 63.335 197.495 63.33 197.495C62.835 195.135 62.195 192.835 61.545 190.53Z" fill="#263238"/>
<path d="M69.345 199C69.085 198.355 68.78 197.435 68.495 196.805C68.42 196.635 68.2999 196.65 68.3499 196.805C68.535 197.38 68.66 198.015 68.8499 198.605L67.3099 198.65L65.525 198.73C64.365 198.777 63.1983 198.81 62.025 198.83C59.6683 198.873 57.3116 198.873 54.955 198.83C50.2243 198.739 45.5014 198.406 40.805 197.83C39.495 197.66 38.185 197.47 36.88 197.235C35.575 197 34.135 196.735 33.06 196.41C33.025 196.41 33.01 196.46 33.06 196.475C34.1232 196.895 35.2184 197.229 36.3349 197.475C37.5099 197.73 38.6849 197.95 39.8699 198.135C42.2299 198.495 44.61 198.735 46.985 198.905C51.705 199.25 56.4399 199.405 61.1699 199.335C62.4949 199.335 63.8249 199.29 65.1699 199.245C65.8349 199.22 66.5049 199.2 67.1699 199.165C67.8349 199.13 69.3899 199.095 69.345 199Z" fill="#263238"/>
<path d="M68.7849 162.315C66.3449 162.62 62.6499 158.535 61.3549 155.41C61.2649 155.195 61.8049 153.095 62.3549 150.515C62.6749 148.95 62.9949 147.195 63.1699 145.575C63.2049 145.24 73.0699 149.15 73.0699 149.15C72.2684 151.113 71.7109 153.166 71.4099 155.265C71.3898 155.488 71.3898 155.712 71.4099 155.935C71.4124 155.973 71.4124 156.012 71.4099 156.05C71.4699 157.335 71.1499 162 68.7849 162.315Z" fill="#AD6359"/>
<path d="M63.78 145.685C63.955 148.475 64.94 155.28 70.35 155.995C70.698 156.042 71.0491 156.06 71.4 156.05C71.4052 156.012 71.4052 155.973 71.4 155.935C71.3825 155.712 71.3825 155.488 71.4 155.265C71.7046 153.165 72.2637 151.11 73.065 149.145C73.065 149.145 65.945 146.325 63.78 145.685Z" fill="#263238"/>
<path d="M65.58 132C63.365 135.08 61.81 145.61 63.5 148.65C65.955 153.06 71.645 155.335 75.815 152.005C79.855 148.775 81.635 135.005 79.59 132.075C76.58 127.755 68.85 127.46 65.58 132Z" fill="#AD6359"/>
<path d="M73.23 141.36C73.23 141.335 73.17 141.39 73.17 141.42C73.11 142.135 72.925 142.92 72.25 143.105V143.145C73.05 143.125 73.29 142.05 73.23 141.36Z" fill="#263238"/>
<path d="M72.6799 140.545C71.5449 140.325 71.1799 142.615 72.2449 142.815C73.3099 143.015 73.6299 140.725 72.6799 140.545Z" fill="#263238"/>
<path d="M77.1948 142C77.1948 141.97 77.2448 142.04 77.2398 142.07C77.1098 142.775 77.0798 143.605 77.6798 143.94C77.6798 143.94 77.6798 143.985 77.6798 143.975C76.9048 143.74 76.9598 142.64 77.1948 142Z" fill="#263238"/>
<path d="M77.945 141.35C79.095 141.44 78.835 143.74 77.765 143.655C76.695 143.57 77 141.275 77.945 141.35Z" fill="#263238"/>
<path d="M71.9049 138.57C72.2213 138.588 72.5385 138.588 72.8549 138.57C73.1893 138.613 73.5285 138.545 73.8199 138.375C73.9002 138.303 73.9552 138.208 73.9768 138.102C73.9985 137.997 73.9855 137.887 73.9399 137.79C73.814 137.615 73.644 137.477 73.4473 137.389C73.2506 137.301 73.0341 137.267 72.8199 137.29C72.3785 137.267 71.9441 137.408 71.5999 137.685C71.5215 137.75 71.4648 137.837 71.4373 137.935C71.4098 138.033 71.4128 138.137 71.446 138.233C71.4791 138.329 71.5408 138.413 71.6228 138.473C71.7048 138.533 71.8032 138.567 71.9049 138.57Z" fill="#263238"/>
<path d="M79.2498 139.84C78.9518 139.731 78.6597 139.605 78.3748 139.465C78.0494 139.375 77.7628 139.18 77.5598 138.91C77.5142 138.813 77.5013 138.703 77.5229 138.598C77.5445 138.492 77.5995 138.397 77.6798 138.325C77.8623 138.211 78.0718 138.147 78.2869 138.14C78.5021 138.133 78.7153 138.183 78.9048 138.285C79.3227 138.435 79.6702 138.734 79.8798 139.125C79.9344 139.216 79.9587 139.322 79.949 139.428C79.9394 139.533 79.8964 139.633 79.8263 139.713C79.7561 139.793 79.6624 139.848 79.5588 139.871C79.4552 139.893 79.347 139.883 79.2498 139.84Z" fill="#263238"/>
<path d="M71.0349 147.765C71.1799 147.96 71.3149 148.21 71.5649 148.265C71.8299 148.298 72.0989 148.276 72.3549 148.2C72.3591 148.202 72.3627 148.205 72.3651 148.209C72.3676 148.213 72.369 148.218 72.369 148.223C72.369 148.227 72.3676 148.232 72.3651 148.236C72.3627 148.24 72.3591 148.243 72.3549 148.245C72.2324 148.368 72.0791 148.456 71.911 148.499C71.7429 148.542 71.5664 148.539 71.3999 148.49C71.2605 148.43 71.1421 148.33 71.0593 148.203C70.9766 148.076 70.9333 147.927 70.9349 147.775C70.9549 147.745 70.9999 147.735 71.0349 147.765Z" fill="#263238"/>
<path d="M72.1049 145.76C72.2424 146.067 72.4416 146.343 72.6902 146.57C72.9388 146.797 73.2314 146.971 73.5499 147.08C73.8286 147.178 74.1198 147.237 74.4149 147.255C74.4714 147.26 74.5283 147.26 74.5849 147.255H74.7399C74.7791 147.254 74.8169 147.24 74.8475 147.216C74.8782 147.192 74.9001 147.158 74.9099 147.12C74.9124 147.097 74.9124 147.073 74.9099 147.05V146.985C75.0049 146.445 75.0799 145.605 75.0799 145.605C75.2649 145.735 76.2099 146.35 76.2399 146.06C76.4599 143.68 76.7099 141.03 76.4249 138.615C76.4249 138.598 76.418 138.581 76.4059 138.569C76.3937 138.557 76.3771 138.55 76.3599 138.55C76.3427 138.55 76.3261 138.557 76.3139 138.569C76.3017 138.581 76.2949 138.598 76.2949 138.615C75.9899 140.895 76.0899 143.215 75.7949 145.51C75.4573 145.295 75.0924 145.127 74.7099 145.01C74.6299 145.01 74.5949 146.635 74.5299 146.875C74.532 146.883 74.532 146.892 74.5299 146.9C73.5949 146.875 72.9499 146.49 72.1549 145.74C72.1349 145.655 72.0699 145.695 72.1049 145.76Z" fill="#263238"/>
<path d="M74.135 146.925C73.7751 147.27 73.3325 147.516 72.85 147.64C72.5854 147.699 72.3087 147.673 72.06 147.565C71.52 147.33 71.56 146.81 71.755 146.38C71.8493 146.153 71.9701 145.938 72.115 145.74C72.6439 146.341 73.352 146.757 74.135 146.925Z" fill="#263238"/>
<path d="M72.85 147.64C72.5854 147.699 72.3087 147.673 72.06 147.565C71.52 147.33 71.56 146.81 71.755 146.38C72.0527 146.436 72.3229 146.591 72.5216 146.82C72.7204 147.048 72.8361 147.337 72.85 147.64Z" fill="#FF98B9"/>
<path opacity="0.2" d="M63 140.375C63.685 140.375 65.97 138.905 66.5 137.205C66.855 136.075 68.47 130.655 68.69 129.575C67.4043 130.074 66.2862 130.927 65.465 132.035C64.5 133.355 63.5 137.455 63 140.375Z" fill="#263238"/>
<path d="M76.3949 134.755C75.9357 135.13 75.3888 135.382 74.8055 135.488C74.2222 135.594 73.6215 135.55 73.0599 135.36C72.4859 135.165 71.9714 134.827 71.5653 134.377C71.1592 133.927 70.875 133.381 70.7399 132.79C70.7399 132.755 70.6799 132.765 70.6849 132.79C70.7698 133.424 71.0268 134.022 71.4279 134.52C71.8289 135.018 72.3588 135.397 72.9599 135.615C73.5624 135.802 74.2036 135.825 74.8183 135.684C75.433 135.543 75.9993 135.241 76.4599 134.81C76.4633 134.801 76.4639 134.792 76.4616 134.783C76.4593 134.773 76.4542 134.765 76.447 134.759C76.4399 134.753 76.431 134.75 76.4216 134.749C76.4123 134.748 76.4029 134.75 76.3949 134.755Z" fill="#263238"/>
<path d="M74.3649 125.66C72.3649 125.35 70.3649 126.12 69.3649 127.345C68.8208 128.041 68.5314 128.902 68.5449 129.785C68.5449 129.82 68.6149 129.825 68.6199 129.785C68.714 129.022 69.0115 128.298 69.4813 127.69C69.951 127.081 70.5756 126.61 71.2899 126.325C72.0761 125.989 72.9297 125.839 73.7834 125.889C74.6372 125.938 75.4678 126.185 76.2099 126.61C76.9345 127.009 77.4943 127.652 77.7899 128.425C77.7899 128.5 77.9749 128.48 77.9549 128.4C77.6549 127.07 76.1699 125.945 74.3649 125.66Z" fill="#263238"/>
<path d="M84.695 132.69C84.528 131.808 84.0286 131.024 83.3 130.5C82.255 129.59 80.92 129.445 79.595 129.325C79.56 129.325 79.555 129.375 79.595 129.38C80.7341 129.4 81.8452 129.736 82.805 130.35C83.5743 130.908 84.1299 131.713 84.38 132.63C84.5079 133.04 84.5508 133.472 84.506 133.899C84.4612 134.326 84.3297 134.739 84.1195 135.114C83.9093 135.488 83.6249 135.816 83.2837 136.077C82.9425 136.337 82.5516 136.526 82.135 136.63C81.5985 136.799 81.0339 136.86 80.4736 136.81C79.9134 136.761 79.3684 136.601 78.87 136.34C78.83 136.34 78.79 136.375 78.83 136.395C80.645 137.395 83.055 136.995 84.235 135.365C84.4905 134.974 84.6631 134.535 84.7422 134.075C84.8213 133.615 84.8053 133.144 84.695 132.69Z" fill="#263238"/>
<path d="M64.4649 133.89C64.4649 133.89 63.2299 129.995 65.1849 128.23C66.2899 127.23 69.2249 127.925 69.2249 127.925C69.7235 127.414 70.3181 127.007 70.9744 126.726C71.6308 126.446 72.3361 126.298 73.0499 126.29C75.6349 126.175 79.9549 129.345 79.9549 129.345C79.9549 129.345 82.0599 129.48 83.2549 130.74C84.8949 132.465 84.3949 135.855 81.0249 136.79C78.6549 137.45 76.0599 134.98 76.0599 134.98C75.7699 134.98 72.5599 136.185 70.8199 133.19C70.8199 133.19 68.7449 134.45 67.3449 133.04C67.0089 133.459 66.5529 133.765 66.0381 133.916C65.5233 134.068 64.9743 134.059 64.4649 133.89Z" fill="#263238"/>
<path d="M64.9549 140.81C64.9549 140.81 63.7199 136.865 61.9999 137.205C60.2799 137.545 60.4999 142.76 61.9999 143.95C62.1842 144.115 62.3998 144.241 62.634 144.32C62.8682 144.4 63.116 144.431 63.3625 144.413C63.6091 144.394 63.8494 144.326 64.0689 144.212C64.2884 144.098 64.4826 143.941 64.6399 143.75L64.9549 140.81Z" fill="#AD6359"/>
<path d="M62.0999 138.7C62.0699 138.7 62.0549 138.725 62.0999 138.74C63.1499 139.61 63.4299 140.93 63.5099 142.24C63.4801 142.096 63.4186 141.959 63.3299 141.842C63.2413 141.724 63.1277 141.627 62.9972 141.558C62.8668 141.489 62.7227 141.45 62.5753 141.444C62.428 141.437 62.281 141.463 62.1449 141.52C62.1099 141.52 62.1449 141.59 62.1449 141.595C62.378 141.596 62.6052 141.668 62.7957 141.802C62.9863 141.936 63.1309 142.126 63.2099 142.345C63.3371 142.715 63.4243 143.097 63.4699 143.485C63.4699 143.61 63.7049 143.615 63.7049 143.485V143.455C64.2149 141.905 63.6999 139.375 62.0999 138.7Z" fill="#263238"/>
<path d="M118.97 202.75H75.595V204.695H118.97V202.75Z" fill="#C7C7C7"/>
<path d="M118.97 202.75V204.69H89.4849L90.9699 202.75H118.97Z" fill="#A6A6A6"/>
<path d="M92.845 204.695H135.12L138.64 175.98H96.365L92.845 204.695Z" fill="#C7C7C7"/>
<path d="M113.17 190.34C113.161 190.674 113.218 191.007 113.34 191.318C113.461 191.63 113.644 191.914 113.877 192.153C114.11 192.393 114.389 192.583 114.697 192.713C115.005 192.843 115.336 192.91 115.67 192.91C116.355 192.908 117.013 192.638 117.502 192.157C117.992 191.677 118.274 191.025 118.29 190.34C118.3 190.003 118.242 189.667 118.119 189.353C117.996 189.039 117.811 188.753 117.574 188.513C117.338 188.272 117.055 188.082 116.744 187.953C116.432 187.825 116.097 187.761 115.76 187.765C115.078 187.774 114.427 188.048 113.944 188.528C113.46 189.009 113.183 189.658 113.17 190.34Z" fill="white"/>
<path d="M179.335 61.8101V86.0251H203.555V61.8101H179.335ZM181.165 84.2001V63.6351H201.725V84.2001H181.165Z" fill="#47B88F"/>
<path d="M193.36 66.645H134.37V127.55H193.36V66.645Z" fill="#455A64"/>
<path d="M118.55 88.5601V119.88H149.87V88.5601H118.55ZM120.915 117.5V90.9251H147.5V117.5H120.915Z" fill="#A6A6A6"/>
<path d="M160.12 83.155C155.29 86.755 142.555 99.925 141.89 100.85C140.155 103.26 138.17 115.31 145.47 113.96C152.77 112.61 161.775 92.69 164.54 85.925C166 82.34 164.065 80.215 160.12 83.155Z" fill="#47B88F"/>
<path opacity="0.1" d="M148.025 112.815C154.745 108.225 162.09 91.9151 164.525 85.9251C165.42 83.7401 165.025 82.0951 163.725 81.8151L148.025 112.815Z" fill="black"/>
<path d="M147.635 85.59C147.105 83.785 134.42 85.955 134.83 88.695C136.33 98.73 139.42 108.63 140.83 110.765C142.715 113.57 146.72 113.02 148.27 111.305C150.44 108.925 148.16 87.38 147.635 85.59Z" fill="#AD6359"/>
<path d="M135 89.76C134.5 88.26 132.68 81.13 132.62 79.04C132.56 76.95 132.84 70.91 134.44 70.705C136.04 70.5 136.1 72.27 136.1 72.27C136.1 72.27 136.6 69.74 138.245 69.68C139.89 69.62 139.88 72.38 139.88 72.38C139.88 72.38 140.6 69.82 142.23 69.88C143.86 69.94 143.395 72.715 143.395 72.715C143.395 72.715 143.95 70.345 145.27 70.955C146.86 71.69 145.35 75.955 145.585 78.25C145.64 78.75 147.425 88.79 147.425 88.79L135 89.76Z" fill="#AD6359"/>
<path d="M143.445 72.47C142.34 75.605 142.4 77.165 143.13 80.355C143.13 80.415 143.055 80.45 143.035 80.39C142.035 77.33 141.68 75.39 143.3 72.39C143.375 72.265 143.5 72.32 143.445 72.47Z" fill="#263238"/>
<path d="M140 72.135C139.14 75.485 139.185 77.18 139.705 80.575C139.705 80.625 139.63 80.64 139.62 80.575C138.835 77.285 138.52 75.335 139.825 72.075C139.87 71.97 140.025 72 140 72.135Z" fill="#263238"/>
<path d="M136.145 72.44C135.545 75.75 135.515 77.61 136.44 80.84C136.446 80.8553 136.446 80.8723 136.439 80.8873C136.433 80.9023 136.42 80.9141 136.405 80.92C136.39 80.926 136.373 80.9257 136.358 80.9191C136.343 80.9125 136.331 80.9003 136.325 80.885C135.06 77.68 135.08 75.355 136.04 72.435C136.11 72.235 136.18 72.235 136.145 72.44Z" fill="#263238"/>
<path d="M147.945 90.8149C147.945 90.8149 150.03 87.2099 150.595 85.4249C151.16 83.6399 150.825 76.2149 149.22 76.1949C147.14 76.1949 146.49 80.4949 146.45 82.6549C146.45 82.6549 141.645 82.5949 140.505 85.5999C139.365 88.6049 147.945 90.8149 147.945 90.8149Z" fill="#AD6359"/>
<path d="M148.645 76.375C146.735 77.72 146.865 80.56 146.645 82.65C146.644 82.681 146.636 82.7115 146.621 82.7385C146.606 82.7656 146.584 82.7886 146.558 82.8054C146.532 82.8221 146.502 82.8322 146.471 82.8348C146.44 82.8373 146.409 82.8323 146.38 82.82C144.38 82.93 141.555 83.67 140.43 85.48C140.423 85.4878 140.413 85.493 140.402 85.4947C140.391 85.4965 140.38 85.4947 140.371 85.4896C140.361 85.4845 140.353 85.4764 140.349 85.4665C140.344 85.4567 140.343 85.4456 140.345 85.435C141.285 83.33 143.985 82.375 146.2 82.4C146.37 80.25 146.365 77.4 148.615 76.355L148.645 76.375Z" fill="#263238"/>
<path d="M150.675 89.765L134.91 94.925C134.91 94.925 138.41 111.79 142.08 113.495C144.53 114.64 147.995 114.93 149.435 110.035C150.875 105.14 150.675 89.765 150.675 89.765Z" fill="#47B88F"/>
<path d="M150.79 91.785C150.94 92.778 151.015 93.7808 151.015 94.785C151.045 95.785 151.045 96.785 151.015 97.785C150.923 99.7982 150.694 101.803 150.33 103.785C150.135 104.9 149.895 106.005 149.675 107.11C149.675 107.14 149.625 107.11 149.635 107.11C149.835 106.11 149.97 105.11 150.09 104.11C150.21 103.11 150.305 102.11 150.38 101.11C150.52 99.11 150.625 97.145 150.675 95.16C150.675 94.605 150.675 94.05 150.675 93.49C150.675 92.93 150.675 92.335 150.705 91.76C150.71 91.755 150.78 91.735 150.79 91.785Z" fill="#263238"/>
<path d="M149.83 93.69C149.405 93.775 148.99 93.92 148.58 94.045L147.305 94.425C146.445 94.68 145.585 94.95 144.73 95.225C143.025 95.775 141.315 96.315 139.615 96.895C139.145 97.05 138.68 97.21 138.22 97.395C137.76 97.58 137.26 97.79 136.77 97.97C136.74 97.97 136.77 98.02 136.77 98.015C137.2 97.89 137.635 97.8 138.065 97.68C138.495 97.56 138.94 97.425 139.375 97.29C140.235 97.0233 141.09 96.75 141.94 96.47C143.62 95.915 145.3 95.37 146.965 94.78L148.36 94.28C148.86 94.11 149.36 93.96 149.82 93.745C149.865 93.725 149.855 93.685 149.83 93.69Z" fill="#263238"/>
<path d="M187.5 127.55H150.45C150.36 127.445 149.29 123.13 149.84 120.405C151.9 110.215 160.52 84.555 163.34 80.945C164.11 79.97 166.605 79.72 168.725 80.005C169.278 80.0734 169.823 80.1906 170.355 80.355H170.41C170.838 80.4859 171.24 80.6888 171.6 80.955C177.455 85.725 188.15 117.505 188.84 120.65C189.44 123.39 187.655 127.4 187.5 127.55Z" fill="#47B88F"/>
<path opacity="0.1" d="M178 126.175L177.145 121.825L177.265 121.88C176.265 121.78 171.56 120.495 169.375 117.115C167.65 114.45 167.07 110.9 167.07 110.9L167.285 111.08L156.965 111.22L157.21 110.98C157.177 111.834 157.085 112.684 156.935 113.525C156.79 114.376 156.569 115.213 156.275 116.025C155.995 116.847 155.586 117.62 155.065 118.315C154.534 119.029 153.833 119.598 153.025 119.97L153.175 119.785L151.9 126.5L151.665 126.22C156.02 126.175 160.37 126.175 164.75 126.18L178 126.175ZM178 126.175L164.92 126.455C160.53 126.545 156.105 126.64 151.685 126.685H151.4L151.455 126.405L152.675 119.67L152.7 119.545L152.825 119.485C153.55 119.144 154.179 118.629 154.655 117.985C155.137 117.326 155.519 116.6 155.79 115.83C156.081 115.054 156.297 114.252 156.435 113.435C156.589 112.621 156.684 111.797 156.72 110.97V110.73H156.95L167.27 110.65H167.45C167.45 110.65 167.475 110.785 167.485 110.83C167.755 113.2 169.255 116.725 170.185 117.705C172.05 119.705 175.27 121.385 177.185 121.705H177.27L177.3 121.775L178 126.175Z" fill="black"/>
<path d="M175.955 84.375C185.545 93.285 193.42 102.56 193.345 105.785C193.26 109.335 182.695 118.415 177.245 121.645C176.795 121.91 171.745 119.725 170.245 117.795C168.15 115.095 167.395 110.89 167.48 110.83C168.86 109.83 178.58 104.075 178.58 103.33C178.58 102.255 173.58 93.925 171.145 88.33C168.55 82.42 171.5 80.25 175.955 84.375Z" fill="#AD6359"/>
<path d="M179.325 123.665L167.755 109.58C167.755 109.58 178 103.555 178 103C178 102.145 173.38 94.2351 171.155 88.9301C168.38 82.3101 170.325 78.8251 176.39 84.5001C183.635 91.2701 193.165 102.1 193.85 105.41C194.535 108.72 179.325 123.665 179.325 123.665Z" fill="#47B88F"/>
<path d="M181.58 119.835C181.204 119.311 180.796 118.81 180.36 118.335C179.995 117.885 179.635 117.425 179.265 116.98C178.455 116.005 177.65 115.03 176.835 114.06C176.02 113.09 175.215 112.12 174.395 111.16C173.575 110.2 172.785 109.22 171.895 108.315C171.888 108.309 171.879 108.306 171.87 108.307C171.861 108.307 171.852 108.31 171.845 108.316C171.838 108.322 171.833 108.33 171.831 108.339C171.83 108.348 171.831 108.357 171.835 108.365C172.51 109.425 173.295 110.42 174.06 111.42C174.825 112.42 175.6 113.365 176.395 114.315C177.19 115.265 178.045 116.23 178.895 117.17C179.3 117.62 179.725 118.06 180.145 118.5C180.571 118.994 181.029 119.46 181.515 119.895C181.56 119.895 181.6 119.865 181.58 119.835Z" fill="#263238"/>
<path d="M177.525 121.5C178.185 122.18 178.83 122.875 179.45 123.59H179.21C180.51 122.195 181.84 120.83 183.175 119.465L185.175 117.435L187.175 115.4C186.041 116.941 184.812 118.411 183.495 119.8C182.185 121.195 180.835 122.545 179.41 123.8L179.275 123.92L179.17 123.785C178.617 123.025 178.068 122.263 177.525 121.5Z" fill="#263238"/>
<path d="M168.32 110.27L167.725 109.61L167.695 109.575L167.735 109.545L172.9 106.21C173.765 105.66 174.63 105.11 175.48 104.55C175.91 104.265 176.33 103.98 176.75 103.69C176.955 103.54 177.16 103.395 177.36 103.24C177.455 103.165 177.555 103.085 177.64 103.01C177.679 102.979 177.714 102.944 177.745 102.905C177.745 102.905 177.745 102.935 177.745 102.905C177.694 102.679 177.622 102.458 177.53 102.245C177.435 102.01 177.335 101.78 177.225 101.55C177.015 101.085 176.79 100.625 176.565 100.17L175.18 97.43C174.26 95.595 173.295 93.785 172.5 91.89C173 92.795 173.5 93.685 174 94.57L175.5 97.255C176 98.145 176.5 99.055 176.955 99.965C177.19 100.425 177.425 100.885 177.645 101.35C177.755 101.58 177.865 101.82 177.965 102.06C178.083 102.314 178.17 102.581 178.225 102.855C178.237 102.916 178.237 102.979 178.225 103.04C178.209 103.102 178.18 103.16 178.14 103.21C178.09 103.271 178.035 103.328 177.975 103.38C177.872 103.47 177.767 103.555 177.66 103.635C177.45 103.79 177.235 103.94 177.025 104.085C176.595 104.375 176.165 104.66 175.735 104.935C174.87 105.485 174 106.03 173.12 106.56C171.355 107.605 169.58 108.64 167.78 109.615V109.555L168.32 110.27Z" fill="#263238"/>
<path d="M172.43 93.025C172.715 93.29 172.96 93.565 173.21 93.845L173.57 94.27C173.696 94.4136 173.815 94.5639 173.925 94.72C173.571 94.5449 173.257 94.3 173 94C172.751 93.713 172.558 93.3824 172.43 93.025Z" fill="#263238"/>
<path d="M164.91 87.245C164.91 87.245 170.195 82.05 173.63 82.16L176.55 84.74C176.55 84.74 177.51 85.05 177.8 84.44C178.53 82.94 178.67 79.315 175.545 76.97C172.68 74.82 166.82 75.275 162.92 76.31C159.175 77.31 157.115 79.52 158.27 81.96C159.425 84.4 164.91 87.245 164.91 87.245Z" fill="#47B88F"/>
<path opacity="0.1" d="M164.53 86.095C164.53 86.095 160.225 83.04 159.775 81.22C159.325 79.4 162.965 77.65 165.32 76.965C168.955 75.9 171.44 76.13 173.485 78.07C175.53 80.01 164.53 86.095 164.53 86.095Z" fill="black"/>
<path d="M164.805 85.665C166.45 85.855 169.555 83.57 170.425 81.165C170.485 81 169.995 79.425 169.49 77.485C169.19 76.31 168.88 74.985 168.685 73.765C168.65 73.51 161.305 76.845 161.305 76.845C161.99 78.3063 162.494 79.8461 162.805 81.43C162.827 81.5957 162.836 81.7629 162.83 81.93V82C162.815 83 163.045 85.465 164.805 85.665Z" fill="#AD6359"/>
<path d="M162.815 81.92C162.813 81.9483 162.813 81.9768 162.815 82.005C163.08 81.9969 163.344 81.9685 163.605 81.92C168.105 81.105 168.41 75.26 168.41 73.79C167.075 74.2 161.295 76.825 161.295 76.825C161.98 78.2863 162.484 79.8261 162.795 81.41C162.816 81.5792 162.823 81.7498 162.815 81.92Z" fill="#263238"/>
<path d="M169.6 64.8049C170.41 67.5699 168.865 75.5149 166.885 77.2699C164.015 79.8099 159.355 80.005 157.21 76.565C155.125 73.225 157.325 62.9049 159.535 61.3149C162.785 58.9999 168.405 60.7149 169.6 64.8049Z" fill="#AD6359"/>
<path d="M162.925 69.66C162.925 69.66 162.96 69.695 162.955 69.715C162.835 70.25 162.79 70.88 163.24 71.15C163.24 71.15 163.24 71.185 163.24 71.15C162.655 71 162.725 70.145 162.925 69.66Z" fill="#263238"/>
<path d="M163.5 69.1901C164.37 69.2901 164.11 71.0301 163.3 70.9401C162.49 70.8501 162.775 69.1101 163.5 69.1901Z" fill="#263238"/>
<path d="M159.605 69.1801C159.605 69.1801 159.56 69.1801 159.555 69.2201C159.495 69.7651 159.33 70.3751 158.815 70.4801V70.5101C159.42 70.5001 159.63 69.7051 159.605 69.1801Z" fill="#263238"/>
<path d="M159.21 68.545C158.35 68.35 158.02 70.08 158.815 70.26C159.61 70.44 159.925 68.71 159.21 68.545Z" fill="#263238"/>
<path d="M164.315 68.5C164.095 68.3997 163.881 68.2861 163.675 68.16C163.432 68.0742 163.226 67.9085 163.09 67.69C163.06 67.6139 163.056 67.5299 163.078 67.4512C163.101 67.3724 163.149 67.3034 163.215 67.255C163.361 67.1776 163.524 67.141 163.689 67.1489C163.853 67.1568 164.013 67.209 164.15 67.3C164.457 67.4378 164.702 67.6858 164.835 67.995C164.862 68.0671 164.868 68.1455 164.851 68.2207C164.835 68.2959 164.796 68.3645 164.741 68.4182C164.686 68.4719 164.616 68.5082 164.54 68.5227C164.465 68.5373 164.386 68.5294 164.315 68.5Z" fill="#263238"/>
<path d="M158.745 67C158.986 66.9857 159.227 66.959 159.465 66.92C159.721 66.9291 159.972 66.8535 160.18 66.705C160.237 66.6453 160.273 66.5683 160.282 66.486C160.292 66.4037 160.273 66.3207 160.23 66.25C160.122 66.1259 159.984 66.0323 159.828 65.9788C159.673 65.9252 159.506 65.9136 159.345 65.945C159.008 65.9573 158.688 66.0966 158.45 66.335C158.399 66.3924 158.366 66.4632 158.354 66.5389C158.343 66.6146 158.353 66.6922 158.384 66.7622C158.415 66.8323 158.466 66.8919 158.53 66.9341C158.594 66.9762 158.668 66.9991 158.745 67Z" fill="#263238"/>
<path d="M162.09 72.9999C161.921 73.193 161.714 73.349 161.481 73.4583C161.249 73.5676 160.997 73.6277 160.74 73.635C160.516 73.6439 160.292 73.6203 160.075 73.565C160.034 73.5584 159.994 73.5466 159.955 73.5299L159.84 73.495C159.812 73.486 159.788 73.4677 159.771 73.4432C159.755 73.4187 159.748 73.3893 159.75 73.3599C159.748 73.3417 159.748 73.3232 159.75 73.3049V73.26C159.8 72.845 159.935 72.2149 159.935 72.2149C159.77 72.2699 158.935 72.505 158.99 72.2899C159.319 70.424 159.837 68.5963 160.535 66.8349C160.54 66.8234 160.549 66.814 160.56 66.8088C160.572 66.8035 160.584 66.8026 160.596 66.8064C160.608 66.8102 160.618 66.8183 160.625 66.8291C160.631 66.84 160.633 66.8527 160.63 66.8649C160.335 68.5899 159.745 70.25 159.42 71.98C159.714 71.8943 160.019 71.8489 160.325 71.845C160.385 71.87 160.045 73.0499 160.035 73.2399C160.372 73.3271 160.723 73.345 161.066 73.2925C161.41 73.2401 161.74 73.1185 162.035 72.9349C162.09 72.9049 162.13 72.9449 162.09 72.9999Z" fill="#263238"/>
<path d="M160.355 73.375C160.538 73.7062 160.803 73.985 161.125 74.185C161.304 74.2864 161.51 74.33 161.715 74.31C162.165 74.26 162.215 73.865 162.215 73.515C162.196 73.3297 162.158 73.1469 162.1 72.97C161.577 73.2887 160.965 73.4307 160.355 73.375Z" fill="#263238"/>
<path d="M161.125 74.1851C161.304 74.2864 161.51 74.3301 161.715 74.3101C162.165 74.2601 162.215 73.8651 162.215 73.5151C161.984 73.4866 161.751 73.5374 161.553 73.6591C161.355 73.7808 161.204 73.9663 161.125 74.1851Z" fill="#FF9BBC"/>
<path opacity="0.2" d="M169.115 71.5799C168.615 71.4349 167.35 69.9649 167.32 68.6799C167.32 67.8199 167.27 63.7399 167.32 62.9449C168.112 63.5497 168.717 64.3661 169.065 65.2999C169.5 66.4099 169.35 69.4499 169.115 71.5799Z" fill="#263238"/>
<path d="M160.955 65C161.197 65.3549 161.525 65.6415 161.91 65.8324C162.294 66.0233 162.721 66.1121 163.15 66.09C163.587 66.0687 164.012 65.9364 164.384 65.7054C164.755 65.4745 165.062 65.1525 165.275 64.77C165.275 64.77 165.32 64.77 165.31 64.77C165.121 65.1902 164.822 65.5515 164.444 65.8156C164.067 66.0796 163.625 66.2366 163.165 66.27C162.711 66.2761 162.263 66.1629 161.867 65.9418C161.47 65.7207 161.139 65.3994 160.905 65.01C160.907 65.0052 160.91 65.001 160.914 64.9977C160.918 64.9944 160.922 64.9921 160.927 64.9911C160.932 64.9901 160.937 64.9904 160.942 64.992C160.947 64.9935 160.952 64.9963 160.955 65Z" fill="#263238"/>
<path d="M164.19 59.0901C164.85 59.162 165.481 59.3984 166.027 59.7775C166.572 60.1566 167.013 60.6663 167.31 61.2601C167.548 61.8529 167.576 62.509 167.39 63.1201C167.39 63.1201 167.335 63.1201 167.34 63.1201C167.427 62.5713 167.364 62.0094 167.159 61.4931C166.954 60.9768 166.614 60.525 166.175 60.1851C165.697 59.7945 165.135 59.52 164.533 59.3829C163.931 59.2458 163.305 59.25 162.705 59.3951C162.121 59.5252 161.603 59.8605 161.245 60.3401C161.21 60.3851 161.105 60.3401 161.135 60.2901C161.625 59.4101 162.88 58.9251 164.19 59.0901Z" fill="#263238"/>
<path d="M155.61 61.9C155.9 61.3202 156.404 60.8756 157.015 60.66C157.925 60.235 158.88 60.405 159.825 60.585C159.85 60.585 159.825 60.63 159.825 60.625C159.031 60.4097 158.193 60.4201 157.405 60.655C156.759 60.8869 156.212 61.3334 155.855 61.92C155.681 62.1788 155.562 62.4706 155.505 62.7773C155.449 63.084 155.456 63.3991 155.526 63.7029C155.597 64.0068 155.729 64.2929 155.914 64.5436C156.1 64.7942 156.335 65.0041 156.605 65.16C156.944 65.3853 157.323 65.5415 157.722 65.6196C158.121 65.6977 158.532 65.6961 158.93 65.615C158.96 65.615 158.975 65.655 158.93 65.66C158.222 65.8335 157.474 65.7473 156.824 65.417C156.174 65.0868 155.663 64.5344 155.385 63.86C155.288 63.5352 155.257 63.1938 155.296 62.8569C155.335 62.5199 155.442 62.1944 155.61 61.9Z" fill="#263238"/>
<path d="M169.405 66.7899C169.405 66.7899 171.045 64.3349 170.045 62.7149C169.475 61.7999 167.3 61.7149 167.3 61.7149C166.808 60.7969 165.972 60.1118 164.975 59.8099C163.205 59.2149 159.57 60.5449 159.57 60.5449C158.702 60.3666 157.8 60.4754 157 60.8549C155.5 61.7249 155.18 64.1749 157.335 65.4999C158.835 66.4299 161.14 65.2399 161.14 65.2399C161.345 65.2899 163.345 66.7799 165.14 65.0449C165.14 65.0449 166.325 66.3399 167.58 65.6399C167.731 65.9945 167.987 66.2945 168.313 66.5C168.639 66.7054 169.02 66.8066 169.405 66.7899Z" fill="#263238"/>
<path d="M167.5 71.36C167.5 71.36 169.38 68.86 170.525 69.52C171.67 70.18 170.205 73.89 168.815 74.355C168.643 74.4226 168.459 74.4553 168.275 74.4513C168.09 74.4473 167.908 74.4067 167.739 74.3318C167.57 74.257 167.418 74.1493 167.291 74.0151C167.164 73.8809 167.065 73.7228 167 73.55L167.5 71.36Z" fill="#AD6359"/>
<path d="M170.095 70.5699V70.6049C169.12 70.9649 168.595 71.8399 168.205 72.7549C168.263 72.6602 168.342 72.5794 168.434 72.518C168.527 72.4566 168.632 72.4162 168.742 72.3995C168.852 72.3829 168.964 72.3904 169.071 72.4215C169.178 72.4527 169.276 72.5068 169.36 72.5799C169.36 72.5799 169.36 72.6349 169.335 72.6299C169.167 72.5715 168.986 72.5661 168.815 72.6144C168.644 72.6627 168.492 72.7624 168.38 72.8999C168.195 73.1322 168.036 73.3836 167.905 73.6499C167.855 73.7349 167.705 73.6849 167.74 73.5849C167.765 72.3349 168.775 70.6499 170.095 70.5699Z" fill="#263238"/>
<path d="M163.5 59.1599C164.621 58.9055 165.773 58.8178 166.92 58.8999C168.195 59.0149 170.815 59.3449 172.42 61.4799C173.735 63.2499 173.045 65.8999 172.95 66.4449C172.855 66.9899 171.905 70.2049 170.55 70.7349C169.195 71.2649 170.295 65.6949 168.83 63.4449C167.365 61.1949 163.5 59.1599 163.5 59.1599Z" fill="#47B88F"/>
<path opacity="0.1" d="M163.5 59.16C163.5 59.16 167.345 61.2 168.81 63.45C170.275 65.7 169.175 71.265 170.53 70.735C171.13 70.5 171.495 70.04 171.895 69.235C172.005 67.56 171.895 64.905 170.925 62.865C170.015 60.96 168.02 59.66 165.75 58.865C164.993 58.8998 164.24 58.9985 163.5 59.16Z" fill="black"/>
<path d="M169.47 73.955C169.685 72.455 169.045 68.17 167.97 65.56C166.895 62.95 162.545 60.61 161.89 60.505C160.295 60.255 159.66 60.615 159.44 60.42C159.22 60.225 161.1 59.42 161.6 59.225C162.1 59.03 163.43 58.69 164.1 58.86C164.77 59.03 168.905 60.36 170.045 62.495C171.185 64.63 172.25 70.14 171.545 71.345C171.385 71.635 170.93 71.74 170.7 72.155C170.405 72.69 170.135 73.33 169.875 73.695C169.615 74.06 169.45 74.085 169.47 73.955Z" fill="#47B88F"/>
<path d="M167.825 64.46C168.233 64.3261 168.63 64.1588 169.01 63.96C169.397 63.7553 169.76 63.5071 170.09 63.22C170.09 63.22 170.15 63.22 170.125 63.25C169.84 63.5921 169.502 63.8873 169.125 64.125C168.736 64.3489 168.309 64.4997 167.865 64.57C167.858 64.5726 167.85 64.5738 167.843 64.5734C167.835 64.5731 167.827 64.5713 167.82 64.568C167.813 64.5648 167.807 64.5602 167.802 64.5545C167.797 64.5488 167.793 64.5422 167.79 64.535C167.788 64.5278 167.786 64.5201 167.787 64.5124C167.787 64.5047 167.789 64.4972 167.792 64.4902C167.795 64.4833 167.8 64.477 167.806 64.4718C167.811 64.4666 167.818 64.4626 167.825 64.46Z" fill="#263238"/>
<path d="M169.805 72.5C169.876 72.4056 169.953 72.3154 170.035 72.23C170.117 72.1253 170.189 72.0132 170.25 71.895C170.332 71.6566 170.441 71.4284 170.575 71.215C170.709 71.0588 170.862 70.9195 171.03 70.8C171.229 70.675 171.378 70.4838 171.45 70.26C171.45 70.23 171.51 70.26 171.5 70.26C171.405 70.71 171.035 70.965 170.755 71.295C170.614 71.5272 170.49 71.7696 170.385 72.02C170.28 72.2462 170.105 72.4322 169.885 72.55C169.825 72.56 169.785 72.5 169.805 72.5Z" fill="#263238"/>
<path d="M169.645 70.775C169.82 70.635 170.005 70.52 170.145 70.365C170.301 70.2081 170.446 70.0411 170.58 69.865C170.715 69.7 170.835 69.52 170.965 69.365C171.095 69.21 171.3 68.98 171.465 68.775C171.465 68.745 171.52 68.775 171.505 68.805C171.355 69.02 171.24 69.265 171.1 69.485C170.973 69.6734 170.834 69.8537 170.685 70.025C170.545 70.1915 170.389 70.3439 170.22 70.48C170.053 70.6237 169.86 70.7325 169.65 70.8L169.645 70.775Z" fill="#263238"/>
<path d="M169.42 69.21C169.788 69.0181 170.125 68.772 170.42 68.48C170.705 68.195 170.98 67.89 171.245 67.585C171.245 67.585 171.305 67.585 171.285 67.61C171.075 67.9716 170.823 68.3072 170.535 68.61C170.384 68.7558 170.216 68.8834 170.035 68.99C169.841 69.0995 169.635 69.1851 169.42 69.245C169.42 69.265 169.395 69.225 169.42 69.21Z" fill="#263238"/>
<path d="M169.14 67.6999C169.327 67.634 169.498 67.5283 169.64 67.39C169.805 67.255 169.97 67.1099 170.14 66.9649C170.31 66.8199 170.445 66.6899 170.59 66.5449C170.754 66.4093 170.886 66.2384 170.975 66.0449C170.975 66.0149 171.03 66.0449 171.025 66.0449C170.964 66.2438 170.862 66.4277 170.725 66.585C170.586 66.7644 170.432 66.9316 170.265 67.085C170.1 67.2373 169.925 67.3776 169.74 67.5049C169.585 67.633 169.395 67.7114 169.195 67.73C169.19 67.7337 169.184 67.7358 169.177 67.7362C169.171 67.7366 169.164 67.7351 169.158 67.732C169.153 67.7289 169.148 67.7242 169.145 67.7185C169.142 67.7129 169.14 67.7065 169.14 67.6999Z" fill="#263238"/>
<path d="M169.1 65.855C169.265 65.75 169.43 65.645 169.6 65.53C169.77 65.415 169.91 65.285 170.055 65.16C170.2 65.035 170.375 64.895 170.52 64.755C170.545 64.755 170.58 64.755 170.56 64.79C170.441 64.957 170.311 65.1157 170.17 65.265C170.025 65.4076 169.871 65.5412 169.71 65.665C169.552 65.7886 169.385 65.9006 169.21 66C169.042 66.1139 168.854 66.1937 168.655 66.235C168.625 66.235 168.605 66.195 168.625 66.175C168.773 66.0541 168.932 65.9469 169.1 65.855Z" fill="#263238"/>
<path d="M166.875 63.375C167.06 63.225 167.24 63.08 167.44 62.945C167.64 62.81 167.855 62.69 168.07 62.58C168.489 62.3669 168.93 62.1993 169.385 62.08C169.41 62.08 169.435 62.11 169.41 62.125C168.58 62.57 167.73 62.98 166.91 63.435C166.875 63.43 166.85 63.395 166.875 63.375Z" fill="#263238"/>
<path d="M166.26 61.915C166.446 61.7688 166.649 61.6462 166.865 61.55C167.321 61.3542 167.797 61.21 168.285 61.12C168.292 61.12 168.298 61.1226 168.303 61.1273C168.307 61.132 168.31 61.1384 168.31 61.145C168.31 61.1516 168.307 61.158 168.303 61.1627C168.298 61.1674 168.292 61.17 168.285 61.17C167.845 61.34 167.405 61.505 166.975 61.7C166.763 61.7929 166.556 61.8981 166.355 62.015C166.155 62.135 165.985 62.295 165.79 62.425H165.765C165.892 62.2221 166.061 62.0483 166.26 61.915Z" fill="#263238"/>
<path d="M165.155 61.065C165.331 60.9224 165.52 60.7969 165.72 60.69C166.102 60.4923 166.515 60.3589 166.94 60.295C166.97 60.295 166.975 60.335 166.94 60.345C166.533 60.4767 166.138 60.644 165.76 60.845C165.57 60.945 165.385 61.06 165.2 61.17C165.025 61.2987 164.843 61.4173 164.655 61.525C164.655 61.525 164.63 61.525 164.655 61.495C164.808 61.3368 164.976 61.1928 165.155 61.065Z" fill="#263238"/>
<path d="M164.425 60.135C164.61 60.045 164.795 59.96 164.985 59.88C165.166 59.7902 165.36 59.731 165.56 59.705C165.59 59.705 165.595 59.74 165.56 59.75C165.205 59.925 164.855 60.11 164.5 60.29C164.188 60.4797 163.898 60.7026 163.635 60.955C163.635 60.955 163.6 60.955 163.61 60.955C163.793 60.6063 164.077 60.3206 164.425 60.135Z" fill="#263238"/>
<path d="M163.37 59.655C163.714 59.4507 164.094 59.3149 164.49 59.255C164.49 59.255 164.525 59.3 164.49 59.305C164.118 59.4163 163.765 59.585 163.445 59.805C163.12 60.0123 162.819 60.2537 162.545 60.525C162.545 60.525 162.505 60.525 162.515 60.525C162.728 60.172 163.021 59.874 163.37 59.655Z" fill="#263238"/>
<path d="M161.77 60C161.825 59.9303 161.885 59.8651 161.95 59.805C162.075 59.6786 162.214 59.5678 162.365 59.475C162.682 59.2869 163.017 59.1311 163.365 59.01C163.395 59.01 163.41 59.045 163.365 59.06C163.035 59.1863 162.723 59.3543 162.435 59.56C162.293 59.657 162.159 59.7657 162.035 59.885C161.971 59.9412 161.911 60.0013 161.855 60.065C161.807 60.1307 161.751 60.1911 161.69 60.245C161.688 60.2481 161.685 60.2506 161.681 60.2524C161.678 60.2541 161.674 60.255 161.67 60.255C161.666 60.255 161.662 60.2541 161.659 60.2524C161.655 60.2506 161.652 60.2481 161.65 60.245C161.673 60.1562 161.714 60.0729 161.77 60Z" fill="#263238"/>
<path d="M160.865 59.885C160.974 59.7864 161.09 59.6945 161.21 59.61C161.329 59.5274 161.452 59.4523 161.58 59.385C161.715 59.315 161.85 59.25 161.975 59.175C161.981 59.1717 161.988 59.1709 161.995 59.1727C162.001 59.1746 162.007 59.179 162.01 59.185C162.013 59.191 162.014 59.198 162.012 59.2046C162.01 59.2111 162.006 59.2167 162 59.22C161.866 59.2875 161.739 59.3679 161.62 59.46L161.275 59.71L160.93 59.96C160.821 60.0538 160.705 60.1406 160.585 60.22L160.56 60.19C160.65 60.0774 160.752 59.9751 160.865 59.885Z" fill="#263238"/>
<path d="M164.53 86.095C164.53 86.095 168.76 78.895 174.065 78.17L173.63 82.17C173.63 82.17 170.465 82.17 164.91 87.255L164.53 86.095Z" fill="#47B88F"/>
<path d="M175.06 82.225C174.095 82.1507 173.125 82.2837 172.215 82.615C171.302 82.9217 170.428 83.3327 169.61 83.84C168.782 84.3342 167.989 84.8837 167.235 85.485L166.13 86.42L165.065 87.42L164.945 87.53L164.81 87.46C163.819 86.9545 162.863 86.3815 161.95 85.745C161.489 85.4383 161.046 85.1044 160.625 84.745C160.201 84.384 159.815 83.982 159.47 83.545C160.272 84.3001 161.158 84.9611 162.11 85.515C162.575 85.805 163.055 86.075 163.54 86.33C164.025 86.585 164.515 86.83 165.005 87.08L164.75 87.12L165.82 86.12C166.185 85.795 166.565 85.48 166.945 85.165C167.325 84.85 167.73 84.57 168.135 84.29C168.54 84.01 168.96 83.75 169.4 83.525C170.26 83.0368 171.179 82.6604 172.135 82.405C172.375 82.34 172.635 82.295 172.86 82.245C173.085 82.195 173.36 82.175 173.595 82.165C174.083 82.1023 174.579 82.1225 175.06 82.225Z" fill="#263238"/>
<path d="M176.55 84.74C175.477 83.9997 174.497 83.1335 173.63 82.16C174.706 82.8964 175.687 83.763 176.55 84.74Z" fill="#263238"/>
<path d="M166.76 84.385C167.224 86.0059 167.549 87.6637 167.73 89.34C167.865 90.51 167.805 94.75 166.49 94.72C165.175 94.69 167.04 91.78 167.205 89.535C167.37 87.29 166.63 85.715 166.425 84.4L166.76 84.385Z" fill="#47B88F"/>
<g opacity="0.1">
<path d="M166.76 84.385C167.224 86.0059 167.549 87.6637 167.73 89.34C167.865 90.51 167.805 94.75 166.49 94.72C165.175 94.69 167.04 91.78 167.205 89.535C167.37 87.29 166.63 85.715 166.425 84.4L166.76 84.385Z" fill="black"/>
</g>
<path d="M162 84.56C161.685 86.0562 161.499 87.5769 161.445 89.105C161.4 90.17 161.73 94 162.92 93.885C164.11 93.77 162.23 91.265 161.92 89.24C161.61 87.215 162.195 85.74 162.295 84.545L162 84.56Z" fill="#47B88F"/>
<g opacity="0.1">
<path d="M162 84.56C161.685 86.0562 161.499 87.5769 161.445 89.105C161.4 90.17 161.73 94 162.92 93.885C164.11 93.77 162.23 91.265 161.92 89.24C161.61 87.215 162.195 85.74 162.295 84.545L162 84.56Z" fill="black"/>
</g>
</svg>
