<svg width="40" height="40" viewBox="0 0 40 40" fill="none" xmlns="http://www.w3.org/2000/svg">
<path d="M20 39.9998C31.0155 39.9998 40 31.0155 40 20C40 8.9843 31.0157 0 20 0C8.9843 0 0 8.9843 0 19.9999C0 31.0154 8.9843 39.9998 20 39.9998Z" fill="#FFD240"/>
<path d="M25.5162 30.0348V25.9316H14.9651V30.0348L20.2407 34.7242L25.5162 30.0348Z" fill="#FFD7A3"/>
<path fill-rule="evenodd" clip-rule="evenodd" d="M35.1493 33.0339C31.4767 37.295 26.0441 39.9997 20.0001 39.9997C14.1234 39.9997 8.82488 37.4428 5.16016 33.3845C5.43432 32.6822 6.03928 32.135 6.80779 31.9542L14.0612 30.2475C14.2673 30.199 14.4487 30.0967 14.5949 29.9591L20.2406 33.5519L26.1155 30.1249C26.2098 30.1779 26.3105 30.2217 26.4201 30.2474L33.6735 31.9541C34.3086 32.1035 34.832 32.5032 35.1493 33.0339Z" fill="#8B63E7"/>
<path d="M14.9651 25.9316V30.2608C21.6109 32.6552 25.5162 26.6626 25.5162 26.6626V25.9316H14.9651V25.9316Z" fill="#F0C290"/>
<path d="M12.6204 12.4497L13.1312 23.6874C13.1789 24.7372 13.6937 25.7108 14.5344 26.3413L16.958 28.1591C17.5669 28.6156 18.3073 28.8625 19.0683 28.8625H21.413C22.174 28.8625 22.9144 28.6157 23.5232 28.1591L25.9469 26.3413C26.7876 25.7107 27.3024 24.7373 27.3501 23.6874L27.8609 12.4497C27.8608 12.4497 12.6204 12.4497 12.6204 12.4497Z" fill="#FFE1B2"/>
<path fill-rule="evenodd" clip-rule="evenodd" d="M19.9689 39.9997H20.0311C20.5934 39.9989 21.1505 39.9746 21.7013 39.9278L21.3399 34.7241H19.1417L18.778 39.9627C19.172 39.9867 19.5691 39.9991 19.9689 39.9997Z" fill="#5B5D6E"/>
<path d="M21.7062 33.5518H18.7753V34.655C18.7753 35.017 19.0686 35.3104 19.4306 35.3104H21.0507C21.4127 35.3104 21.7061 35.017 21.7061 34.655V33.5518H21.7062Z" fill="#515262"/>
<path d="M14.8829 28.7297L20.2408 33.5518C20.2408 33.5518 18.7402 34.3093 16.8886 35.836C16.5066 36.1509 15.9288 36.0233 15.724 35.5726L13.2067 30.0348L14.0031 28.8404C14.2012 28.5429 14.6172 28.4907 14.8829 28.7297Z" fill="white"/>
<path d="M25.5987 28.7297L20.2408 33.5518C20.2408 33.5518 21.7413 34.3093 23.5929 35.836C23.9749 36.1509 24.5527 36.0233 24.7576 35.5726L27.2748 30.0348L26.4785 28.8404C26.2803 28.5429 25.8643 28.4907 25.5987 28.7297Z" fill="white"/>
<path d="M23.7944 8.56631L24.3439 12.4497C26.8524 12.9514 27.2139 16.8881 27.2659 18.0125C27.2754 18.2165 27.3405 18.4135 27.4512 18.5852L28.4083 20.0699C28.4083 20.0699 28.0807 17.6153 29.5806 15.9667C29.5807 15.9667 30.0957 6.22159 23.7944 8.56631Z" fill="#4E1E30"/>
<path d="M28.9963 19.8199L28.3346 22.4669C28.2561 22.7807 27.9743 23.0007 27.6509 23.0007C27.2954 23.0007 26.9956 22.7361 26.9515 22.3834L26.6131 19.676C26.5225 18.9514 27.0875 18.3113 27.8178 18.3113H27.8183C28.6083 18.3114 29.1879 19.0536 28.9963 19.8199Z" fill="#FFE1B2"/>
<path d="M13.1823 7.51605L14.0493 8.10832C10.1293 11.0025 10.862 15.9667 10.862 15.9667C12.0343 17.139 12.0343 20.0699 12.0343 20.0699L13.2066 18.8976C13.2066 18.8976 12.7542 15.511 14.9651 14.2082C17.0167 12.9992 18.8119 13.6221 20.6437 13.6221C25.5529 13.6221 26.9267 11.7719 26.6886 9.51885C26.5653 8.35303 24.7829 5.92457 20.2407 6.0018C18.4077 6.03294 14.9653 6.58796 13.1823 7.51605Z" fill="#66273F"/>
<path d="M12.8403 13.1091C12.8403 13.1091 12.2175 10.6545 14.0493 8.1084C10.1293 11.0026 10.862 15.9668 10.862 15.9668C12.0343 17.1391 12.0343 20.07 12.0343 20.07L13.2066 18.8977C13.2066 18.8977 12.7542 15.5111 14.9651 14.2083C17.0167 12.9993 18.8119 13.6221 20.6437 13.6221C21.4421 13.6221 22.1378 13.5687 22.7575 13.477C18.9769 13.6037 16.7483 10.74 12.8403 13.1091Z" fill="#4E1E30"/>
<path d="M11.4852 19.8199L12.1469 22.4669C12.2254 22.7807 12.5072 23.0007 12.8307 23.0007C13.1861 23.0007 13.4859 22.7361 13.53 22.3834L13.8685 19.676C13.959 18.9514 13.394 18.3113 12.6637 18.3113H12.6632C11.8732 18.3114 11.2936 19.0536 11.4852 19.8199Z" fill="#FFE1B2"/>
</svg>
