<svg width="20" height="20" viewBox="0 0 20 20" fill="none" xmlns="http://www.w3.org/2000/svg">
<path d="M19.9803 9.5119C19.9018 9.23232 19.6114 9.06937 19.332 9.1479L18.0351 9.51207L18.2875 8.52799C18.3257 8.37914 18.2968 8.22098 18.2085 8.09522L15.3146 3.97438C15.2507 3.88349 15.1626 3.81892 15.0648 3.78317C15.1897 3.47418 15.2591 3.13714 15.2591 2.78391C15.2591 1.30809 14.0584 0.107391 12.5825 0.107391C11.1067 0.107391 9.90606 1.30809 9.90606 2.78391C9.90606 4.09497 10.8538 5.18812 12.1 5.41609C12.0761 5.52036 12.0833 5.63246 12.1276 5.73766L13.3708 8.69094L12.737 11.0065L6.46793 12.7999L5.23586 11.0334L4.83871 6.62499C4.82761 6.50154 4.77398 6.39079 4.6928 6.30692C5.41857 5.82763 5.89867 5.00519 5.89867 4.07226C5.89867 2.5964 4.69797 1.3957 3.22215 1.3957C1.74633 1.3957 0.545674 2.5964 0.545674 4.07226C0.545674 4.84809 0.877836 5.54762 1.40702 6.03693C1.32306 6.11058 1.26194 6.21119 1.23835 6.32812L0.0799239 12.0673C0.0478308 12.2262 0.090902 12.3911 0.196603 12.5141L1.6871 14.248L0.379109 14.6283C0.100282 14.7094 -0.0600156 15.0011 0.0210374 15.2799C0.0878736 15.5097 0.297804 15.659 0.525653 15.659C0.574276 15.659 0.623699 15.6523 0.672701 15.638L2.44022 15.124L2.63694 15.3529L1.33753 17.9936C1.23738 18.1972 1.27906 18.442 1.44096 18.601L2.60359 19.7421C2.70197 19.8387 2.83421 19.8926 2.97188 19.8926C2.97441 19.8926 2.97689 19.8926 2.97937 19.8926C3.11969 19.8906 3.2534 19.8326 3.35073 19.7314L7.66194 15.2523C7.83599 15.0714 7.85795 14.7928 7.71435 14.5869L7.10386 13.7116L12.4122 12.193L12.0129 13.6517C11.9501 13.8812 12.0491 14.1241 12.2544 14.2444L16.9997 17.022C17.0826 17.0704 17.1742 17.094 17.265 17.094C17.4114 17.094 17.5556 17.0331 17.6584 16.9174L18.8613 15.563C19.0278 15.3755 19.0387 15.0964 18.8873 14.8965L17.2193 12.6934L17.7335 10.6891L19.6165 10.1603C19.8958 10.0817 20.0588 9.79145 19.9803 9.5119ZM3.22198 2.4472C4.11798 2.4472 4.84695 3.17618 4.84695 4.07222C4.84695 4.96822 4.11798 5.69715 3.22198 5.69715C2.32598 5.69715 1.59705 4.96822 1.59705 4.07222C1.59705 3.17618 2.32602 2.4472 3.22198 2.4472ZM2.96116 18.6198L2.44872 18.1167L3.73362 15.5055C3.82658 15.3166 3.79785 15.0904 3.66056 14.9307L1.16137 12.0235L2.17532 6.99968L3.83045 7.1548L4.20088 11.2668C4.20909 11.358 4.24097 11.4453 4.29329 11.5204L5.819 13.7079C5.81997 13.7093 5.82098 13.7107 5.82203 13.7122L6.60459 14.8342L2.96116 18.6198ZM10.9576 2.78391C10.9576 1.88791 11.6865 1.15894 12.5825 1.15894C13.4785 1.15894 14.2075 1.88791 14.2075 2.78391C14.2075 3.67999 13.4785 4.40897 12.5825 4.40897C11.6865 4.40897 10.9576 3.67999 10.9576 2.78391ZM17.7884 15.1873L17.1584 15.8965L13.1334 13.5405L14.433 8.79328C14.464 8.67971 14.4561 8.55899 14.4105 8.45047L13.28 5.76504L14.7255 4.96523L17.2087 8.50128L16.1375 12.6779C16.0977 12.8331 16.1309 12.998 16.2276 13.1258L17.7884 15.1873Z" fill="#F6F6F6"/>
</svg>
